<?xml version="1.0" encoding="UTF-8"?> <svg xmlns="http://www.w3.org/2000/svg" width="960" height="960" viewBox="0 0 960 960" fill="none"> <path d="M637.3 552.81C636.143 553.388 635.49 554.185 635.347 555.196C635.201 556.21 635.997 558.017 637.733 560.621C639.469 563.225 640.409 564.889 640.554 565.611C640.698 566.336 641.059 566.914 641.637 567.347C642.218 567.782 643.158 569.157 644.459 571.471C645.762 573.786 647.134 575.809 648.581 577.544C650.03 579.28 650.824 580.512 650.969 581.234C651.113 581.958 651.981 583.259 653.573 585.141C655.163 587.02 657.045 589.913 659.214 593.82C661.385 597.724 662.903 600.039 663.771 600.763C664.639 601.485 665.361 602.499 665.939 603.8C666.518 605.103 667.097 605.971 667.675 606.404C668.254 606.839 668.545 607.271 668.545 607.707C668.545 608.139 669.846 610.31 672.45 614.215C675.054 618.122 676.5 620.075 676.79 620.075C677.079 620.075 677.297 620.436 677.44 621.158C677.586 621.883 678.236 622.894 679.393 624.197C680.551 625.498 681.708 627.234 682.865 629.405C684.022 631.573 685.108 633.166 686.119 634.177C687.133 635.191 689.591 638.88 693.498 645.243C697.402 651.607 700.513 656.239 702.827 659.129C705.142 662.022 706.299 663.687 706.299 664.122C706.299 664.554 707.674 666.651 710.421 670.415C713.171 674.173 714.617 676.416 714.761 677.141C714.907 677.863 715.629 679.02 716.932 680.612C718.232 682.202 719.464 684.227 720.621 686.688C721.778 689.146 723.297 691.678 725.176 694.281C726.116 695.582 727.057 696.885 727.997 698.188C726.261 698.332 724.525 698.475 722.79 698.621C719.318 698.91 715.992 699.489 712.807 700.357C709.627 701.225 707.891 701.875 707.6 702.31C707.313 702.743 707.021 702.889 706.734 702.743C706.443 702.6 704.853 703.322 701.959 704.914C699.066 706.504 697.041 707.951 695.884 709.254C694.727 710.554 693.569 711.496 692.412 712.075C691.255 712.654 690.459 713.304 690.026 714.026C689.591 714.751 688.58 715.547 686.987 716.412C685.397 717.283 684.601 717.861 684.601 718.148C684.601 718.44 684.168 718.655 683.298 718.801C682.432 718.944 681.997 719.162 681.997 719.451C681.997 719.741 680.044 720.247 676.139 720.97C672.232 721.694 669.268 722.49 667.242 723.356C665.217 724.226 661.817 726.249 657.045 729.434C652.27 732.614 649.884 734.349 649.884 734.641C649.884 734.785 649.884 734.928 649.884 735.074C649.666 735.074 649.451 735.074 649.234 735.074C648.798 735.074 647.859 735.653 646.412 736.81C644.966 737.967 643.954 738.546 643.373 738.546C643.086 738.546 642.795 738.546 642.508 738.546C642.508 738.691 642.508 738.835 642.508 738.978C642.508 739.27 641.638 739.631 639.902 740.064C638.166 740.499 636.069 740.714 633.611 740.714C631.151 740.717 627.825 741.51 623.629 743.103C619.435 744.693 617.12 745.635 616.685 745.922C616.252 746.213 616.035 746.575 616.035 747.007C616.035 747.225 616.035 747.442 616.035 747.658C615.817 747.658 615.6 747.658 615.385 747.658C614.949 747.658 614.227 748.165 613.214 749.178C612.202 750.19 611.549 751.129 611.262 752C610.973 752.865 610.538 753.444 609.959 753.735C609.381 754.022 609.02 754.747 608.874 755.904C608.73 757.061 608.369 757.786 607.791 758.073C607.212 758.364 606.849 759.954 606.705 762.848C606.559 765.741 606.921 768.273 607.791 770.441C608.656 772.612 609.309 773.695 609.742 773.695C609.959 773.695 610.177 773.695 610.392 773.695C610.392 773.913 610.392 774.131 610.392 774.348C610.392 774.781 611.188 775.431 612.781 776.301C614.371 777.167 615.963 777.82 617.553 778.253C619.146 778.688 622.978 779.195 629.054 779.773C635.129 780.352 640.483 780.639 645.109 780.639C649.738 780.639 652.127 780.785 652.27 781.074C652.416 781.363 654.295 781.509 657.913 781.509C661.528 781.509 663.41 781.363 663.553 781.074C663.625 780.93 663.699 780.785 663.771 780.639C663.988 780.785 664.204 780.93 664.421 781.074C664.856 781.363 673.679 781.509 690.894 781.509C708.107 781.509 717.654 781.363 719.535 781.074C721.415 780.785 723.514 780.713 725.828 780.856C728.143 781.002 729.515 780.93 729.951 780.639C730.383 780.352 731.469 780.352 733.205 780.639C734.941 780.93 738.484 780.856 743.837 780.424C749.188 779.988 755.264 779.773 762.064 779.773C768.861 779.773 774.141 779.338 777.904 778.47C781.665 777.602 784.919 776.445 787.666 774.998C790.416 773.552 791.863 772.612 792.006 772.177C792.152 771.744 793.02 771.094 794.61 770.224C796.202 769.358 796.924 768.705 796.781 768.273C796.707 768.055 796.635 767.837 796.563 767.622C796.924 767.548 797.285 767.476 797.649 767.405C798.371 767.259 799.456 765.741 800.903 762.848C802.349 759.954 803.146 757.207 803.289 754.601C803.435 752 802.928 749.25 801.771 746.357C800.614 743.464 798.371 740.571 795.045 737.678C791.717 734.785 788.68 732.831 785.931 731.82C783.183 730.806 780.362 729.505 777.469 727.913C774.576 726.323 772.696 725.166 771.826 724.441C770.961 723.719 770.09 722.562 769.225 720.97C768.357 719.38 767.704 718.583 767.271 718.583C767.054 718.583 766.836 718.583 766.619 718.583C766.621 718.366 766.619 718.148 766.619 717.933C766.621 717.498 766.403 717.209 765.968 717.065C765.753 716.991 765.535 716.919 765.318 716.848C765.39 716.63 765.461 716.412 765.535 716.197C765.679 715.762 765.39 715.255 764.668 714.677C763.943 714.098 763.582 713.593 763.582 713.158C763.582 712.725 763.221 712.147 762.497 711.422C761.774 710.7 761.196 710.339 760.761 710.339C760.546 710.339 760.328 710.339 760.11 710.339C760.11 710.122 760.11 709.904 760.11 709.687C760.11 709.254 759.604 708.603 758.592 707.733C757.578 706.868 755.046 705.419 750.996 703.396C746.946 701.368 743.331 700.068 740.148 699.489C736.966 698.91 735.012 697.681 734.29 695.8C733.566 693.92 732.915 692.763 732.337 692.328C731.758 691.895 731.036 690.81 730.166 689.074C729.3 687.338 728.722 686.47 728.43 686.47C728.143 686.47 727.129 684.806 725.393 681.48C723.658 678.152 722.211 675.838 721.054 674.537C719.897 673.234 718.378 670.848 716.497 667.376C714.617 663.904 712.881 661.229 711.289 659.347C709.699 657.468 706.01 651.825 700.224 642.424C694.437 633.02 690.894 627.669 689.591 626.366C688.29 625.065 687.422 623.762 686.987 622.461C686.554 621.158 686.191 620.508 685.904 620.508C685.758 620.508 685.612 620.508 685.469 620.508C685.469 620.29 685.469 620.075 685.469 619.858C685.469 619.422 684.89 618.554 683.733 617.254C682.576 615.951 680.912 613.419 678.743 609.66C676.572 605.899 674.764 603.149 673.318 601.414C671.871 599.678 671.075 598.449 670.932 597.724C670.786 597.002 670.497 596.567 670.064 596.424C669.629 596.278 669.05 595.41 668.328 593.82C667.603 592.227 667.025 591.431 666.592 591.431C666.375 591.431 666.157 591.431 665.939 591.431C665.939 591.144 665.939 590.853 665.939 590.566C665.939 589.987 665.074 588.323 663.338 585.573C661.602 582.826 660.371 581.162 659.649 580.583C658.924 580.005 658.563 579.498 658.563 579.065C658.563 578.63 658.346 578.341 657.913 578.197C657.478 578.051 656.827 577.04 655.959 575.158C655.092 573.279 654.08 571.758 652.923 570.601C651.766 569.446 651.187 568.578 651.187 568C651.187 567.421 650.752 566.768 649.884 566.046C649.016 565.322 648.509 564.6 648.366 563.875C648.22 563.153 647.859 562.575 647.28 562.139C646.702 561.707 645.762 560.332 644.459 558.017C643.158 555.703 641.927 554.113 640.772 553.243C639.615 552.377 638.457 552.231 637.3 552.81ZM731.251 705.132C736.315 705.419 740.655 706.215 744.27 707.518C747.888 708.819 751.07 710.626 753.817 712.941C756.567 715.255 758.231 716.991 758.81 718.148C759.388 719.305 760.182 720.391 761.196 721.405C762.207 722.416 762.714 723.141 762.714 723.573C762.714 724.008 763.075 724.513 763.8 725.092C764.522 725.67 764.811 726.105 764.668 726.395C764.522 726.684 765.607 727.841 767.922 729.866C770.236 731.892 773.925 733.988 778.987 736.159C784.051 738.328 787.666 740.21 789.837 741.8C792.006 743.392 793.814 745.561 795.262 748.31C796.707 751.058 797.431 753.59 797.431 755.904C797.431 758.219 796.998 759.954 796.128 761.112C795.262 762.269 794.61 762.848 794.177 762.848C793.959 762.848 793.742 762.848 793.527 762.848C793.527 763.065 793.527 763.283 793.527 763.498C793.527 763.933 793.163 764.294 792.441 764.583C791.717 764.873 791.212 765.308 790.921 765.886C790.634 766.465 789.981 766.898 788.969 767.187C787.956 767.476 787.377 767.837 787.234 768.273C787.088 768.705 785.426 769.502 782.241 770.659C779.061 771.816 775.298 772.684 770.961 773.263C766.619 773.841 763.726 774.059 762.281 773.913C760.832 773.769 759.967 773.841 759.675 774.131C759.532 774.274 759.388 774.42 759.242 774.566C759.097 774.42 758.953 774.274 758.81 774.131C758.518 773.841 755.192 773.987 748.827 774.566C742.463 775.144 734.362 775.359 724.525 775.216C714.689 775.07 706.588 775.144 700.224 775.431C693.859 775.723 687.927 775.723 682.432 775.431C676.933 775.144 674.114 775.144 673.968 775.431C673.897 775.577 673.825 775.723 673.753 775.866C673.753 775.723 673.753 775.577 673.753 775.431C673.753 775.288 673.753 775.144 673.753 774.998C668.545 774.998 663.338 774.998 658.13 774.998C647.715 774.998 642.218 774.853 641.637 774.566C641.059 774.274 638.022 774.059 632.525 773.913C627.029 773.769 622.907 773.334 620.157 772.612C617.41 771.888 615.385 771.094 614.081 770.224C612.781 769.358 611.913 767.909 611.478 765.886C611.045 763.859 611.045 762.197 611.478 760.894C611.913 759.593 613.503 757.496 616.252 754.601C619 751.708 621.821 749.685 624.714 748.528C627.607 747.371 630.79 746.792 634.261 746.792C637.733 746.792 640.698 746.357 643.158 745.489C645.616 744.621 649.666 742.163 655.309 738.113C660.949 734.062 664.856 731.602 667.025 730.734C669.196 729.866 670.353 729.216 670.497 728.781C670.642 728.348 671.003 728.202 671.582 728.348C672.161 728.492 672.811 728.348 673.535 727.913C674.258 727.48 675.489 727.191 677.225 727.045C678.961 726.902 681.275 726.249 684.168 725.092C687.061 723.934 690.098 721.912 693.28 719.018C696.463 716.125 698.634 714.39 699.791 713.811C700.948 713.232 701.742 712.58 702.177 711.858C702.61 711.133 702.971 710.844 703.262 710.99C703.549 711.133 704.128 710.844 704.998 710.122C705.864 709.397 707.746 708.529 710.639 707.518C713.532 706.504 716.425 705.782 719.318 705.347C722.211 704.914 726.19 704.84 731.251 705.132Z" fill="black"></path> <mask id="mask0_35_608" style="mask-type:alpha" maskUnits="userSpaceOnUse" x="371" y="179" width="411" height="505"> <path fill-rule="evenodd" clip-rule="evenodd" d="M404.418 186.872C407.357 184.891 410.366 182.862 414.578 181.343C427.456 177.852 437.468 179.8 443.606 186.239C444.822 187.513 445.694 188.851 446.511 190.107C447.948 192.309 449.219 194.259 451.888 195.176C456.047 196.605 459.636 197.223 463.101 197.819C467.938 198.651 472.53 199.442 478.085 202.335C494.402 210.838 490.717 225.01 473.69 224.862C465.307 224.788 456.926 224.805 448.546 224.821C435.08 224.847 421.617 224.873 408.151 224.528C406.547 224.487 404.524 224.531 402.272 224.579C394.505 224.746 384.039 224.971 378.882 221.98C365.887 214.443 370.627 198.839 383.666 193.939C385.898 193.101 388.323 192.724 390.739 192.348C393.869 191.862 396.984 191.378 399.641 189.896C401.323 188.956 402.86 187.92 404.418 186.872ZM638.089 398.618L627.674 372.001C649.858 372.001 658.831 380.493 665.26 386.578C667.552 388.746 669.521 390.609 671.648 391.674C679.17 395.435 684.653 394.484 690.125 393.533C694.754 392.729 699.373 391.929 705.208 393.989C714.17 397.15 718.088 401.754 721.558 405.829C725.705 410.701 729.214 414.819 739.925 414.819C788.529 410.19 787.372 444.907 772.328 448.379C757.284 451.85 704.051 453.007 632.302 453.007V447.221L638.089 421.762V398.618ZM421.686 589.561C414.28 586.784 391.598 609.234 384.655 616.177C385.136 615.254 384.608 614.319 384.076 613.37C383.525 612.391 382.965 611.398 383.497 610.391C417.631 545.915 492.604 427.548 525.837 427.548C560.091 427.548 618.802 513.184 643.875 556.001C647.733 589.174 653.133 656.449 643.875 660.152C638.369 662.355 622.64 646.999 606.045 630.795C587.768 612.951 568.439 594.079 560.554 596.504C552.919 598.853 545.582 621.176 538.541 642.592C531.711 663.371 525.164 683.297 518.894 683.297C512.795 683.297 506.963 663.372 500.885 642.615C494.279 620.052 487.385 596.504 479.548 596.504C471.176 596.504 455.637 621.232 442.104 642.768C431.319 659.93 421.809 675.064 418.214 674.039C414.312 672.923 417.124 654.084 420.052 634.468C423.202 613.363 426.484 591.359 421.686 589.561Z" fill="#D9D9D9"></path> </mask> <g mask="url(#mask0_35_608)"> <path fill-rule="evenodd" clip-rule="evenodd" d="M404.418 186.872C407.357 184.891 410.366 182.862 414.578 181.343C427.456 177.852 437.468 179.8 443.606 186.239C444.822 187.513 445.694 188.851 446.511 190.107C447.948 192.309 449.219 194.259 451.888 195.176C456.047 196.605 459.636 197.223 463.101 197.819C467.938 198.651 472.53 199.442 478.085 202.335C494.402 210.838 490.717 225.01 473.69 224.862C465.307 224.788 456.926 224.805 448.546 224.821C435.08 224.847 421.617 224.873 408.151 224.528C406.547 224.487 404.524 224.531 402.272 224.579C394.505 224.746 384.039 224.971 378.882 221.98C365.887 214.443 370.627 198.839 383.666 193.939C385.898 193.101 388.323 192.724 390.739 192.348C393.869 191.862 396.984 191.378 399.641 189.896C401.323 188.956 402.86 187.92 404.418 186.872ZM638.089 398.618L627.674 372.001C649.858 372.001 658.831 380.493 665.26 386.578C667.552 388.746 669.521 390.609 671.648 391.674C679.17 395.435 684.653 394.484 690.125 393.533C694.754 392.729 699.373 391.929 705.208 393.989C714.17 397.15 718.088 401.754 721.558 405.829C725.705 410.701 729.214 414.819 739.925 414.819C788.529 410.19 787.372 444.907 772.328 448.379C757.284 451.85 704.051 453.007 632.302 453.007V447.221L638.089 421.762V398.618ZM421.686 589.561C414.28 586.784 391.598 609.234 384.655 616.177C385.136 615.254 384.608 614.319 384.076 613.37C383.525 612.391 382.965 611.398 383.497 610.391C417.631 545.915 492.604 427.548 525.837 427.548C560.091 427.548 618.802 513.184 643.875 556.001C647.733 589.174 653.133 656.449 643.875 660.152C638.369 662.355 622.64 646.999 606.045 630.795C587.768 612.951 568.439 594.079 560.554 596.504C552.919 598.853 545.582 621.176 538.541 642.592C531.711 663.371 525.164 683.297 518.894 683.297C512.795 683.297 506.963 663.372 500.885 642.615C494.279 620.052 487.385 596.504 479.548 596.504C471.176 596.504 455.637 621.232 442.104 642.768C431.319 659.93 421.809 675.064 418.214 674.039C414.312 672.923 417.124 654.084 420.052 634.468C423.202 613.363 426.484 591.359 421.686 589.561Z" fill="url(#paint0_radial_35_608)"></path> <g filter="url(#filter0_f_35_608)"> <path d="M517.109 750.998C558.868 856.297 627.607 928.249 670.64 911.707C713.674 895.165 714.707 796.394 672.948 691.094C631.188 585.795 562.45 513.843 519.417 530.385C476.383 546.927 475.35 645.698 517.109 750.998Z" fill="#615DE7"></path> </g> <g filter="url(#filter1_f_35_608)"> <path d="M237.042 246.051C257.927 298.714 306.402 329.28 345.314 314.322C384.227 299.365 398.841 244.548 377.956 191.885C357.071 139.222 308.596 108.656 269.684 123.614C230.772 138.571 216.157 193.388 237.042 246.051Z" fill="#615DE7"></path> </g> <g filter="url(#filter2_f_35_608)"> <path d="M496.412 439.968C581.875 527.16 688.908 561.978 735.475 517.735C782.043 473.493 750.511 366.944 665.047 279.752C579.584 192.56 472.551 157.742 425.984 201.984C379.416 246.227 410.948 352.775 496.412 439.968Z" fill="#C9E8FF"></path> </g> <g filter="url(#filter3_f_35_608)"> <path d="M642.588 564.634C716.811 536.73 765.596 484.758 751.553 448.552C737.51 412.346 665.957 405.616 591.734 433.52C517.511 461.424 468.726 513.395 482.769 549.601C496.812 585.808 568.366 592.538 642.588 564.634Z" fill="url(#paint1_radial_35_608)"></path> </g> <g filter="url(#filter4_f_35_608)"> <path d="M470.06 588.81C456.961 687.118 469.256 769.661 497.521 773.177C525.786 776.692 559.317 699.848 572.416 601.541C585.514 503.234 573.22 420.69 544.955 417.174C516.69 413.659 483.158 490.503 470.06 588.81Z" fill="#C9E8FF"></path> </g> </g> <path fill-rule="evenodd" clip-rule="evenodd" d="M457.055 261.124C458.647 259.532 460.89 258.086 463.783 256.784C466.676 255.482 469.278 254.903 471.592 255.048C473.907 255.193 475.571 255.409 476.585 255.699C477.596 255.988 478.103 256.277 478.103 256.567C478.103 256.856 478.753 257.073 480.056 257.217C481.357 257.362 482.371 257.724 483.093 258.302C483.817 258.881 484.396 259.098 484.829 258.953C485.264 258.809 486.132 259.098 487.432 259.821C488.736 260.545 489.529 260.834 489.821 260.689C490.108 260.545 490.761 260.834 491.772 261.557C492.786 262.281 495.607 263.438 500.236 265.029C504.865 266.62 507.323 267.633 507.612 268.067C507.902 268.501 508.408 268.718 509.131 268.718H510.216V269.152C510.216 269.441 510.723 269.658 511.734 269.803C512.748 269.947 514.556 270.743 517.159 272.189C519.763 273.636 521.21 274.287 521.499 274.142C521.788 273.998 523.524 274.648 526.707 276.095C529.889 277.541 533 279.133 536.036 280.869C539.075 282.604 542.112 284.051 545.151 285.208C548.187 286.366 550.43 287.451 551.876 288.463C553.323 289.476 554.408 289.981 555.131 289.981C555.855 289.981 557.23 288.969 559.255 286.944C561.278 284.919 563.014 283.616 564.462 283.037C565.909 282.46 566.92 282.243 567.499 282.387C568.078 282.532 568.656 282.388 569.235 281.954C569.814 281.52 570.971 281.302 572.707 281.302C574.442 281.302 576.396 281.664 578.565 282.387C580.736 283.111 582.326 283.473 583.339 283.473C584.351 283.473 584.929 283.762 585.075 284.34C585.219 284.919 586.015 285.498 587.461 286.076C588.908 286.655 590.354 288.101 591.801 290.416C593.247 292.73 594.187 294.61 594.622 296.056C595.055 297.503 596.069 298.806 597.659 299.963C599.251 301.12 600.263 302.784 600.698 304.953C601.131 307.124 601.131 309.003 600.698 310.596C600.263 312.186 599.684 313.343 598.962 314.067C598.237 314.79 597.659 316.743 597.226 319.925C596.791 323.108 595.923 325.929 594.622 328.387C593.319 330.847 592.019 332.801 590.715 334.247C589.415 335.692 587.822 336.777 585.943 337.501C584.061 338.224 582.978 338.802 582.687 339.237C582.4 339.67 580.736 339.959 577.697 340.105C574.66 340.249 572.056 340.033 569.885 339.455C567.717 338.876 565.981 338.152 564.678 337.284C563.377 336.416 562.437 335.548 561.856 334.68C561.278 333.812 560.701 333.305 560.121 333.162C559.542 333.016 559.255 332.655 559.255 332.076C559.255 331.498 559.037 330.991 558.602 330.558C558.169 330.123 556.795 330.558 554.48 331.859C552.166 333.162 550.791 334.898 550.358 337.066C549.923 339.237 548.983 341.406 547.537 343.577C546.09 345.746 545.005 348.206 544.283 350.953C543.919 352.328 543.558 353.703 543.197 355.077C544.94 354.666 546.68 354.256 548.423 353.846C550.37 353.388 552.316 352.93 554.263 352.471C561.641 350.736 566.631 349.724 569.235 349.435C571.839 349.146 574.804 349 578.132 349C581.458 349 585.797 349.507 591.151 350.52C596.502 351.532 601.131 352.763 605.037 354.207C608.942 355.656 612.488 357.392 615.668 359.415C618.852 361.442 620.66 362.815 621.093 363.539C621.528 364.261 622.033 364.622 622.611 364.622C623.19 364.622 623.553 365.057 623.697 365.925C623.842 366.793 624.203 367.372 624.782 367.661C625.361 367.951 625.722 368.386 625.868 368.964C626.011 369.543 626.374 369.904 626.953 370.047C627.532 370.193 628.471 371.494 629.772 373.954C631.075 376.412 631.654 377.859 631.508 378.294C631.364 378.727 631.871 380.03 633.026 382.198C634.183 384.369 634.69 385.67 634.547 386.105C634.51 386.214 634.475 386.323 634.438 386.429C634.401 386.538 634.364 386.647 634.329 386.756C634.438 386.79 634.547 386.827 634.653 386.864C634.762 386.901 634.871 386.936 634.98 386.973C635.415 387.117 635.776 387.552 636.065 388.274C636.354 388.998 636.498 389.866 636.498 390.878C636.498 391.891 636.79 392.831 637.368 393.699C637.947 394.567 638.162 395.581 638.019 396.738C637.873 397.895 637.947 398.545 638.234 398.689C638.525 398.835 638.597 399.124 638.451 399.557L638.34 399.895C638.306 399.999 638.268 400.105 638.234 400.21H638.669H639.104C639.03 403.103 638.958 405.996 638.886 408.889C638.741 414.675 638.525 417.783 638.234 418.218C637.947 418.651 637.801 420.315 637.801 423.208C637.801 426.101 637.583 427.909 637.151 428.633C636.715 429.356 636.426 430.802 636.283 432.973C636.137 435.142 635.415 438.613 634.112 443.388C632.811 448.161 632.015 450.621 631.725 450.764C631.436 450.91 631.29 451.489 631.29 452.5C631.29 453.514 630.858 454.743 629.99 456.19C629.122 457.636 628.543 459.3 628.254 461.18C627.964 463.061 627.386 464.723 626.518 466.172C625.65 467.616 624.71 469.931 623.697 473.115C622.685 476.295 621.31 479.262 619.575 482.01C617.839 484.759 617.043 486.278 617.188 486.567C617.332 486.856 617.043 487.435 616.32 488.303C615.596 489.171 615.089 490.11 614.802 491.124C614.51 492.135 614.078 492.86 613.499 493.293C612.92 493.728 612.488 494.524 612.196 495.681C611.909 496.839 611.474 497.632 610.895 498.067C610.317 498.5 609.738 499.514 609.159 501.104C608.581 502.696 609.016 501.386 608.292 502.109C608.292 502.109 603.373 496.982 604.387 495.464C606.988 490.978 608.292 488.446 608.292 487.868C608.292 487.289 609.016 485.771 610.46 483.313C611.909 480.852 612.631 479.334 612.631 478.756C612.631 478.177 613.066 477.237 613.932 475.934C614.802 474.634 616.175 471.74 618.056 467.255C619.936 462.772 620.875 460.094 620.875 459.228C620.875 458.358 621.671 456.044 623.264 452.285C624.854 448.522 625.65 446.135 625.65 445.124C625.65 444.11 625.939 442.881 626.518 441.435C627.097 439.988 627.314 438.831 627.168 437.963C627.025 437.095 627.168 436.445 627.603 436.01C628.036 435.577 628.182 435.07 628.036 434.491C627.964 434.202 627.893 433.913 627.819 433.624H628.254H628.689V430.802C628.689 428.923 628.904 427.62 629.339 426.898C629.772 426.173 629.918 425.016 629.772 423.426C629.629 421.834 629.772 420.605 630.207 419.737C630.64 418.869 630.712 418.001 630.425 417.133L630.251 416.612L630.249 416.608C630.163 416.348 630.078 416.089 629.99 415.832H630.425H630.858L630.821 415.686L630.749 415.397L630.698 415.198L630.64 414.962L630.531 414.529L630.425 414.096H630.858H631.29C631.147 412.865 631.003 411.636 630.858 410.407C630.568 407.947 630.64 406.139 631.075 404.982C631.508 403.825 631.582 403.103 631.29 402.811C631.003 402.524 630.786 401.439 630.64 399.557C630.497 397.678 630.279 396.738 629.99 396.738H629.555C629.7 396.085 629.846 395.435 629.99 394.784C630.279 393.481 630.135 392.613 629.555 392.181C628.976 391.746 628.615 390.299 628.471 387.841C628.326 385.381 628.036 384.08 627.603 383.934C627.168 383.791 627.025 383.43 627.168 382.851C627.314 382.272 626.953 381.115 626.083 379.379C625.217 377.644 623.336 375.037 620.442 371.566C617.549 368.094 615.814 366.358 615.235 366.358C614.656 366.358 614.149 366.071 613.717 365.493C613.282 364.914 612.342 364.407 610.895 363.972C609.449 363.539 608.363 363.032 607.641 362.454C606.917 361.875 605.834 361.442 604.387 361.151C602.938 360.864 602.216 360.574 602.216 360.285V359.85H601.348C600.77 359.85 600.191 359.561 599.612 358.982C599.034 358.403 597.587 358.042 595.273 357.897C592.958 357.753 591.222 357.464 590.065 357.029C588.908 356.596 585.943 356.378 581.168 356.378C576.396 356.378 571.767 356.596 567.282 357.029C562.798 357.464 558.169 358.186 553.395 359.2C548.622 360.211 545.655 361.007 544.498 361.586C543.341 362.164 542.908 366.432 543.197 374.387C543.486 382.344 543.776 386.395 544.065 386.538C544.354 386.684 544.498 388.274 544.498 391.313C544.498 394.349 544.79 397.025 545.368 399.339C545.947 401.654 546.38 405.271 546.669 410.19C546.812 412.647 546.958 415.108 547.104 417.568C547.683 417.205 548.261 416.844 548.84 416.483C549.995 415.758 553.469 412.504 559.255 406.718C565.041 400.932 568.221 397.967 568.8 397.821C569.378 397.678 570.681 396.738 572.707 395.002C574.732 393.266 576.035 392.396 576.613 392.396C577.192 392.396 577.842 392.613 578.565 393.049C579.289 393.481 579.578 394.132 579.432 395.002C579.289 395.868 577.842 397.678 575.093 400.425C573.72 401.8 572.346 403.174 570.971 404.547L570.996 404.558L571.001 404.561L571.959 404.97L572.489 405.2C573.503 405.632 574.588 406.429 575.743 407.586C576.9 408.743 577.479 409.539 577.479 409.972C577.479 410.407 577.771 410.696 578.349 410.84C578.928 410.986 579.868 412.215 581.168 414.529C582.471 416.844 583.339 418.073 583.772 418.218C584.207 418.362 585.364 420.315 587.244 424.076C589.125 427.837 590.283 430.659 590.715 432.538C591.151 434.42 591.873 436.299 592.886 438.181C593.898 440.06 594.838 442.374 595.708 445.124C596.141 446.499 596.573 447.871 597.008 449.246L597.434 448.577L597.439 448.57L597.471 448.517L597.504 448.468C597.846 447.932 598.187 447.397 598.527 446.86C599.541 445.268 600.119 443.967 600.263 442.953C600.408 441.942 601.637 439.049 603.952 434.274C606.266 429.501 607.495 426.534 607.641 425.377C607.785 424.22 608.724 423.354 610.46 422.776C612.196 422.197 613.21 422.269 613.499 422.991C613.788 423.715 613.645 425.234 613.066 427.548C612.488 429.862 611.113 433.695 608.942 439.049C606.773 444.4 605.47 447.293 605.037 447.728C604.602 448.161 604.241 449.029 603.952 450.332C603.663 451.632 603.373 452.285 603.084 452.285H602.651V453.368C602.651 454.093 601.855 455.683 600.263 458.143C598.673 460.601 597.515 462.047 596.791 462.483C596.069 462.915 595.562 462.987 595.273 462.7C594.983 462.409 594.622 462.337 594.187 462.483C593.972 462.554 593.754 462.626 593.537 462.7C593.102 460.964 592.669 459.228 592.236 457.493C591.366 454.021 590.787 452.285 590.5 452.285C590.211 452.285 589.343 453.007 587.894 454.454C586.448 455.9 585.364 456.696 584.64 456.84C583.918 456.986 582.978 457.564 581.821 458.576C580.664 459.59 575.961 462.193 567.717 466.387C559.47 470.583 551.876 473.837 544.933 476.152C537.99 478.466 533.289 479.624 530.829 479.624H527.139V479.188C527.139 478.901 526.346 478.684 524.753 478.538C523.163 478.395 521.571 477.959 519.981 477.237C518.388 476.513 516.87 475.501 515.424 474.198C513.977 472.898 512.674 471.234 511.517 469.208C510.36 467.183 509.276 463.351 508.263 457.708C507.251 452.067 506.601 443.967 506.309 433.406L506.307 433.343V433.339V433.332V433.327V433.323C506.163 428.071 506.022 422.82 505.876 417.568C502.849 418.144 499.824 418.721 496.799 419.297L496.764 419.304C490.687 420.461 485.118 421.112 480.056 421.255C474.992 421.401 471.449 421.183 469.424 420.605C467.398 420.026 465.373 418.725 463.348 416.698C461.323 414.675 459.948 413.011 459.226 411.708C458.502 410.407 458.212 409.467 458.358 408.889C458.502 408.31 458.358 407.947 457.923 407.803C457.49 407.657 457.055 407.079 456.622 406.067C456.187 405.054 456.044 404.186 456.187 403.464C456.333 402.739 456.115 402.161 455.537 401.728C454.958 401.293 454.741 400.571 454.886 399.557C455.03 398.545 454.886 397.895 454.451 397.603C454.019 397.316 453.801 396.81 453.801 396.085C453.801 395.363 453.44 394.495 452.715 393.481C451.993 392.47 451.704 391.53 451.848 390.66C451.993 389.794 451.704 388.709 450.98 387.406C450.258 386.105 449.968 385.091 450.112 384.369C450.258 383.645 450.112 383.212 449.679 383.066C449.244 382.923 448.883 382.488 448.593 381.766C448.304 381.041 448.232 380.245 448.376 379.379C448.522 378.509 448.376 377.931 447.943 377.644C447.508 377.352 447.219 376.195 447.075 374.172C446.929 372.144 446.425 369.83 445.555 367.228C444.689 364.622 444.326 362.886 444.471 362.021C444.615 361.151 444.471 360.357 444.036 359.632C443.603 358.91 443.458 357.896 443.603 356.596C443.747 355.293 443.532 353.703 442.953 351.821C442.374 349.942 438.178 349.87 430.367 351.606C422.556 353.342 418.216 354.499 417.348 355.077C416.48 355.654 414.601 356.017 411.708 356.161C408.815 356.306 407.005 356.161 406.283 355.728C405.558 355.293 404.836 355.149 404.112 355.293C403.751 355.367 403.39 355.439 403.029 355.51V354.86C403.029 354.425 402.45 354.064 401.293 353.774C400.135 353.485 399.339 352.978 398.904 352.256C398.471 351.532 397.893 351.027 397.168 350.736C396.446 350.449 396.011 350.013 395.868 349.435C395.722 348.856 395.361 348.495 394.782 348.349C394.203 348.206 393.771 347.699 393.479 346.831C393.192 345.963 392.539 345.023 391.528 344.01C390.514 342.998 389.285 340.756 387.839 337.284C386.392 333.812 385.524 330.991 385.235 328.822C384.946 326.651 384.585 325.133 384.149 324.265C383.717 323.397 383.427 321.226 383.282 317.754C383.138 314.283 382.777 312.26 382.198 311.681C381.62 311.103 381.328 308.788 381.328 304.736C381.328 300.685 381.62 296.781 382.198 293.02C382.777 289.259 383.571 285.715 384.585 282.387C385.596 279.06 386.971 275.734 388.707 272.407C390.442 269.079 391.456 267.416 391.743 267.416C392.035 267.416 392.468 266.91 393.046 265.897C393.625 264.884 395.432 263.293 398.471 261.124C401.508 258.954 403.968 257.724 405.848 257.435C407.729 257.145 411.562 257.435 417.348 258.302C423.134 259.17 426.678 259.894 427.981 260.472C429.282 261.051 430.656 261.413 432.103 261.557C433.549 261.702 434.274 261.919 434.274 262.208C434.274 262.497 436.01 263.004 439.481 263.727C442.953 264.45 445.193 265.174 446.207 265.897C447.219 266.62 448.448 267.126 449.896 267.416C451.341 267.705 452.5 267.126 453.368 265.68C454.234 264.233 455.465 262.715 457.055 261.124ZM568.585 288.03C569.307 288.173 570.175 289.402 571.188 291.717C572.2 294.031 573.285 295.695 574.442 296.709C575.6 297.72 576.324 298.588 576.613 299.313C576.9 300.035 578.132 301.264 580.3 303C582.471 304.736 583.99 305.749 584.858 306.039C585.725 306.328 586.811 305.821 588.112 304.52C589.415 303.217 590.354 302.495 590.933 302.349C591.512 302.206 592.236 302.278 593.102 302.567C593.972 302.856 594.766 303.435 595.49 304.303C596.212 305.171 596.502 306.328 596.358 307.774C596.212 309.221 594.838 310.739 592.236 312.332C589.63 313.922 588.475 315.079 588.764 315.803C589.051 316.525 589.776 317.032 590.933 317.322C591.22 317.393 591.507 317.465 591.794 317.537H591.801L592.241 317.648L592.669 317.754C592.456 318.423 592.243 319.092 592.032 319.759L592.025 319.78L592.014 319.817L592.012 319.826L592.009 319.83L592.007 319.837C591.722 320.735 591.435 321.631 591.151 322.529C590.137 325.712 588.69 328.315 586.811 330.34C584.929 332.366 583.193 333.74 581.603 334.463C580.011 335.187 578.275 335.62 576.396 335.766C574.514 335.909 573.068 335.837 572.056 335.548C571.043 335.259 569.596 334.463 567.717 333.162C565.835 331.859 564.534 330.63 563.81 329.473C563.088 328.315 563.305 327.158 564.462 326.001C565.617 324.844 566.992 323.832 568.585 322.962C570.175 322.096 571.406 320.36 572.272 317.754C573.142 315.153 573.503 312.547 573.357 309.945C573.213 307.339 572.635 305.242 571.621 303.652C570.61 302.06 570.175 301.12 570.32 300.831C570.464 300.542 570.031 299.817 569.017 298.66C568.006 297.503 566.414 296.346 564.245 295.188C562.074 294.031 561.134 293.091 561.424 292.369C561.713 291.645 562.798 290.705 564.678 289.548C566.559 288.391 567.86 287.884 568.585 288.03ZM478.32 263.293C477.885 262.57 476.585 261.919 474.414 261.34C472.245 260.762 470.292 260.762 468.556 261.34C466.82 261.919 465.445 262.57 464.434 263.293C463.42 264.016 462.263 265.101 460.962 266.548C459.659 267.994 458.284 269.947 456.84 272.407C455.391 274.866 453.873 278.988 452.283 284.773C450.69 290.559 449.896 295.045 449.896 298.227C449.896 301.41 449.679 304.231 449.244 306.689C448.811 309.149 449.1 313.271 450.112 319.057C451.125 324.844 451.848 327.954 452.283 328.387C452.715 328.822 453.151 329.979 453.583 331.859C454.019 333.74 454.525 334.969 455.104 335.548C455.683 336.127 456.115 336.995 456.405 338.152C456.476 338.441 456.551 338.73 456.622 339.02C456.694 339.309 456.766 339.598 456.84 339.888L457.011 339.8C457.099 339.758 457.185 339.714 457.273 339.67C457.418 339.598 457.562 339.527 457.705 339.455C457.851 339.959 457.997 340.466 458.141 340.973C458.43 341.985 458.863 342.563 459.441 342.709C460.02 342.852 460.527 343.431 460.962 344.445C461.395 345.456 461.902 345.963 462.48 345.963H463.348V346.613V347.264H463.998C464.434 347.264 464.723 347.481 464.866 347.917C465.012 348.349 465.806 348.713 467.255 349C468.699 349.291 469.495 349.578 469.641 349.87C469.785 350.159 470.22 350.303 470.942 350.303H472.027V349.87V349.435H473.328C474.198 349.435 475.356 349.074 476.8 348.349C478.249 347.627 480.056 346.035 482.225 343.577C484.396 341.117 486.203 338.298 487.65 335.113C489.097 331.933 490.108 329.255 490.687 327.086C491.265 324.915 491.844 321.226 492.422 316.019C493.001 310.811 493.219 305.749 493.075 300.831C492.929 295.913 492.64 293.381 492.207 293.237C491.772 293.091 491.483 291.791 491.339 289.33C491.193 286.872 490.978 285.641 490.687 285.641H490.254V283.905C490.254 282.749 490.036 282.098 489.603 281.954C489.168 281.809 488.807 280.724 488.518 278.699C488.372 277.69 488.229 276.681 488.087 275.673L488.085 275.661L487.432 275.878L487.051 276.006L486.782 276.095L485.914 273.275C485.336 271.394 484.685 270.237 483.961 269.803C483.239 269.369 482.949 268.862 483.093 268.284C483.239 267.705 483.093 267.343 482.66 267.199C482.225 267.054 481.864 266.62 481.575 265.897C481.285 265.174 480.778 264.74 480.056 264.595C479.332 264.451 478.753 264.016 478.32 263.293ZM465.084 292.585C463.927 292.874 463.131 293.381 462.698 294.105C462.263 294.827 462.119 295.552 462.263 296.274C462.408 296.998 465.88 297.214 472.678 296.924C479.478 296.635 483.165 296.274 483.743 295.841C484.324 295.406 484.468 294.684 484.178 293.67C483.889 292.659 480.924 292.152 475.282 292.152C469.641 292.152 466.241 292.295 465.084 292.585ZM467.688 299.746C467.109 300.181 466.602 301.192 466.169 302.784C465.734 304.374 466.024 305.893 467.037 307.339C468.049 308.788 469.063 309.582 470.074 309.728C471.088 309.871 472.027 309.439 472.895 308.425C473.763 307.413 474.198 306.328 474.198 305.171C474.198 304.013 473.981 303.289 473.546 303C473.113 302.71 472.749 302.06 472.462 301.049C472.171 300.035 471.449 299.456 470.292 299.313C469.134 299.167 468.266 299.313 467.688 299.746ZM412.141 263.293C413.876 263.727 415.105 264.378 415.83 265.246C416.552 266.114 417.348 266.62 418.216 266.765C419.084 266.91 419.808 267.705 420.387 269.152C420.966 270.598 421.616 271.611 422.338 272.189C423.063 272.768 423.569 273.636 423.859 274.793C424.146 275.95 424.437 276.529 424.724 276.529H425.159V277.397V278.265H425.81C426.245 278.265 426.534 278.843 426.678 280.001C426.824 281.158 427.039 281.809 427.33 281.954C427.617 282.098 427.691 282.46 427.546 283.037C427.402 283.616 427.617 284.269 428.196 284.991C428.775 285.715 428.92 286.294 428.631 286.727C428.488 286.944 428.342 287.162 428.196 287.377L428.272 287.416C428.393 287.477 428.513 287.534 428.631 287.595C428.92 287.74 429.138 288.969 429.282 291.284C429.427 293.598 429.788 294.973 430.367 295.406C430.946 295.841 431.089 296.274 430.802 296.709C430.51 297.142 430.439 298.371 430.585 300.396C430.728 302.421 430.946 303.578 431.235 303.868C431.524 304.157 431.524 305.388 431.235 307.557C430.946 309.728 430.874 311.971 431.017 314.283C431.163 316.597 430.656 320.286 429.499 325.35C428.342 330.412 427.113 334.391 425.81 337.284C424.509 340.177 422.701 342.927 420.387 345.528C418.073 348.134 416.337 349.724 415.179 350.303C414.022 350.881 412.502 351.314 410.622 351.606C408.741 351.893 406.715 351.606 404.547 350.736C403.461 350.303 402.376 349.87 401.293 349.435C401.364 349.291 401.436 349.146 401.508 349C401.654 348.713 401.219 348.278 400.207 347.699C399.193 347.12 398.615 346.542 398.471 345.963C398.326 345.384 397.964 345.023 397.386 344.878C396.807 344.734 396.518 344.371 396.518 343.792V342.927H396.085C395.794 342.927 395.507 342.42 395.215 341.406C394.928 340.395 394.636 339.888 394.349 339.888C394.058 339.888 393.479 338.441 392.613 335.548C391.743 332.655 391.021 330.919 390.442 330.34C389.864 329.762 389.429 328.244 389.142 325.783C388.85 323.325 388.489 321.805 388.056 321.226C387.621 320.65 387.332 318.986 387.188 316.236C387.043 313.489 387.114 311.753 387.406 311.029C387.693 310.306 387.767 309.221 387.621 307.774C387.478 306.328 387.549 305.388 387.839 304.953C388.128 304.52 388.2 303.435 388.056 301.699C387.91 299.963 387.985 298.878 388.272 298.445C388.563 298.01 388.778 296.491 388.924 293.888C389.068 291.284 389.936 287.595 391.528 282.822C393.118 278.048 394.71 274.648 396.3 272.623C397.893 270.598 398.687 269.369 398.687 268.935C398.687 268.501 398.978 268.211 399.557 268.067C400.135 267.922 401.001 267.271 402.158 266.114C403.316 264.957 404.836 264.089 406.715 263.51C408.597 262.931 410.405 262.859 412.141 263.293ZM404.547 296.274C404.69 295.552 406.283 295.045 409.319 294.756C412.358 294.466 415.758 294.394 419.517 294.538C423.28 294.684 425.231 295.262 425.377 296.274C425.521 297.288 425.303 298.01 424.724 298.445C424.146 298.878 420.459 299.239 413.659 299.528C406.861 299.817 403.39 299.602 403.244 298.878C403.1 298.156 403.244 297.72 403.679 297.577C404.112 297.431 404.401 296.998 404.547 296.274ZM407.151 306.256C407.294 304.664 407.729 303.507 408.451 302.784C409.176 302.06 410.044 301.699 411.055 301.699C412.069 301.699 413.008 302.421 413.876 303.868C414.744 305.314 415.179 306.689 415.179 307.992C415.179 309.293 414.744 310.378 413.876 311.246C413.008 312.114 412.069 312.403 411.055 312.114C410.044 311.825 409.102 311.174 408.236 310.161C407.366 309.149 407.005 307.846 407.151 306.256ZM457.49 347.264C457.055 346.398 456.405 345.82 455.537 345.528C454.669 345.241 453.368 345.313 451.632 345.746C449.896 346.181 448.811 346.613 448.376 347.049L447.725 347.699L447.869 347.771C447.966 347.819 448.063 347.868 448.161 347.917C448.448 348.06 448.665 349.217 448.811 351.388C448.954 353.557 449.605 356.596 450.762 360.5C451.919 364.407 452.498 367.083 452.498 368.529C452.498 369.976 452.715 370.844 453.151 371.133C453.583 371.422 453.873 372.579 454.019 374.605L454.234 377.644C454.331 377.593 454.43 377.544 454.525 377.498L454.669 377.426C454.812 377.352 454.958 377.28 455.104 377.208C455.03 377.644 454.958 378.076 454.886 378.509C454.741 379.379 454.958 380.245 455.537 381.115C456.115 381.981 456.333 382.851 456.187 383.717C456.044 384.587 456.187 385.237 456.622 385.67C457.055 386.105 457.273 386.973 457.273 388.274C457.273 389.577 457.634 390.734 458.358 391.746C459.08 392.759 459.37 393.553 459.226 394.132C459.08 394.71 459.515 396.013 460.527 398.039C461.541 400.064 461.973 401.439 461.83 402.161C461.684 402.885 462.119 403.896 463.131 405.2C464.144 406.5 464.649 407.586 464.649 408.454C464.649 409.322 465.373 410.479 466.82 411.925C468.266 413.372 469.206 414.022 469.641 413.879C470.074 413.733 470.363 413.805 470.509 414.096C470.653 414.383 471.449 414.675 472.895 414.962C474.342 415.254 480.272 415.036 490.687 414.312C501.102 413.589 506.383 411.203 506.527 407.153C506.673 403.103 506.888 400.932 507.179 400.642C507.466 400.353 507.466 399.992 507.179 399.557C506.89 399.124 506.816 397.025 506.962 393.266C507.105 389.503 506.888 385.453 506.309 381.115C506.161 379.993 506.011 378.868 505.86 377.745V377.738C505.721 376.695 505.582 375.648 505.444 374.605C503.851 374.894 502.259 375.183 500.669 375.473C497.486 376.051 494.158 376.123 490.687 375.69C487.215 375.255 485.407 374.822 485.264 374.387L485.178 374.128C485.134 373.998 485.09 373.869 485.046 373.737C484.9 373.808 484.757 373.88 484.613 373.954C484.322 374.098 483.6 373.593 482.442 372.436C481.285 371.279 480.489 370.122 480.056 368.964C479.621 367.807 479.114 367.083 478.536 366.793C477.957 366.504 477.742 365.997 477.885 365.275C478.031 364.551 477.452 362.454 476.149 358.982C474.849 355.51 473.402 353.846 471.81 353.992C470.22 354.135 468.917 353.92 467.905 353.342C466.892 352.763 466.098 352.617 465.519 352.907C465.373 352.978 465.225 353.052 465.079 353.126L464.649 353.342V352.689C464.649 352.256 464.216 351.967 463.348 351.821C462.48 351.678 461.973 351.388 461.83 350.953C461.756 350.736 461.684 350.52 461.612 350.303L461.469 350.375C461.372 350.423 461.274 350.472 461.177 350.52L460.962 350.627L460.744 350.736C460.599 350.449 460.455 350.159 460.312 349.87C460.022 349.291 459.587 348.928 459.008 348.784C458.43 348.639 457.923 348.134 457.49 347.264ZM502.939 352.941L502.946 353.015C503.129 354.642 503.31 356.269 503.49 357.897C504.212 364.407 502.983 368.094 499.801 368.964C496.619 369.83 494.376 370.265 493.075 370.265C491.772 370.265 490.326 369.976 488.736 369.397C487.143 368.818 486.349 368.312 486.349 367.879C486.349 367.444 485.842 366.793 484.829 365.925C483.817 365.057 483.093 363.757 482.66 362.021C482.225 360.285 481.72 359.128 481.142 358.549C480.563 357.971 480.056 356.957 479.621 355.51C479.406 354.788 479.191 354.068 478.973 353.349L478.971 353.342H478.975C479.334 353.413 479.695 353.485 480.056 353.557C480.778 353.703 481.285 353.631 481.575 353.342C481.864 353.05 483.889 352.617 487.65 352.039C491.411 351.46 494.811 350.664 497.848 349.652C499.366 349.145 500.886 348.639 502.405 348.134C502.583 349.736 502.761 351.34 502.939 352.941ZM526.274 312.764C525.839 312.403 525.404 312.042 524.971 311.681C524.524 312.445 524.075 313.213 523.631 313.977L523.452 314.283C522.439 316.019 521.86 320.576 521.717 327.954C521.571 335.33 521.21 339.091 520.631 339.237C520.053 339.381 519.546 339.163 519.113 338.585C518.678 338.008 518.46 335.187 518.46 330.123C518.463 325.061 518.317 322.168 518.027 321.444C517.738 320.722 517.303 320.215 516.724 319.925C516.437 319.782 516.146 319.636 515.859 319.49C515.495 320.65 515.134 321.805 514.773 322.962C514.049 325.276 513.688 328.894 513.688 333.812C513.688 338.73 513.327 341.48 512.602 342.056C512.375 342.239 512.151 342.42 511.924 342.6C511.788 342.709 511.653 342.818 511.517 342.927C511.366 342.13 511.216 341.336 511.063 340.543C510.927 339.818 510.788 339.094 510.651 338.369C510.073 335.33 509.348 333.595 508.48 333.162C508.334 333.09 508.191 333.016 508.047 332.944C507.758 332.801 507.469 332.655 507.179 332.511L507.177 332.516C507.034 332.947 506.888 333.379 506.744 333.812C506.455 334.68 506.309 336.705 506.309 339.888V344.662C506.527 344.588 506.744 344.517 506.962 344.445C507.179 344.371 507.395 344.299 507.612 344.227C507.466 344.371 507.323 344.514 507.182 344.66L507.179 344.662C506.89 344.952 506.888 345.456 507.179 346.181C507.466 346.903 507.612 348.784 507.612 351.821V356.378C507.758 356.306 507.902 356.235 508.045 356.161C508.191 356.089 508.337 356.017 508.48 355.943C508.337 356.378 508.191 356.813 508.045 357.246C507.758 358.114 507.758 358.621 508.045 358.764C508.337 358.91 508.408 359.271 508.263 359.85C508.119 360.429 508.263 360.79 508.698 360.935C508.807 360.97 508.915 361.007 509.022 361.042C509.131 361.079 509.239 361.114 509.348 361.151C509.239 361.259 509.131 361.368 509.022 361.477C508.915 361.586 508.807 361.695 508.698 361.803C508.263 362.236 508.119 363.032 508.263 364.19C508.408 365.347 508.624 365.925 508.915 365.925H509.348C509.318 366.076 509.288 366.229 509.258 366.379C509.214 366.59 509.172 366.8 509.131 367.011C508.987 367.733 509.059 368.24 509.348 368.529C509.637 368.818 509.781 370.047 509.781 372.218C509.781 374.387 510.144 377.715 510.866 382.198C511.591 386.684 511.808 397.967 511.517 416.047C511.23 434.13 511.445 446.135 512.169 452.067C512.892 457.997 513.398 460.964 513.688 460.964C513.977 460.964 514.338 461.83 514.773 463.566C515.206 465.304 516.002 466.966 517.159 468.558C518.317 470.148 520.342 471.595 523.235 472.898C524.681 473.548 526.128 474.198 527.575 474.851V474.416V473.981C528.225 474.055 528.875 474.127 529.528 474.198C530.829 474.344 532.493 474.198 534.518 473.766C536.543 473.33 538.061 472.824 539.075 472.245C540.087 471.666 541.026 471.379 541.896 471.379C542.762 471.379 546.09 470.222 551.876 467.908C557.663 465.593 560.845 464.144 561.424 463.566C562.002 462.987 562.727 462.626 563.592 462.483C564.463 462.337 566.849 461.108 570.753 458.793C574.66 456.479 577.768 454.308 580.085 452.285C582.4 450.26 584.351 448.813 585.943 447.943C587.533 447.077 588.329 446.353 588.329 445.774C588.329 445.196 588.04 444.4 587.461 443.388C586.883 442.374 586.665 441.652 586.811 441.217C586.954 440.784 586.811 440.421 586.376 440.134C585.943 439.842 584.351 436.878 581.603 431.237C578.854 425.595 577.118 422.412 576.396 421.69C575.671 420.966 575.239 420.17 575.093 419.304C574.949 418.436 573.646 416.265 571.188 412.793C569.957 411.057 568.728 409.322 567.499 407.586C564.388 410.333 561.278 413.083 558.169 415.832C551.948 421.327 548.622 425.162 548.187 427.33C547.754 429.501 547.754 431.455 548.187 433.191C548.622 434.927 548.766 436.299 548.622 437.313C548.476 438.324 548.187 439.049 547.754 439.481C547.319 439.917 546.815 440.134 546.234 440.134H545.368V439.264C545.368 438.685 545.151 438.252 544.715 437.963C544.283 437.674 543.197 429.719 541.461 414.096C539.725 398.474 538.64 386.684 538.207 378.727C537.772 370.772 537.7 365.057 537.99 361.586C538.279 358.114 538.858 354.571 539.725 350.953C540.593 347.338 541.968 343.866 543.848 340.538C544.79 338.876 545.729 337.212 546.669 335.548L544.065 336.416C542.329 336.995 541.172 337.934 540.593 339.237C540.015 340.538 539.29 341.191 538.425 341.191H537.122C537.221 340.589 537.323 339.987 537.423 339.385C537.538 338.684 537.654 337.983 537.772 337.284C538.207 334.68 538.207 331.426 537.772 327.519C537.339 323.615 536.832 320.722 536.254 318.84C535.675 316.961 534.736 315.514 533.432 314.5C532.782 313.996 532.132 313.489 531.481 312.982V317.322C531.481 320.215 531.625 321.733 531.914 321.879C532.203 322.022 532.421 322.818 532.565 324.265C532.71 325.712 532.782 327.012 532.782 328.169V329.905C532.639 329.834 532.493 329.762 532.347 329.69C532.289 329.662 532.234 329.632 532.176 329.602C532.088 329.56 532.002 329.517 531.914 329.473V329.905C531.914 330.197 532.06 330.702 532.347 331.426C532.639 332.148 532.493 333.669 531.914 335.983C531.336 338.298 530.611 339.455 529.746 339.455H528.442V328.605C528.442 321.372 528.297 317.104 528.01 315.803C527.72 314.5 527.139 313.489 526.274 312.764Z" fill="black"></path> <path fill-rule="evenodd" clip-rule="evenodd" d="M618.491 252.445C617.769 252.589 617.119 253.024 616.54 253.747C616.251 254.108 615.962 254.47 615.67 254.832C615.855 254.887 616.04 254.943 616.225 254.998C616.765 255.16 617.304 255.321 617.841 255.482C619.287 255.917 624.349 256.567 633.028 257.435C641.708 258.303 649.521 259.605 656.465 261.341C663.408 263.077 669.338 265.247 674.256 267.851C679.174 270.454 682.502 272.697 684.238 274.577C685.974 276.458 687.418 278.338 688.576 280.219C689.733 282.099 690.675 284.413 691.397 287.162C691.76 288.535 692.121 289.91 692.482 291.284L686.84 290.199C683.081 289.477 680.26 289.114 678.378 289.114C676.499 289.114 674.184 289.477 671.435 290.199C668.687 290.923 666.734 291.863 665.577 293.02C664.419 294.178 663.623 295.624 663.19 297.36C662.755 299.096 662.394 299.964 662.105 299.964H661.672L661.887 301.917C662.033 303.218 662.684 304.593 663.841 306.039C664.998 307.486 666.445 308.715 668.18 309.728C669.916 310.74 672.52 311.39 675.992 311.682C679.464 311.971 681.56 311.897 682.285 311.464C683.007 311.029 683.803 310.886 684.671 311.029C685.539 311.175 686.335 311.103 687.057 310.812C687.782 310.525 688.214 310.161 688.36 309.728L688.576 309.076C688.793 309.15 689.011 309.222 689.228 309.293C689.661 309.439 690.603 308.861 692.047 307.557C693.496 306.257 694.436 305.025 694.869 303.868C695.304 302.711 695.665 302.132 695.954 302.132C696.243 302.132 697.546 303 699.861 304.736C702.175 306.472 704.126 308.282 705.719 310.161C707.309 312.043 708.973 314.718 710.709 318.19C712.445 321.662 713.313 324.048 713.313 325.351C713.313 326.652 713.53 327.666 713.963 328.388C714.398 329.112 714.542 330.485 714.398 332.512C714.252 334.537 714.398 336.488 714.831 338.37C715.266 340.249 715.192 341.552 714.613 342.274C714.035 342.999 713.891 343.721 714.181 344.445C714.47 345.168 714.47 345.603 714.181 345.746C713.891 345.892 713.748 346.76 713.748 348.35C713.748 349.942 713.53 351.1 713.095 351.822C712.662 352.546 712.516 353.268 712.662 353.993C712.806 354.715 712.445 356.018 711.577 357.897C710.709 359.779 710.202 361.586 710.058 363.322C709.913 365.058 709.623 366.215 709.19 366.794C708.755 367.373 708.827 368.169 709.406 369.18C709.984 370.194 710.709 370.627 711.577 370.483C712.012 370.409 712.445 370.337 712.877 370.266C712.806 369.905 712.734 369.544 712.662 369.18C712.516 368.458 713.023 367.011 714.181 364.841C715.338 362.672 716.062 360.501 716.349 358.332C716.641 356.161 717.074 354.571 717.652 353.558C718.231 352.546 718.664 350.81 718.955 348.35C719.242 345.892 719.606 344.156 720.038 343.142C720.474 342.131 720.545 338.659 720.256 332.727C719.967 326.798 719.606 323.541 719.171 322.963C718.738 322.386 718.592 321.879 718.738 321.444C718.881 321.011 718.738 320.648 718.303 320.361C717.87 320.069 717.724 319.565 717.87 318.84C718.013 318.118 717.942 317.683 717.652 317.54C717.363 317.394 717.145 316.815 717.002 315.804C716.856 314.79 716.567 314.212 716.134 314.068C715.699 313.922 715.409 313.344 715.266 312.332C715.12 311.318 714.759 310.596 714.181 310.161C713.602 309.728 713.023 308.789 712.445 307.34C711.866 305.893 710.348 303.942 707.887 301.482C705.43 299.024 703.187 297.214 701.162 296.057C699.136 294.9 698.051 292.659 697.907 289.331C697.762 286.005 697.111 282.895 695.954 280.001C694.797 277.108 693.568 274.794 692.265 273.058C690.964 271.322 688.576 269.08 685.104 266.332C681.632 263.583 678.378 261.558 675.341 260.256C672.303 258.954 670.351 258.303 669.481 258.303C668.616 258.303 667.745 258.014 666.88 257.435C666.01 256.857 665.359 256.712 664.926 257.001C664.491 257.291 663.695 257.146 662.538 256.567C661.383 255.989 659.066 255.482 655.594 255.049C652.123 254.615 650.315 254.253 650.172 253.964C650.026 253.674 644.892 253.313 634.764 252.879C624.641 252.445 619.216 252.3 618.491 252.445ZM687.925 298.228C686.624 297.649 684.092 297.214 680.331 296.925C676.57 296.636 673.677 296.781 671.652 297.36C669.627 297.939 668.47 298.735 668.18 299.746C667.891 300.76 668.109 301.628 668.831 302.35C669.555 303.074 670.856 303.796 672.738 304.521C674.617 305.243 676.642 305.461 678.813 305.171C680.982 304.882 682.789 304.447 684.238 303.868C685.683 303.29 686.986 302.496 688.143 301.482C689.3 300.471 689.879 299.818 689.879 299.529C689.879 299.239 689.228 298.806 687.925 298.228Z" fill="black"></path> <path fill-rule="evenodd" clip-rule="evenodd" d="M311.379 370.187C311.236 370.476 310.294 370.694 308.558 370.837C306.822 370.983 305.882 371.272 305.739 371.705C305.593 372.14 305.16 372.501 304.436 372.79C303.714 373.08 303.279 373.658 303.135 374.526C302.989 375.394 302.556 376.119 301.832 376.697C301.11 377.276 300.603 379.59 300.314 383.641C300.024 387.691 300.096 389.931 300.531 390.367C300.964 390.799 301.253 391.524 301.399 392.535L301.614 394.056H294.671H287.728V393.621C287.728 393.331 286.283 392.899 283.39 392.32C280.497 391.741 277.098 390.584 273.191 388.848C269.286 387.112 267.189 386.316 266.898 386.46C266.611 386.606 265.308 385.664 262.993 383.641C260.679 381.613 258.943 380.456 257.786 380.169H257.78C257.203 380.023 256.626 379.877 256.05 379.734V381.905C256.05 383.349 256.483 384.506 257.353 385.377C258.218 386.242 261.04 388.196 265.815 391.234C270.587 394.271 273.265 395.792 273.841 395.792C274.42 395.792 275.577 396.296 277.313 397.31C279.048 398.321 281.655 399.263 285.126 400.129C288.598 400.999 292.792 401.36 297.71 401.214C302.628 401.071 305.45 401.504 306.172 402.517C306.896 403.529 308.197 404.614 310.078 405.772C311.958 406.929 315.501 408.158 320.709 409.461C325.916 410.762 330.619 411.414 334.813 411.414C339.009 411.414 342.914 411.051 346.531 410.329C350.146 409.604 353.836 408.665 357.597 407.507C361.358 406.35 364.684 404.975 367.577 403.385C370.47 401.793 371.627 400.421 371.048 399.263C370.47 398.106 369.819 397.527 369.097 397.527C368.373 397.527 365.336 398.467 359.983 400.346C354.632 402.228 349.568 403.529 344.795 404.253C340.021 404.975 335.32 405.193 330.691 404.904C326.062 404.614 322.012 403.892 318.54 402.735C315.068 401.578 312.972 400.636 312.247 399.914C311.886 399.55 311.525 399.189 311.164 398.828L311.173 398.826C312.111 398.465 313.046 398.106 313.983 397.743C315.865 397.021 317.962 395.646 320.276 393.621C322.59 391.596 324.18 389.86 325.051 388.413C325.916 386.967 326.351 385.738 326.351 384.724C326.351 383.712 325.99 382.048 325.266 379.734C324.544 377.419 323.965 376.19 323.53 376.045C323.097 375.901 322.88 375.612 322.88 375.177C322.88 374.744 322.519 374.165 321.794 373.441C321.072 372.719 320.13 372.068 318.973 371.49C317.816 370.911 316.297 370.476 314.418 370.187C312.536 369.897 311.525 369.897 311.379 370.187ZM319.191 377.78C317.89 376.769 316.154 376.19 313.983 376.045C311.814 375.901 310.368 376.119 309.643 376.697C308.921 377.276 308.414 377.491 308.125 377.348C308.053 377.313 307.982 377.276 307.91 377.239C307.836 377.204 307.764 377.167 307.692 377.13C307.257 378.142 306.822 379.155 306.389 380.169C305.521 382.192 304.943 383.206 304.653 383.206H304.221V385.377C304.221 386.823 304.51 388.485 305.086 390.367C305.232 390.836 305.378 391.306 305.521 391.776C305.667 392.246 305.811 392.716 305.956 393.186C307.401 392.681 308.849 392.174 310.294 391.667C313.189 390.656 315.214 389.714 316.371 388.848C317.529 387.98 318.394 386.895 318.973 385.592C319.552 384.291 320.058 383.567 320.494 383.423C320.926 383.277 321.144 382.555 321.144 381.252C321.144 379.951 320.494 378.794 319.191 377.78Z" fill="black"></path> <path fill-rule="evenodd" clip-rule="evenodd" d="M223.503 284.48C221.188 284.913 218.367 285.855 215.04 287.299C211.713 288.748 210.05 289.613 210.05 289.905C210.05 290.194 209.254 290.771 207.663 291.641C206.072 292.506 204.481 293.664 202.889 295.112C201.298 296.557 200.213 297.931 199.635 299.235C199.056 300.535 198.333 301.477 197.465 302.056C196.597 302.634 195.15 304.514 193.125 307.696C191.1 310.879 188.279 313.121 184.663 314.422C181.047 315.725 177.792 317.315 174.899 319.197C172.006 321.076 169.836 323.173 168.389 325.488C166.943 327.802 166.147 330.116 166.003 332.431C165.858 334.745 166.364 336.773 167.521 338.509C168.679 340.245 169.691 341.545 170.559 342.413C171.427 343.281 172.078 343.716 172.512 343.716H173.163V344.367V345.017C173.38 344.873 173.597 344.728 173.814 344.582C174.031 344.438 174.248 344.295 174.465 344.149C174.506 344.274 174.547 344.394 174.588 344.517C174.619 344.612 174.65 344.707 174.682 344.799C174.826 345.235 175.188 345.452 175.767 345.452H176.635V345.885C176.635 346.174 177.141 346.535 178.154 346.97C179.166 347.403 179.817 347.549 180.106 347.403L180.54 347.188V347.621V348.054L181.191 347.838C181.625 347.692 182.204 347.91 182.927 348.489C183.65 349.067 184.374 349.285 185.097 349.139C185.82 348.996 187.411 349.211 189.87 349.789C192.33 350.368 193.848 350.514 194.427 350.225C195.006 349.935 196.38 350.007 198.55 350.442C200.72 350.875 206.795 351.092 216.776 351.092C226.757 351.092 232.109 350.947 232.833 350.66C233.556 350.368 237.1 350.225 243.465 350.225C249.83 350.225 262.632 349.646 281.871 348.489C301.111 347.331 312.176 346.392 315.069 345.667C317.962 344.945 320.494 343.642 322.663 341.763C324.834 339.881 326.135 338.435 326.57 337.423C327.003 336.409 327.074 335.616 326.787 335.037C326.496 334.458 326.57 334.023 327.003 333.734C327.438 333.445 327.366 331.637 326.787 328.309C326.209 324.983 325.413 322.669 324.399 321.365C323.387 320.065 322.663 319.414 322.23 319.414H321.58V318.544C321.58 317.966 320.349 316.665 317.891 314.64C315.43 312.614 311.959 310.807 307.476 309.215C302.99 307.624 298.144 306.611 292.936 306.178C287.729 305.743 282.956 305.021 278.616 304.007C274.276 302.996 271.962 302.271 271.672 301.838C271.383 301.403 270.443 300.899 268.851 300.32C267.261 299.741 266.393 299.235 266.247 298.799C266.104 298.367 265.453 298.006 264.296 297.714C263.139 297.427 262.486 297.064 262.343 296.631C262.197 296.196 261.764 295.978 261.04 295.978C260.318 295.978 259.882 295.763 259.739 295.328C259.593 294.895 258.943 294.388 257.786 293.809C256.628 293.231 255.76 292.58 255.182 291.856C254.603 291.134 252.506 289.905 248.889 288.169C245.273 286.433 242.38 285.276 240.21 284.697C238.04 284.119 235.292 283.827 231.965 283.827C228.638 283.827 225.817 284.045 223.503 284.48ZM239.559 291.856C236.955 291.134 234.279 290.771 231.531 290.771C228.783 290.771 226.034 291.134 223.286 291.856C220.537 292.58 217.716 293.738 214.823 295.328C211.93 296.92 209.254 298.945 206.795 301.403C204.336 303.863 201.732 307.118 198.984 311.168C196.235 315.218 193.848 317.75 191.823 318.762C189.798 319.775 188.062 320.426 186.616 320.715C185.169 321.004 182.927 322.016 179.889 323.752C176.852 325.488 174.609 327.802 173.163 330.695C171.716 333.588 171.5 335.616 172.512 336.773C173.525 337.93 174.393 338.509 175.116 338.509H176.201V339.159V339.809H176.206C176.493 339.738 176.781 339.666 177.069 339.592C177.647 339.448 178.443 339.809 179.455 340.677C180.468 341.545 181.336 341.906 182.059 341.763C182.783 341.617 183.723 341.763 184.88 342.196C186.037 342.631 188.569 343.064 192.474 343.499C196.38 343.931 203.468 344.149 213.739 344.149C224.009 344.149 229.216 344.003 229.361 343.716C229.506 343.425 240.716 342.92 262.993 342.196C285.271 341.474 298.361 340.967 302.268 340.677C306.173 340.388 309.429 339.953 312.03 339.374C314.636 338.796 316.516 338.145 317.673 337.423C318.83 336.699 319.77 335.687 320.494 334.384C321.217 333.084 321.506 331.637 321.362 330.045C321.217 328.455 320.638 327.152 319.626 326.14C318.613 325.126 317.962 324.115 317.673 323.101C317.384 322.09 316.877 321.511 316.155 321.365C315.43 321.222 314.852 320.787 314.419 320.065C313.984 319.34 312.901 318.472 311.165 317.461C309.429 316.447 307.04 315.579 304.004 314.857C300.965 314.133 296.408 313.482 290.335 312.904C284.257 312.325 280.859 311.818 280.135 311.385C279.413 310.95 277.82 310.518 275.362 310.082C272.901 309.65 271.455 309.215 271.022 308.782C270.587 308.347 269.286 307.768 267.115 307.046C264.947 306.321 263.643 305.671 263.211 305.092C262.776 304.514 262.269 304.225 261.69 304.225C261.114 304.225 260.533 304.007 259.954 303.574C259.378 303.139 259.16 302.778 259.304 302.489C259.36 302.382 259.414 302.273 259.468 302.165C259.486 302.128 259.504 302.093 259.521 302.056C259.428 302.03 259.334 302.003 259.241 301.977C258.828 301.857 258.417 301.739 258.003 301.621C256.989 301.331 256.411 300.97 256.267 300.535C256.121 300.102 255.543 299.741 254.531 299.45C253.518 299.163 252.867 298.728 252.578 298.149C252.289 297.57 250.699 296.557 247.804 295.112C244.911 293.666 242.163 292.58 239.559 291.856Z" fill="black"></path> <path fill-rule="evenodd" clip-rule="evenodd" d="M757.794 545.369C753.887 546.672 750.922 547.105 748.897 546.672C746.872 546.237 743.835 546.166 739.785 546.455C735.734 546.744 732.117 547.612 728.935 549.059C725.752 550.505 722.931 552.241 720.473 554.266C718.013 556.291 715.77 558.895 713.747 562.078C711.72 565.26 710.562 568.153 710.275 570.757C709.984 573.361 709.984 575.386 710.275 576.832C710.562 578.279 711.069 579.29 711.794 579.869C712.516 580.45 712.951 581.172 713.094 582.04C713.168 582.473 713.238 582.903 713.31 583.334L713.312 583.341C713.455 583.269 713.601 583.197 713.747 583.125C713.803 583.098 713.86 583.067 713.918 583.04C714.004 582.996 714.092 582.952 714.18 582.908C714.293 583.19 714.407 583.475 714.518 583.757C714.55 583.836 714.58 583.915 714.613 583.993C714.904 584.715 715.409 585.44 716.133 586.162C716.855 586.886 717.434 587.247 717.869 587.247H718.519V587.682V588.115H719.17H719.82V588.548C719.82 588.84 720.545 589.273 721.991 589.851C723.438 590.43 725.245 590.863 727.416 591.154C729.585 591.441 731.61 591.659 733.492 591.805C735.371 591.948 736.818 591.876 737.831 591.587C738.843 591.298 739.421 591.298 739.567 591.587C739.711 591.876 740.146 592.02 740.868 592.02C741.592 592.02 742.314 591.805 743.039 591.369C743.4 591.154 743.761 590.937 744.122 590.719V591.154C744.122 591.441 744.846 591.659 746.293 591.805C747.74 591.948 748.825 591.805 749.547 591.369C750.272 590.937 751.79 590.791 754.104 590.937C756.419 591.08 759.529 590.791 763.434 590.069C767.341 589.344 770.956 588.983 774.284 588.983C777.61 588.983 780.649 588.766 783.396 588.333C786.146 587.898 788.75 587.754 791.208 587.898C793.668 588.044 798.368 587.537 805.312 586.379C812.255 585.222 817.174 583.847 820.067 582.257C822.96 580.665 824.624 579.364 825.057 578.351C825.492 577.339 825.707 576.11 825.707 574.661C825.709 573.217 825.492 571.842 825.057 570.539C824.624 569.239 824.263 568.588 823.971 568.588C823.684 568.588 823.249 568.007 822.67 566.852C822.092 565.695 821.078 564.753 819.634 564.031C818.185 563.307 817.463 562.802 817.463 562.51C817.463 562.223 816.088 561.645 813.341 560.775C810.591 559.909 807.265 559.402 803.358 559.256C799.454 559.113 796.776 558.823 795.332 558.388C793.885 557.956 792.147 557.088 790.124 555.785C788.097 554.484 787.014 553.47 786.868 552.748C786.724 552.024 786.289 551.591 785.567 551.445C784.843 551.301 784.338 550.866 784.047 550.144C783.76 549.42 783.107 548.987 782.095 548.841C781.082 548.698 780.503 548.408 780.36 547.973C780.214 547.54 779.418 546.888 777.973 546.022C776.525 545.152 775.08 544.501 773.632 544.069C772.187 543.634 770.16 543.416 767.558 543.416C764.952 543.416 761.698 544.069 757.794 545.369ZM774.717 550.359C773.416 549.781 771.391 549.42 768.642 549.276C765.894 549.13 762.929 549.781 759.745 551.23C756.565 552.676 752.658 553.109 748.029 552.53C743.4 551.952 740.289 551.734 738.699 551.88C737.107 552.024 735.371 552.387 733.492 552.966C731.61 553.544 729.948 554.266 728.499 555.134C727.055 556.002 725.174 557.594 722.859 559.909C720.545 562.223 718.809 564.753 717.652 567.503C716.494 570.25 716.133 572.925 716.566 575.532C717.001 578.133 717.723 579.869 718.737 580.739C719.748 581.605 720.69 582.04 721.556 582.04C722.426 582.04 723.148 582.329 723.727 582.908C724.306 583.486 724.812 583.632 725.245 583.341C725.68 583.054 726.548 583.125 727.849 583.558C729.152 583.993 732.334 584.426 737.396 584.861C742.46 585.294 745.208 585.366 745.643 585.076C746.075 584.789 746.872 584.715 748.029 584.861C749.186 585.005 749.908 584.933 750.2 584.644C750.487 584.354 750.994 584.283 751.718 584.426C752.44 584.572 752.875 584.498 753.019 584.211C753.165 583.921 753.743 583.847 754.755 583.993C755.768 584.137 757.287 583.993 759.312 583.558C761.337 583.125 767.919 582.69 779.057 582.257C790.196 581.822 798.804 581.1 804.877 580.086C810.955 579.075 814.787 578.133 816.377 577.267C817.97 576.397 819.127 575.532 819.849 574.661C820.573 573.796 820.717 572.854 820.284 571.842C819.849 570.829 819.199 570.106 818.331 569.671C817.463 569.239 816.956 568.803 816.812 568.371C816.775 568.262 816.741 568.153 816.704 568.044C816.667 567.935 816.63 567.827 816.595 567.718C816.377 567.792 816.162 567.864 815.945 567.935C815.509 568.081 813.919 567.646 811.17 566.635C808.423 565.621 805.384 565.116 802.058 565.116C798.73 565.116 796.272 564.899 794.679 564.464C793.089 564.031 791.136 563.017 788.821 561.427C786.507 559.835 784.41 558.099 782.528 556.22C780.649 554.338 779.492 553.398 779.057 553.398H778.406V552.748V552.095H777.538H776.67V551.662C776.67 551.373 776.02 550.938 774.717 550.359Z" fill="black"></path> <path d="M297.12 456.624C297.259 453.014 297.745 450.653 298.578 449.542C299.412 448.431 300.592 448.015 302.122 448.292C303.649 448.57 304.969 449.195 306.08 450.167C307.191 451.139 308.649 451.764 310.454 452.042C312.259 452.322 313.234 452.597 313.373 452.877C313.511 453.153 314.761 453.292 317.122 453.292C319.483 453.292 322.816 452.6 327.123 451.209C331.428 449.818 335.108 449.262 338.165 449.542C341.22 449.818 343.164 450.373 343.998 451.209C344.831 452.042 345.594 452.458 346.289 452.458C346.983 452.458 347.472 452.736 347.749 453.292C348.027 453.847 348.583 454.333 349.416 454.75C350.249 455.169 350.666 455.655 350.666 456.21C350.666 456.766 350.943 457.18 351.499 457.458C352.054 457.738 352.679 458.638 353.373 460.168C354.068 461.695 354.554 463.084 354.832 464.334C355.109 465.584 355.873 466.695 357.123 467.669C358.373 468.639 359.555 469.125 360.666 469.125C361.777 469.125 362.402 468.988 362.541 468.708C362.68 468.433 363.305 468.225 364.416 468.083C365.527 467.947 366.985 467.391 368.792 466.417C370.595 465.445 372.681 464.612 375.041 463.917C377.402 463.223 379.624 462.876 381.707 462.876C383.792 462.876 385.112 463.151 385.667 463.709C386.223 464.267 386.57 465.237 386.709 466.625C386.848 468.014 386.778 469.058 386.498 469.75C386.223 470.446 384.001 473.501 379.832 478.917C375.666 484.336 373.583 487.738 373.583 489.126C373.583 490.515 373.792 491.559 374.208 492.251C374.625 492.948 376.014 494.267 378.374 496.211C380.737 498.153 381.915 499.405 381.915 499.96C381.915 500.516 382.334 501.141 383.165 501.835C384.001 502.53 384.348 503.085 384.207 503.504C384.07 503.918 384.207 504.337 384.626 504.751C385.04 505.17 385.181 505.726 385.04 506.418C384.903 507.114 385.04 508.017 385.459 509.128C385.875 510.239 385.875 511.975 385.459 514.338C385.04 516.696 383.374 519.962 380.46 524.128C377.541 528.296 375.736 531.282 375.041 533.087C374.347 534.893 373.931 537.045 373.792 539.547C373.653 542.044 373.861 544.269 374.417 546.215C374.972 548.157 374.972 549.684 374.417 550.795C373.861 551.909 372.403 552.464 370.04 552.464C367.679 552.464 365.457 552.045 363.374 551.214C361.291 550.379 359.555 549.27 358.164 547.881C356.776 546.49 355.595 545.588 354.623 545.171C353.651 544.755 352.957 544.06 352.54 543.088C352.124 542.116 351.776 541.63 351.499 541.63C351.221 541.63 351.013 541.075 350.874 539.961C350.735 538.85 350.318 537.809 349.624 536.837C348.93 535.865 348.374 534.268 347.958 532.044C347.539 529.822 347.402 527.602 347.539 525.378C347.68 523.156 347.958 521.628 348.374 520.795C348.791 519.962 348.93 519.059 348.791 518.085C348.652 517.115 348.652 516.282 348.791 515.585C348.93 514.893 349.138 514.546 349.416 514.546H349.832L349.416 511.836C349.138 510.031 348.791 508.781 348.374 508.087C348.166 507.739 347.958 507.392 347.749 507.043L345.456 508.503C343.928 509.475 341.359 512.183 337.748 516.629C334.136 521.073 332.261 523.573 332.122 524.128C331.983 524.684 331.15 525.586 329.622 526.838C328.095 528.086 326.567 528.711 325.04 528.711C323.512 528.711 322.052 528.016 320.663 526.628C319.274 525.239 318.094 523.364 317.122 521.004C316.15 518.64 314.692 516.56 312.748 514.752C310.801 512.947 309.135 511.003 307.746 508.92C306.357 506.837 305.663 505.17 305.663 503.918C305.663 502.671 306.427 501.28 307.954 499.752C309.482 498.225 313.511 496.35 320.038 494.128C326.567 491.904 330.456 490.17 331.705 488.918C332.33 488.293 332.955 487.668 333.58 487.043L332.539 486.002C331.844 485.308 331.358 485.03 331.081 485.169C330.803 485.308 330.178 485.03 329.206 484.335C328.234 483.639 327.539 483.433 327.123 483.708C326.706 483.986 326.081 483.849 325.248 483.294C324.415 482.739 323.512 482.528 322.538 482.669C321.566 482.806 320.385 482.739 318.997 482.461C317.608 482.183 316.844 481.905 316.705 481.628C316.566 481.35 315.942 481.211 314.831 481.211C313.72 481.211 312.956 480.933 312.537 480.375C312.123 479.82 311.773 479.614 311.496 479.751C311.218 479.892 310.523 479.681 309.412 479.126C308.302 478.57 307.538 477.945 307.121 477.251C306.705 476.557 306.288 476.212 305.871 476.212H305.246V475.376C305.246 474.818 304.76 474.404 303.788 474.126C302.816 473.849 301.428 471.766 299.622 467.877C297.815 463.989 296.981 460.237 297.12 456.624Z" fill="black"></path> <path d="M292.211 576.267C290.67 576.829 289.272 577.736 288.013 578.996C286.754 580.257 285.914 580.884 285.495 580.884C285.076 580.884 284.726 581.164 284.446 581.724C284.166 582.284 283.676 582.706 282.977 582.983C282.278 583.263 279.199 586.48 273.744 592.637C268.286 598.793 263.25 605.017 258.634 611.315C254.017 617.608 250.869 621.667 249.19 623.484C247.511 625.306 246.392 626.842 245.833 628.102C245.273 629.361 244.503 630.411 243.524 631.249C242.545 632.089 240.936 634.189 238.698 637.547C236.459 640.905 235.13 642.653 234.71 642.791C234.291 642.933 232.682 645.03 229.884 649.089C227.085 653.144 225.057 655.803 223.798 657.062C222.539 658.322 221.909 659.162 221.909 659.581C221.909 659.999 220.86 661.4 218.761 663.777C216.663 666.156 215.614 667.556 215.614 667.973C215.614 668.394 215.404 668.674 214.984 668.813C214.564 668.954 211.556 673.15 205.96 681.404C200.364 689.659 197.216 694.068 196.517 694.626C195.817 695.186 193.509 695.816 189.592 696.515C185.674 697.214 181.827 698.473 178.05 700.292C174.272 702.111 170.705 704.21 167.347 706.587C163.989 708.967 160.561 712.045 157.064 715.82C153.566 719.599 151.188 722.958 149.929 725.895C148.67 728.832 147.761 730.581 147.201 731.142C146.641 731.699 146.362 732.609 146.362 733.87C146.362 735.127 146.152 736.317 145.732 737.435C145.312 738.555 145.172 740.585 145.312 743.522C145.452 746.461 145.802 748.139 146.362 748.558C146.921 748.979 147.131 749.748 146.991 750.865C146.851 751.988 146.921 752.617 147.201 752.754C147.481 752.895 147.761 753.664 148.04 755.066C148.32 756.462 148.81 757.513 149.509 758.212C150.209 758.911 150.559 759.542 150.559 760.102C150.559 760.66 151.398 761.919 153.077 763.877C154.756 765.838 155.595 767.094 155.595 767.655C155.595 768.215 156.155 768.983 157.274 769.964C158.393 770.943 159.373 771.571 160.212 771.853C161.051 772.131 161.541 772.552 161.681 773.112C161.821 773.672 162.311 773.95 163.15 773.95C163.989 773.95 164.619 774.299 165.038 775.001C165.458 775.7 166.298 776.26 167.557 776.679C168.816 777.098 171.264 777.658 174.902 778.359C178.539 779.058 186.234 779.336 197.986 779.197C209.738 779.058 216.033 778.847 216.873 778.57C217.712 778.287 223.168 778.079 233.241 777.938C243.314 777.799 249.12 777.588 250.659 777.308C252.198 777.028 267.378 776.817 296.197 776.679C325.019 776.54 340.197 776.607 341.736 776.889C343.275 777.167 344.463 777.167 345.305 776.889C346.143 776.607 348.103 776.54 351.179 776.679C354.257 776.817 358.176 776.679 362.93 776.26C367.688 775.841 370.695 775.771 371.956 776.049C373.213 776.332 374.122 776.332 374.683 776.049C375.245 775.771 377.062 775.561 380.14 775.42C383.218 775.281 388.324 775.211 395.46 775.211C402.593 775.211 407.071 774.929 408.89 774.369C410.707 773.811 411.969 773.181 412.665 772.483C413.367 771.781 413.716 771.223 413.716 770.805C413.716 770.383 413.927 770.103 414.346 769.964C414.767 769.823 415.186 768.356 415.605 765.558C416.024 762.759 416.165 760.799 416.024 759.681C415.885 758.561 415.463 757.582 414.767 756.744C414.066 755.902 413.786 755.274 413.927 754.856C414.066 754.434 413.647 753.735 412.665 752.754C411.689 751.777 410.918 750.727 410.358 749.609C409.8 748.488 407.28 745.97 402.803 742.054C398.327 738.136 395.249 735.828 393.571 735.127C391.891 734.428 390.773 733.801 390.213 733.241C389.653 732.681 388.882 732.329 387.905 732.19C386.924 732.049 386.294 731.769 386.017 731.352C385.736 730.931 384.616 730.512 382.658 730.091C380.7 729.672 378.599 729.322 376.361 729.04C374.123 728.765 370.975 728.693 366.92 728.832C362.86 728.971 359.571 728.832 357.056 728.413C354.535 727.994 352.297 727.154 350.341 725.895C348.381 724.636 345.513 721.976 341.736 717.921C337.959 713.862 335.79 711.765 335.233 711.624C334.672 711.485 333.691 710.645 332.293 709.106C330.893 707.569 329.986 706.798 329.564 706.798C329.354 706.798 329.146 706.798 328.935 706.798C329.775 705.608 330.613 704.419 331.453 703.229C333.131 700.852 334.531 698.545 335.649 696.307C336.769 694.068 337.26 692.807 337.119 692.527C337.049 692.388 336.98 692.247 336.911 692.106C337.119 692.106 337.329 692.106 337.54 692.106C337.959 692.106 338.378 691.62 338.797 690.638C339.218 689.659 339.637 689.099 340.058 688.96C340.477 688.822 341.526 687.211 343.206 684.132C344.884 681.056 346.282 678.957 347.402 677.839C348.522 676.719 349.36 675.46 349.92 674.06C350.48 672.662 351.737 670.702 353.7 668.183C355.655 665.665 356.914 663.777 357.475 662.518C358.035 661.259 358.664 660.349 359.365 659.791C360.062 659.231 360.974 657.761 362.094 655.382C363.212 653.005 364.05 651.607 364.61 651.186C365.168 650.767 365.45 650.346 365.45 649.927C365.45 649.716 365.45 649.506 365.45 649.297C365.589 649.297 365.728 649.297 365.869 649.297C366.149 649.297 366.36 648.948 366.499 648.249C366.64 647.548 367.617 645.87 369.438 643.213C371.255 640.553 372.236 638.873 372.375 638.176C372.516 637.475 372.933 636.846 373.634 636.285C374.333 635.728 374.754 635.026 374.893 634.189C375.034 633.348 375.384 632.649 375.942 632.089C376.502 631.529 377.411 629.921 378.67 627.264C379.93 624.604 380.7 623.274 380.978 623.274C381.258 623.274 381.469 622.924 381.607 622.227C381.749 621.526 382.029 621.107 382.448 620.966C382.869 620.827 383.427 620.198 384.126 619.08C384.827 617.96 385.387 616.7 385.806 615.3C386.225 613.902 386.084 613.062 385.387 612.782C384.686 612.502 384.336 612.153 384.336 611.734C384.336 611.523 384.336 611.315 384.336 611.104C383.846 611.245 383.357 611.384 382.869 611.523C381.888 611.805 380.279 613.553 378.041 616.77C375.8 619.989 373.704 622.577 371.746 624.535C369.788 626.493 368.667 627.963 368.387 628.942C368.107 629.921 367.758 630.481 367.339 630.622C366.92 630.759 366.429 630.342 365.869 629.361C365.309 628.382 364.682 627.752 363.981 627.474C363.282 627.194 362.791 626.773 362.511 626.213C362.231 625.653 361.812 625.375 361.252 625.375C360.974 625.375 360.692 625.375 360.414 625.375C360.414 625.164 360.414 624.954 360.414 624.746C360.414 624.324 360.203 623.905 359.782 623.484C359.365 623.065 359.014 622.924 358.736 623.065C358.454 623.204 358.035 622.785 357.475 621.806C356.914 620.827 355.447 619.499 353.068 617.818C350.691 616.14 348.592 614.252 346.772 612.153C344.953 610.053 343.833 609.007 343.417 609.007C342.995 609.007 342.435 608.655 341.736 607.956C341.035 607.255 340.688 606.697 340.688 606.278C340.688 606.068 340.688 605.857 340.688 605.649C340.408 605.649 340.128 605.649 339.848 605.649C339.287 605.649 338.658 605.158 337.959 604.179C337.26 603.2 336.209 602.36 334.811 601.659C333.411 600.962 332.363 600.122 331.664 599.141C330.962 598.164 330.125 597.463 329.146 597.044C328.164 596.622 327.468 596.136 327.046 595.576C326.627 595.016 326.206 594.734 325.787 594.734C325.366 594.734 325.086 594.456 324.949 593.896C324.808 593.338 324.459 593.056 323.899 593.056C323.619 593.056 323.339 593.056 323.058 593.056C323.058 592.848 323.058 592.637 323.058 592.426C323.058 592.218 323.058 592.007 323.058 591.797C322.848 591.797 322.637 591.797 322.429 591.797C322.01 591.797 321.661 591.517 321.38 590.957C321.1 590.399 320.471 590.049 319.492 589.908C318.513 589.769 317.393 589.068 316.134 587.811C314.875 586.55 313.685 585.643 312.565 585.083C311.447 584.522 310.887 584.032 310.887 583.613C310.887 583.192 310.118 582.706 308.579 582.146C307.04 581.585 306.133 581.025 305.85 580.465C305.573 579.907 305.082 579.556 304.381 579.417C303.684 579.276 303.052 578.857 302.492 578.155C301.934 577.459 300.465 576.827 298.088 576.267C295.708 575.707 293.748 575.707 292.211 576.267ZM299.555 585.92C301.233 585.92 302.703 586.2 303.962 586.761C305.221 587.321 307.109 588.86 309.628 591.376C312.146 593.896 313.967 595.366 315.085 595.785C316.205 596.206 317.043 596.903 317.601 597.884C318.161 598.863 318.652 599.351 319.073 599.351C319.492 599.351 319.77 599.562 319.911 599.981C320.05 600.402 320.751 600.962 322.01 601.659C323.269 602.36 324.878 603.76 326.838 605.857C328.796 607.956 330.125 609.077 330.823 609.216C331.522 609.357 332.504 610.125 333.761 611.523C335.022 612.923 336.209 613.902 337.329 614.462C338.447 615.02 339.287 615.721 339.848 616.559C340.408 617.402 341.035 617.888 341.736 618.029C342.435 618.168 343.416 618.939 344.673 620.336C345.935 621.737 347.053 622.646 348.032 623.065C349.011 623.484 349.571 623.905 349.71 624.324C349.851 624.746 350.2 625.026 350.76 625.164C351.32 625.306 352.438 626.213 354.119 627.893C355.797 629.571 357.824 631.249 360.203 632.93C362.58 634.608 362.86 637.126 361.043 640.484C359.224 643.842 356.706 647.689 353.489 652.024C350.27 656.363 348.242 659.372 347.402 661.05C346.562 662.728 345.935 663.638 345.513 663.777C345.094 663.918 343.625 665.945 341.104 669.864C338.589 673.78 336.7 676.437 335.441 677.839C334.182 679.235 333.2 680.707 332.504 682.244C331.803 683.783 329.706 687.141 326.206 692.316C322.709 697.494 320.682 700.223 320.121 700.5C319.564 700.783 318.233 700.431 316.134 699.454C314.037 698.473 311.796 697.774 309.417 697.353C307.04 696.936 304.591 696.867 302.073 697.142C299.555 697.424 296.336 698.262 292.42 699.663C288.501 701.06 283.187 703.581 276.472 707.217C269.757 710.855 265.559 712.952 263.88 713.512C262.201 714.072 260.173 714.422 257.794 714.563C255.416 714.702 252.898 714.422 250.24 713.723C247.581 713.022 243.734 710.994 238.698 707.636C233.661 704.28 230.863 702.669 230.303 702.81C230.023 702.88 229.744 702.949 229.464 703.021C229.464 702.81 229.464 702.6 229.464 702.389C229.464 701.972 228.415 701.271 226.316 700.292C224.218 699.313 221.769 698.334 218.971 697.353C216.173 696.376 213.375 695.746 210.577 695.464C209.178 695.325 207.779 695.186 206.38 695.045C207.009 694.277 207.639 693.508 208.269 692.738C209.528 691.199 210.437 689.729 210.997 688.331C211.556 686.931 212.326 685.813 213.305 684.973C214.284 684.132 215.614 682.385 217.292 679.726C218.971 677.069 220.16 675.46 220.86 674.9C221.559 674.34 221.909 673.78 221.909 673.22C221.909 672.942 221.909 672.662 221.909 672.382C222.119 672.382 222.329 672.382 222.539 672.382C222.958 672.382 223.308 671.961 223.588 671.123C223.868 670.283 224.357 669.653 225.057 669.234C225.756 668.813 226.596 667.695 227.575 665.876C228.554 664.057 229.604 662.657 230.723 661.68C231.842 660.698 232.752 659.511 233.451 658.111C234.151 656.713 234.78 655.873 235.34 655.593C235.899 655.313 236.179 654.963 236.179 654.544C236.179 654.125 236.529 653.704 237.228 653.285C237.928 652.864 238.278 652.376 238.278 651.816C238.278 651.255 239.117 650.135 240.796 648.457C242.475 646.777 243.804 645.03 244.783 643.213C245.763 641.391 246.812 639.993 247.931 639.014C249.05 638.035 249.61 637.336 249.61 636.915C249.61 636.496 250.24 635.658 251.498 634.397C252.758 633.14 253.877 631.599 254.856 629.782C255.836 627.963 257.095 626.282 258.634 624.746C260.173 623.204 261.012 622.086 261.152 621.387C261.292 620.686 261.992 619.779 263.25 618.659C264.51 617.538 265.139 616.77 265.139 616.351C265.139 615.93 265.559 615.37 266.398 614.673C267.238 613.972 267.797 613.273 268.077 612.571C268.358 611.875 268.707 611.454 269.126 611.315C269.547 611.174 269.965 610.613 270.386 609.634C270.805 608.655 273.603 605.438 278.78 599.981C283.956 594.526 286.895 591.727 287.594 591.586C288.293 591.447 288.642 591.167 288.642 590.748C288.642 590.329 290.043 589.42 292.841 588.02C295.639 586.619 297.877 585.92 299.555 585.92ZM205.541 702.6C211.137 702.88 214.145 703.229 214.564 703.65C214.984 704.069 216.103 704.49 217.922 704.909C219.741 705.328 221.979 706.168 224.637 707.428C227.296 708.687 230.723 710.783 234.92 713.723C239.117 716.66 243.314 718.829 247.511 720.229C251.709 721.627 254.996 722.326 257.374 722.326C259.753 722.326 262.201 721.976 264.719 721.277C267.238 720.578 270.594 719.178 274.794 717.081C278.989 714.982 281.157 713.723 281.299 713.302C281.437 712.885 281.859 712.674 282.558 712.674C283.257 712.674 283.676 712.464 283.817 712.045C283.956 711.624 284.307 711.415 284.867 711.415C285.425 711.415 286.754 710.784 288.853 709.527C290.95 708.265 293.121 707.217 295.359 706.379C297.597 705.537 300.395 705.048 303.754 704.909C307.109 704.771 309.489 704.84 310.887 705.118C312.285 705.398 314.803 706.448 318.443 708.265C322.082 710.087 324.318 711.485 325.158 712.464C325.996 713.443 326.838 714.072 327.676 714.352C328.516 714.632 331.104 717.151 335.441 721.907C339.778 726.663 343.067 729.882 345.305 731.56C347.543 733.241 350.411 734.497 353.908 735.338C357.405 736.178 361.884 736.527 367.339 736.388C372.794 736.247 377.272 736.599 380.767 737.435C384.267 738.277 386.433 739.045 387.276 739.744C388.113 740.443 388.882 740.865 389.583 741.004C390.282 741.145 391.68 742.121 393.782 743.943C395.878 745.76 397.207 746.741 397.767 746.88C398.327 747.021 399.864 748.35 402.384 750.865C404.9 753.386 406.303 755.066 406.581 755.902C406.863 756.744 407.349 757.513 408.05 758.212C408.749 758.911 409.17 760.311 409.309 762.41C409.451 764.507 409.451 765.768 409.309 766.185C409.17 766.606 408.4 767.025 407.002 767.446C405.602 767.865 401.056 768.076 393.36 768.076C385.667 768.076 376.291 768.425 365.24 769.124C354.188 769.823 348.522 770.034 348.242 769.754C347.962 769.474 344.604 769.474 338.17 769.754C331.733 770.034 326.347 770.034 322.01 769.754C317.673 769.474 312.706 769.543 307.109 769.964C301.513 770.383 287.383 770.453 264.719 770.175C242.055 769.893 230.094 769.964 228.834 770.383C227.575 770.805 221.909 771.223 211.836 771.642C201.763 772.061 194.208 772.272 189.172 772.272C184.135 772.272 179.868 771.992 176.371 771.432C172.873 770.874 169.795 769.964 167.137 768.703C164.479 767.446 162.87 766.326 162.311 765.347C161.751 764.368 160.632 763.178 158.953 761.78C157.274 760.38 156.295 759.191 156.015 758.212C155.735 757.233 155.385 756.672 154.965 756.534C154.546 756.392 153.916 754.994 153.077 752.337C152.237 749.678 151.818 746.88 151.818 743.943C151.818 741.003 151.958 738.976 152.237 737.856C152.517 736.738 152.867 736.039 153.287 735.757C153.706 735.479 153.847 735.058 153.706 734.498C153.566 733.94 154.616 731.838 156.854 728.205C159.093 724.564 161.611 721.347 164.409 718.549C167.207 715.75 168.956 714.283 169.655 714.142C170.355 714.003 170.984 713.582 171.544 712.885C172.104 712.184 172.803 711.765 173.643 711.624C174.482 711.485 174.972 711.205 175.111 710.784C175.252 710.365 176.161 709.807 177.84 709.106C179.519 708.407 180.498 707.846 180.778 707.428C181.057 707.009 181.477 706.798 182.037 706.798C182.596 706.798 183.016 706.587 183.296 706.168C183.576 705.747 185.954 704.979 190.431 703.859C194.908 702.738 199.944 702.319 205.541 702.6Z" fill="black"></path> <path d="M218.016 527.669C219.935 526.378 221.899 525.054 224.648 524.061C233.053 521.784 239.587 523.054 243.592 527.257C244.385 528.088 244.954 528.961 245.488 529.78C246.425 531.217 247.255 532.49 248.996 533.09C251.711 534.022 254.054 534.425 256.315 534.814C259.471 535.358 262.468 535.874 266.093 537.763C276.742 543.31 274.338 552.559 263.225 552.462C257.754 552.416 252.285 552.425 246.816 552.436C238.028 552.453 229.241 552.471 220.454 552.244C219.407 552.219 218.086 552.247 216.617 552.279C211.548 552.388 204.718 552.534 201.352 550.582C192.871 545.662 195.965 535.481 204.474 532.282C205.93 531.736 207.513 531.488 209.09 531.243C211.133 530.926 213.166 530.611 214.899 529.643C215.998 529.03 217.001 528.354 218.016 527.669Z" fill="url(#paint2_radial_35_608)"></path> <defs> <filter id="filter0_f_35_608" x="342.453" y="384.019" width="505.15" height="674.055" filterUnits="userSpaceOnUse" color-interpolation-filters="sRGB"> <feFlood flood-opacity="0" result="BackgroundImageFix"></feFlood> <feBlend mode="normal" in="SourceGraphic" in2="BackgroundImageFix" result="shape"></feBlend> <feGaussianBlur stdDeviation="18" result="effect1_foregroundBlur_35_608"></feGaussianBlur> </filter> <filter id="filter1_f_35_608" x="83.5205" y="-24.1833" width="447.958" height="486.303" filterUnits="userSpaceOnUse" color-interpolation-filters="sRGB"> <feFlood flood-opacity="0" result="BackgroundImageFix"></feFlood> <feBlend mode="normal" in="SourceGraphic" in2="BackgroundImageFix" result="shape"></feBlend> <feGaussianBlur stdDeviation="18" result="effect1_foregroundBlur_35_608"></feGaussianBlur> </filter> <filter id="filter2_f_35_608" x="320.47" y="98.7855" width="520.521" height="522.149" filterUnits="userSpaceOnUse" color-interpolation-filters="sRGB"> <feFlood flood-opacity="0" result="BackgroundImageFix"></feFlood> <feBlend mode="normal" in="SourceGraphic" in2="BackgroundImageFix" result="shape"></feBlend> <feGaussianBlur stdDeviation="10.5" result="effect1_foregroundBlur_35_608"></feGaussianBlur> </filter> <filter id="filter3_f_35_608" x="356.36" y="292.305" width="521.603" height="413.543" filterUnits="userSpaceOnUse" color-interpolation-filters="sRGB"> <feFlood flood-opacity="0" result="BackgroundImageFix"></feFlood> <feBlend mode="normal" in="SourceGraphic" in2="BackgroundImageFix" result="shape"></feBlend> <feGaussianBlur stdDeviation="15.5" result="effect1_foregroundBlur_35_608"></feGaussianBlur> </filter> <filter id="filter4_f_35_608" x="344.818" y="297.059" width="352.84" height="596.234" filterUnits="userSpaceOnUse" color-interpolation-filters="sRGB"> <feFlood flood-opacity="0" result="BackgroundImageFix"></feFlood> <feBlend mode="normal" in="SourceGraphic" in2="BackgroundImageFix" result="shape"></feBlend> <feGaussianBlur stdDeviation="15" result="effect1_foregroundBlur_35_608"></feGaussianBlur> </filter> <radialGradient id="paint0_radial_35_608" cx="0" cy="0" r="1" gradientUnits="userSpaceOnUse" gradientTransform="translate(254.775 451.85) rotate(-27.5871) scale(522.271 562.859)"> <stop stop-color="#615DE6"></stop> <stop offset="0.323513" stop-color="#84A3E9"></stop> <stop offset="0.504489" stop-color="#B0CFE8"></stop> <stop offset="0.82687" stop-color="#D0F8CF"></stop> <stop offset="1" stop-color="#BFF2B4"></stop> </radialGradient> <radialGradient id="paint1_radial_35_608" cx="0" cy="0" r="1" gradientUnits="userSpaceOnUse" gradientTransform="translate(617.161 499.077) rotate(68.8005) scale(70.3156 143.568)"> <stop stop-color="#C9F6C6"></stop> <stop offset="1" stop-color="#B8F5D6"></stop> </radialGradient> <radialGradient id="paint2_radial_35_608" cx="0" cy="0" r="1" gradientUnits="userSpaceOnUse" gradientTransform="translate(108.44 578.31) rotate(-9.89194) scale(236.367 254.735)"> <stop stop-color="#615DE6"></stop> <stop offset="0.323513" stop-color="#84A3E9"></stop> <stop offset="0.504489" stop-color="#B0CFE8"></stop> <stop offset="0.82687" stop-color="#D0F8CF"></stop> <stop offset="1" stop-color="#BFF2B4"></stop> </radialGradient> </defs> </svg> 