<?xml version="1.0" encoding="UTF-8"?> <svg xmlns="http://www.w3.org/2000/svg" width="960" height="960" viewBox="0 0 960 960" fill="none"> <path d="M551.861 220.831C549.294 221.859 546.81 223.571 544.414 225.968C542.016 228.366 539.791 231.448 537.735 235.215C536.706 237.098 535.682 238.982 534.65 240.866C533.711 240.181 532.769 239.496 531.827 238.811C529.945 237.441 528.66 236.841 527.974 237.013C527.631 237.098 527.29 237.184 526.947 237.27C526.947 237.098 526.947 236.927 526.947 236.756C526.947 236.413 524.723 236.156 520.268 235.986C515.819 235.814 512.307 236.242 509.739 237.27C507.169 238.297 504.944 239.838 503.06 241.893C501.176 243.948 500.149 245.746 499.978 247.287C499.806 248.828 500.065 250.455 500.751 252.167C501.089 253.025 501.434 253.88 501.775 254.734C501.519 254.734 501.263 254.734 501.004 254.734C500.751 254.734 500.234 255.419 500.234 255.764C500.234 256.451 499.978 256.876 499.466 257.047C498.949 257.219 498.521 260.813 498.181 267.835C497.838 274.854 497.495 278.367 497.151 278.367C496.98 278.367 496.639 279.05 496.639 279.393C496.639 280.077 496.98 280.763 497.663 281.446C498.35 282.132 499.55 282.388 501.263 282.22C502.975 282.048 503.918 282.304 504.087 282.99C504.258 283.674 505.372 285.043 507.427 287.099C509.48 289.155 511.879 290.867 514.618 292.237C517.358 293.606 520.524 294.205 524.124 294.034C527.718 293.862 530.542 293.094 532.597 291.72C534.65 290.35 536.453 288.727 537.991 286.84C539.535 284.959 540.904 281.62 542.1 276.826C543.301 272.031 543.813 267.494 543.644 263.212C543.47 258.931 542.871 255.419 541.847 252.679C540.815 249.941 540.904 248.229 542.1 247.544C543.301 246.859 544.499 246.516 545.697 246.516C546.895 246.516 548.18 247.116 549.55 248.314C550.919 249.513 552.46 250.284 554.176 250.626C555.888 250.969 557.511 250.712 559.055 249.855C560.593 248.999 562.05 248.657 563.42 248.828C564.789 248.999 566.932 251.653 569.84 256.788C572.753 261.929 575.063 264.924 576.778 265.782C578.49 266.637 581.058 266.977 584.481 266.808C587.906 266.637 590.305 267.236 591.674 268.605C593.044 269.975 594.242 271.688 595.271 273.743C596.295 275.796 597.839 277.253 599.892 278.111C601.948 278.966 604.003 278.707 606.056 277.338C608.112 275.968 609.825 274.342 611.194 272.458C612.564 270.577 613.593 269.548 614.277 269.376C614.963 269.204 615.646 268.436 616.332 267.064C617.016 265.692 619.071 263.468 622.497 260.385C625.922 257.303 627.632 255.507 627.632 254.992C627.632 254.479 629.089 252.852 631.999 250.112C634.91 247.373 636.623 245.403 637.137 244.205C637.649 243.006 638.423 242.064 639.447 241.379C640.478 240.694 640.816 239.496 640.478 237.783C640.135 236.071 639.106 234.701 637.393 233.674C635.683 232.646 631.659 232.133 625.32 232.133C618.987 232.133 615.047 231.704 613.506 230.849C611.965 229.992 611.11 229.222 610.938 228.537C610.767 227.852 610.252 227.338 609.397 226.996C608.54 226.653 607.769 225.968 607.086 224.941C606.4 223.913 604.774 222.886 602.206 221.859C599.636 220.831 596.469 220.489 592.701 220.831C588.935 221.173 586.795 221.602 586.28 222.115C585.766 222.629 584.998 222.886 583.966 222.886C582.942 222.886 581.657 223.228 580.116 223.913C578.575 224.598 577.205 224.855 576.005 224.684C574.809 224.513 573.864 224.684 573.181 225.198C572.838 225.455 572.495 225.711 572.154 225.968C571.983 225.711 571.811 225.455 571.637 225.198C571.299 224.684 570.782 224.427 570.099 224.427C569.756 224.427 569.413 224.427 569.072 224.427C569.072 224.256 569.072 224.084 569.072 223.913C569.072 223.742 569.072 223.571 569.072 223.4C568.729 223.4 568.386 223.4 568.043 223.4C567.359 223.4 566.673 223.057 565.99 222.372C565.304 221.687 564.789 221.43 564.449 221.602C564.277 221.687 564.103 221.773 563.934 221.859C563.934 221.687 563.934 221.516 563.934 221.345C563.934 221.002 562.565 220.574 559.825 220.06C557.084 219.547 554.429 219.804 551.861 220.831ZM424.463 237.783C420.183 239.153 417.187 240.694 415.472 242.407C413.762 244.119 412.047 246.26 410.337 248.828C408.622 251.397 407.252 254.479 406.228 258.074C405.199 261.67 404.858 266.209 405.199 271.688C405.542 277.169 406.141 281.019 406.999 283.246C407.854 285.471 409.479 287.956 411.878 290.696C414.274 293.435 416.929 295.235 419.839 296.087C422.753 296.945 425.149 297.372 427.031 297.372C428.917 297.372 430.886 296.945 432.942 296.087C434.995 295.235 437.478 293.522 440.389 290.952C443.299 288.384 444.753 286.756 444.753 286.072C444.753 285.729 444.753 285.386 444.753 285.043C445.783 285.043 446.809 285.043 447.836 285.043C449.891 285.043 451.089 284.787 451.435 284.275C451.773 283.758 451.688 279.992 451.176 272.973C450.662 265.951 450.15 262.013 449.633 261.156C449.121 260.301 448.865 259.359 448.865 258.332C448.865 257.303 449.292 256.02 450.15 254.479C451.005 252.937 451.261 250.883 450.918 248.314C450.577 245.746 449.633 243.777 448.094 242.407C446.551 241.037 445.698 240.009 445.524 239.324C445.355 238.64 444.84 238.297 443.985 238.297C443.128 238.297 442.186 237.955 441.159 237.27C440.13 236.585 438.161 236.156 435.251 235.986C432.34 235.814 428.743 236.413 424.463 237.783ZM511.536 256.018C515.988 256.535 519.242 257.646 521.297 259.359C523.353 261.071 524.892 261.842 525.921 261.67C526.947 261.499 527.802 260.9 528.486 259.873C529.172 258.844 530.114 258.417 531.315 258.588C532.513 258.76 533.455 259.19 534.138 259.873C534.824 260.559 535.168 261.414 535.168 262.441C535.168 263.468 534.909 264.154 534.397 264.497C533.882 264.84 533.455 265.608 533.112 266.808C532.769 268.006 533.37 269.204 534.909 270.403C536.453 271.603 537.395 272.801 537.735 273.999C538.076 275.197 537.907 277.082 537.221 279.649C536.537 282.22 535.252 284.275 533.37 285.814C531.484 287.357 529.771 288.468 528.232 289.155C526.689 289.838 523.865 289.923 519.756 289.411C515.645 288.896 512.647 287.526 510.766 285.302C508.881 283.075 508.026 281.62 508.195 280.934C508.369 280.248 508.881 279.823 509.739 279.649C510.594 279.48 511.024 278.794 511.024 277.594C511.024 276.997 511.024 276.398 511.024 275.796C510.082 275.968 509.14 276.14 508.195 276.314C506.314 276.654 505.287 276.997 505.113 277.338C504.944 277.683 504.258 277.683 503.06 277.338C501.862 276.997 501.519 273.828 502.031 267.835C502.548 261.842 502.888 258.417 503.06 257.562C503.231 256.704 503.575 256.108 504.087 255.764C504.601 255.419 507.084 255.507 511.536 256.018ZM443.985 258.844C445.181 259.19 446.039 262.868 446.553 269.891C447.068 276.91 446.809 280.507 445.783 280.676C444.753 280.85 443.642 280.591 442.442 279.908C441.244 279.222 440.133 278.879 439.106 278.879C438.589 278.879 438.077 278.879 437.562 278.879C437.562 279.393 437.562 279.908 437.562 280.422C437.562 281.446 438.161 282.22 439.359 282.732C440.56 283.246 441.159 283.674 441.159 284.017C441.159 284.36 440.13 285.729 438.074 288.125C436.021 290.524 433.026 291.978 429.086 292.493C425.149 293.005 421.808 292.493 419.069 290.952C416.33 289.411 414.533 288.212 413.675 287.357C412.82 286.5 412.134 285.386 411.619 284.017C411.107 282.647 410.936 280.85 411.107 278.623C411.276 276.398 412.134 274.685 413.675 273.485C415.216 272.287 415.902 271.173 415.731 270.149C415.559 269.117 415.132 268.347 414.448 267.835C413.762 267.32 413.416 266.55 413.416 265.523C413.416 264.497 414.274 263.468 415.987 262.441C417.699 261.414 418.984 261.499 419.839 262.7C420.697 263.895 421.637 264.581 422.666 264.753C423.692 264.924 425.408 264.069 427.801 262.182C430.2 260.301 432.942 259.359 436.021 259.359C439.106 259.359 440.903 259.19 441.415 258.844C441.93 258.504 442.785 258.504 443.985 258.844ZM515.389 265.265C514.877 266.122 515.133 266.893 516.157 267.579C517.189 268.262 517.959 268.262 518.471 267.579C518.986 266.893 519.242 266.122 519.242 265.265C519.242 264.84 519.242 264.412 519.242 263.985C518.727 263.985 518.213 263.985 517.701 263.985C516.674 263.985 515.904 264.412 515.389 265.265ZM430.371 266.808C429.685 266.977 429.342 267.494 429.342 268.347C429.342 269.204 429.601 269.975 430.113 270.661C430.627 271.345 431.398 271.345 432.424 270.661C433.454 269.975 433.966 269.376 433.966 268.864C433.966 268.347 433.538 267.835 432.683 267.32C431.825 266.808 431.055 266.637 430.371 266.808ZM525.406 278.623C524.723 280.164 523.781 281.106 522.58 281.446C521.382 281.792 520.614 282.478 520.268 283.502C520.097 284.017 519.928 284.531 519.756 285.043C520.524 285.043 521.297 285.043 522.068 285.043C523.607 285.043 525.063 284.531 526.433 283.502C527.802 282.478 528.744 281.193 529.259 279.649C529.518 278.879 529.771 278.111 530.03 277.338C529.431 277.169 528.829 276.997 528.232 276.826C527.032 276.483 526.092 277.082 525.406 278.623ZM568.558 286.072C566.504 286.756 564.533 287.869 562.649 289.411C560.767 290.952 558.712 294.205 556.485 299.169C554.26 304.138 552.46 306.534 551.091 306.363C549.724 306.191 549.035 305.935 549.035 305.592C549.035 305.249 547.837 304.993 545.441 304.822C543.042 304.65 539.361 305.165 534.397 306.363C529.431 307.561 524.807 309.274 520.524 311.498C516.247 313.725 512.821 316.124 510.251 318.692C507.683 321.262 505.287 324.257 503.06 327.683C500.835 331.108 499.806 333.074 499.978 333.591C500.149 334.103 499.893 334.533 499.207 334.871C498.864 335.045 498.521 335.217 498.181 335.388C498.265 335.557 498.35 335.729 498.437 335.903C498.608 336.243 498.181 337.7 497.151 340.268C496.125 342.838 495.354 344.292 494.84 344.635C494.328 344.975 493.9 346.432 493.555 349.002C493.214 351.567 492.784 353.027 492.272 353.364C491.758 353.71 491.499 354.481 491.499 355.679C491.504 356.877 491.246 357.906 490.731 358.761C490.219 359.619 489.533 359.875 488.675 359.529C487.82 359.191 486.963 358.505 486.108 357.476C485.25 356.449 484.738 355.336 484.567 354.138C484.395 352.937 483.197 350.541 480.972 346.947C478.745 343.35 477.373 341.553 476.861 341.553C476.346 341.553 475.919 341.21 475.576 340.523C475.235 339.84 474.634 339.497 473.779 339.497C472.921 339.497 472.153 339.069 471.467 338.212C470.781 337.357 469.327 336.673 467.1 336.156C464.875 335.644 462.563 335.473 460.165 335.644C457.768 335.816 456.314 335.729 455.797 335.388C455.285 335.045 455.114 334.618 455.285 334.103C455.457 333.591 454.428 331.62 452.203 328.195C449.976 324.772 447.58 321.774 445.012 319.206C442.442 316.636 440.903 315.354 440.389 315.354C439.874 315.354 438.848 314.755 437.306 313.554C435.765 312.356 434.649 311.757 433.966 311.757C433.28 311.757 432.767 311.498 432.424 310.986C432.084 310.472 428.83 309.361 422.666 307.648C416.501 305.935 412.221 305.165 409.822 305.334C407.426 305.508 406.228 305.764 406.228 306.104C406.228 306.45 405.199 306.877 403.143 307.389C401.087 307.904 399.892 308.416 399.549 308.933C399.206 309.445 398.435 309.873 397.237 310.213C396.039 310.559 395.44 310.899 395.44 311.245C395.44 311.414 395.44 311.588 395.44 311.757C395.269 311.672 395.097 311.585 394.923 311.498C394.585 311.329 393.728 311.926 392.358 313.3C390.986 314.67 390.044 315.354 389.532 315.354C389.276 315.354 389.017 315.354 388.759 315.354C388.759 314.923 388.759 314.496 388.759 314.068C388.759 313.211 388.075 311.071 386.705 307.648C385.336 304.223 383.626 301.568 381.57 299.686C379.514 297.8 378.316 296.087 377.973 294.548C377.63 293.005 376.947 291.809 375.918 290.952C374.891 290.097 372.751 289.582 369.497 289.411C366.243 289.239 364.446 289.326 364.101 289.667C363.763 290.012 362.99 290.181 361.792 290.181C360.591 290.181 358.709 291.036 356.139 292.751C353.574 294.461 351.603 296.261 350.233 298.143C349.547 299.085 348.864 300.027 348.177 300.972C347.235 300.285 346.293 299.599 345.354 298.916C343.47 297.546 341.498 296.86 339.443 296.86C337.39 296.86 335.508 297.116 333.795 297.631C332.083 298.143 330.542 298.829 329.169 299.686C327.8 300.541 327.114 301.225 327.114 301.739C327.114 301.995 327.114 302.252 327.114 302.51C326.945 302.426 326.776 302.341 326.602 302.252C326.261 302.083 325.575 302.679 324.549 304.049C323.52 305.423 322.752 306.79 322.234 308.16C321.722 309.532 321.551 311.498 321.722 314.068C321.894 316.636 322.234 318.18 322.752 318.692C323.264 319.206 323.52 319.89 323.52 320.745C323.52 321.603 323.778 322.115 324.29 322.289C324.805 322.458 325.575 323.4 326.602 325.112C327.631 326.825 329.428 328.195 331.998 329.224C334.563 330.25 336.704 330.762 338.419 330.762C340.129 330.762 341.672 330.422 343.042 329.738C344.412 329.052 346.124 330.593 348.177 334.359C350.233 338.127 352.629 340.698 355.371 342.067C358.11 343.437 360.591 344.12 362.821 344.12C363.932 344.12 365.045 344.12 366.156 344.12C366.072 344.461 365.987 344.806 365.903 345.147C365.729 345.83 364.958 347.374 363.589 349.77C362.219 352.169 360.678 355.766 358.968 360.561C358.11 362.954 357.253 365.355 356.398 367.749C355.456 366.039 354.513 364.324 353.574 362.614C351.687 359.191 350.064 356.79 348.692 355.42C347.322 354.051 346.209 353.28 345.354 353.111C344.496 352.937 343.984 352.596 343.81 352.084C343.641 351.567 342.097 350.712 339.189 349.514C336.276 348.316 333.109 347.546 329.684 347.2C326.261 346.862 322.92 347.116 319.669 347.973C316.413 348.828 313.331 350.029 310.423 351.567C307.509 353.111 304.427 355.507 301.176 358.761C297.92 362.015 295.523 365.181 293.982 368.264C292.441 371.346 291.243 373.317 290.385 374.172C289.53 375.03 287.562 379.392 284.48 387.272C281.397 395.146 278.914 403.11 277.03 411.159C275.148 419.208 273.863 426.826 273.177 434.017C272.494 441.211 271.808 446.177 271.121 448.916C270.438 451.656 270.179 453.796 270.353 455.337C270.522 456.878 270.353 458.419 269.836 459.96C269.324 461.501 268.984 464.927 268.81 470.236C268.641 475.543 268.382 478.282 268.039 478.454C267.699 478.625 267.44 479.393 267.271 480.763C267.097 482.135 267.013 484.79 267.013 488.73C267.013 492.664 266.754 495.662 266.242 497.718C265.728 499.773 265.129 506.022 264.445 516.47C263.761 526.912 262.904 535.388 261.875 541.896C260.848 548.403 260.421 552.596 260.592 554.483C260.679 555.425 260.764 556.365 260.848 557.307C260.679 557.222 260.505 557.135 260.336 557.051C260.165 556.964 259.991 556.879 259.822 556.792C259.991 557.734 260.165 558.676 260.336 559.618C260.679 561.503 260.764 562.957 260.592 563.986C260.421 565.012 260.078 565.783 259.563 566.298C259.051 566.812 258.793 567.923 258.793 569.636C258.793 571.348 258.193 573.23 256.995 575.286C255.797 577.341 254.941 578.283 254.427 578.112C253.914 577.94 253.314 578.455 252.629 579.653C251.944 580.854 249.889 583.078 246.465 586.332C243.04 589.583 240.643 592.238 239.273 594.294C237.903 596.349 236.961 598.318 236.448 600.202C235.934 602.086 235.42 603.284 234.906 603.799C234.393 604.311 234.05 605.681 233.879 607.908C233.708 610.132 233.365 611.761 232.852 612.787C232.338 613.814 232.252 614.584 232.595 615.099C232.937 615.611 232.937 616.043 232.595 616.381C232.252 616.727 232.166 617.239 232.338 617.925C232.509 618.609 231.995 620.749 230.797 624.346C229.598 627.94 227.8 630.853 225.403 633.078C223.005 635.305 219.153 637.53 213.845 639.757C208.536 641.981 204.94 643.868 203.057 645.407C201.173 646.95 199.718 648.489 198.69 650.033C197.663 651.571 196.635 653.542 195.608 655.939C194.581 658.335 193.81 661.934 193.296 666.729C192.783 671.521 192.269 674.691 191.755 676.229C191.242 677.773 190.471 679.311 189.444 680.855C188.416 682.394 187.646 683.167 187.132 683.167C186.618 683.167 185.591 683.937 184.05 685.476C182.508 687.019 181.31 687.872 180.454 688.046C179.598 688.215 178.485 689.073 177.115 690.614C175.745 692.155 174.204 694.553 172.491 697.805C170.779 701.058 169.58 703.8 168.895 706.025C168.21 708.252 167.611 712.274 167.097 718.098C166.584 723.917 166.412 727.258 166.584 728.115C166.755 728.97 167.097 729.569 167.611 729.912C168.125 730.255 168.81 730.255 169.666 729.912C170.522 729.569 171.55 729.743 172.748 730.427C173.947 731.113 174.889 731.282 175.574 730.939C176.259 730.596 176.772 730.596 177.115 730.939C177.457 731.282 177.971 731.282 178.656 730.939C179.341 730.596 180.197 730.596 181.224 730.939C182.252 731.282 190.814 731.366 206.91 731.197C214.958 731.113 223.005 731.023 231.054 730.939C229.427 740.357 227.8 749.775 226.173 759.194C222.92 778.027 221.293 788.559 221.293 790.786C221.293 793.011 219.233 800.284 220.431 805.596C221.63 810.903 234.65 810.307 254.17 810.818C273.689 811.336 284.395 811.077 286.277 810.05C288.161 809.021 289.016 807.736 288.847 806.198C288.673 804.654 287.818 803.543 286.277 802.857C284.736 802.173 283.279 801.147 281.909 799.775C280.54 798.405 279.516 797.721 278.83 797.721C278.484 797.721 278.144 797.721 277.8 797.721C277.8 797.55 277.8 797.378 277.8 797.207C277.8 797.035 277.8 796.867 277.8 796.692C277.544 796.692 277.286 796.692 277.03 796.692C276.518 796.692 275.489 796.093 273.948 794.895C272.407 793.697 270.522 792.668 268.298 791.813C266.071 790.955 264.529 790.016 263.674 788.987C262.819 787.963 261.79 787.277 260.592 786.931C259.394 786.593 258.109 785.82 256.739 784.622C255.369 783.421 256.14 779.228 259.051 772.034C261.962 764.843 263.587 760.392 263.93 758.679C264.273 756.966 264.785 755.597 265.472 754.57C266.155 753.544 266.585 752 266.754 749.944C266.928 747.891 267.271 746.609 267.783 746.094C268.298 745.579 269.153 743.012 270.353 738.388C271.549 733.765 277.201 731.113 287.303 730.427C297.408 729.743 304.084 729.398 307.34 729.398C310.592 729.398 312.391 729.485 312.732 729.654C313.077 729.828 313.331 730.683 313.505 732.224C313.674 733.765 314.188 734.963 315.043 735.818C315.901 736.676 317.099 737.103 318.64 737.103C320.181 737.103 321.123 738.473 321.466 741.215C321.807 743.954 322.15 745.408 322.493 745.579C322.836 745.751 323.005 747.72 323.005 751.488C323.005 755.254 323.435 760.049 324.29 765.87C325.148 771.694 325.918 775.887 326.602 778.458C327.288 781.025 327.8 785.221 328.145 791.042C328.488 796.867 329.085 801.231 329.943 804.142C330.798 807.053 340.986 808.765 360.506 809.28C380.029 809.792 390.73 809.536 392.614 808.509C394.496 807.48 395.353 806.198 395.182 804.654C395.013 803.115 394.411 802.173 393.384 801.83C392.358 801.487 391.244 800.719 390.044 799.519C388.848 798.321 387.563 797.463 386.193 796.951C384.821 796.436 384.138 796.009 384.138 795.666C384.138 795.497 384.138 795.323 384.138 795.151C383.879 795.151 383.626 795.151 383.367 795.151C382.853 795.151 381.826 794.555 380.285 793.354C378.744 792.156 376.86 791.13 374.632 790.272C372.408 789.417 370.867 788.475 370.012 787.446C369.154 786.419 367.872 785.477 366.156 784.622C364.446 783.764 363.847 779.397 364.359 771.523C364.605 767.739 364.871 762.002 365.696 760.328C365.969 759.769 373.524 759.708 377.973 759.708C386.534 759.708 391.672 759.022 393.384 757.652C395.097 756.283 396.039 755.254 396.208 754.57C396.382 753.884 395.955 752.773 394.923 751.229C393.899 749.691 392.358 748.49 390.302 747.635C388.247 746.778 387.22 746.181 387.22 745.835C387.22 745.495 385.423 744.381 381.826 742.497C378.229 740.613 374.807 738.816 373.606 738.132C372.408 737.446 371.893 736.932 372.065 736.591C372.236 736.246 373.949 735.908 377.203 735.562C380.456 735.222 382.594 734.536 383.626 733.506C384.652 732.482 384.995 728.543 384.65 721.692C384.309 714.844 384.394 709.965 384.908 707.051C385.423 704.141 385.507 702.088 385.164 700.887C384.821 699.689 384.821 698.491 385.164 697.293C385.507 696.092 385.592 694.295 385.423 691.899C385.249 689.5 385.336 687.962 385.679 687.275C386.019 686.592 386.106 684.365 385.935 680.596C385.766 676.828 385.85 674.775 386.193 674.432C386.534 674.089 386.792 655.595 386.961 618.952C387.135 582.308 387.389 562.701 387.735 560.133C388.075 557.565 388.162 554.399 387.991 550.628C387.819 546.865 388.075 544.55 388.759 543.693C389.447 542.838 390.387 542.408 391.587 542.408C392.783 542.408 393.812 542.925 394.67 543.951C395.525 544.978 395.696 557.908 395.182 582.735C394.67 607.565 394.068 625.375 393.384 636.16C392.698 646.95 392.358 658.509 392.358 670.838C392.358 683.167 392.099 693.01 391.587 700.375C391.073 707.738 390.986 712.873 391.329 715.786C391.672 718.694 391.756 722.035 391.587 725.803C391.413 729.569 391.93 731.796 393.126 732.482C394.327 733.166 396.208 733.678 398.778 734.021C401.346 734.364 402.631 736.932 402.631 741.727C402.631 746.522 402.803 749.517 403.143 750.717C403.489 751.915 403.829 752.514 404.172 752.514C404.513 752.514 404.943 753.285 405.455 754.826C405.969 756.367 407.083 757.568 408.796 758.423C410.508 759.281 411.363 759.88 411.363 760.22C411.366 760.392 411.363 760.563 411.363 760.735C414.876 760.735 418.385 760.735 421.895 760.735C428.917 760.735 432.683 760.904 433.195 761.249C433.71 761.59 434.649 761.761 436.021 761.761C436.705 761.761 437.391 761.761 438.074 761.761C438.074 761.59 438.074 761.418 438.074 761.249C438.074 761.078 438.074 760.904 438.074 760.735C438.333 760.904 438.589 761.078 438.848 761.249C439.359 761.59 439.874 761.59 440.389 761.249C440.903 760.904 445.355 760.735 453.744 760.735C462.136 760.735 467.1 760.65 468.643 760.476C470.182 760.307 471.726 759.534 473.264 758.164C474.808 756.795 475.576 755.771 475.576 755.085C475.576 754.399 475.061 753.37 474.037 752C473.008 750.63 472.238 749.944 471.726 749.944C471.208 749.944 470.696 749.606 470.182 748.92C469.67 748.234 468.984 747.804 468.126 747.635C467.274 747.464 465.387 746.35 462.479 744.297C459.566 742.241 457.853 741.299 457.341 741.471C456.826 741.64 456.399 741.386 456.056 740.7C455.884 740.357 455.713 740.017 455.544 739.671C455.372 739.758 455.198 739.842 455.029 739.93C454.686 740.101 454.259 739.843 453.744 739.159C453.232 738.473 451.947 737.615 449.891 736.591C448.865 736.077 447.836 735.562 446.809 735.05C449.208 734.707 451.604 734.364 454 734.021C458.795 733.338 461.621 732.395 462.479 731.197C463.334 729.997 463.848 728.799 464.017 727.601C464.191 726.402 464.703 713.73 465.561 689.585C466.416 665.444 466.588 648.832 466.073 639.757C465.561 630.682 465.387 621.092 465.561 610.99C465.73 600.886 465.646 594.98 465.303 593.267C464.96 591.554 464.788 587.53 464.788 581.194C464.788 574.858 464.96 570.836 465.303 569.121C465.646 567.411 465.817 563.814 465.817 558.336C465.817 552.855 465.989 549.942 466.329 549.604C466.672 549.261 466.844 545.833 466.844 539.328C466.846 532.823 467.015 529.311 467.358 528.799C467.701 528.282 468.126 518.95 468.643 500.8C469.155 482.65 469.242 463.555 468.897 443.523C468.556 423.488 468.812 412.785 469.67 411.415C470.525 410.045 471.636 408.934 473.008 408.077C474.378 407.222 475.407 407.048 476.093 407.562C476.776 408.077 477.288 409.446 477.631 411.674C477.975 413.898 477.716 416.724 476.861 420.15C476.003 423.575 475.747 428.024 476.093 433.503C476.431 438.984 477.117 442.406 478.146 443.779C479.173 445.148 479.687 446.433 479.687 447.631C479.687 448.829 480.798 450.458 483.025 452.511C485.25 454.566 486.279 458.506 486.108 464.325C485.936 470.149 486.192 481.536 486.878 498.488C487.564 515.441 487.736 531.448 487.39 546.519C487.05 561.59 487.05 569.636 487.39 570.665C487.736 571.691 487.992 585.221 488.163 611.249C488.332 637.276 488.591 652.001 488.934 655.424C489.274 658.849 489.533 660.992 489.702 661.844C489.876 662.702 490.219 663.13 490.731 663.13C491.246 663.13 491.673 663.473 492.016 664.159C492.357 664.842 496.504 664.653 504.896 664.827C508.462 664.898 514.222 663.921 516.27 665.851C519.042 668.462 517.701 675.364 517.701 681.367C517.701 691.812 518.044 701.146 518.727 709.363C519.413 717.583 519.669 722.721 519.498 724.774C519.329 726.83 519.07 728.028 518.727 728.371C518.387 728.712 516.843 729.485 514.104 730.683C511.365 731.881 509.309 733.166 507.939 734.536C506.57 735.908 502.031 738.732 494.328 743.012C486.62 747.292 482.342 749.944 481.484 750.976C480.629 752 480.115 753.029 479.943 754.056C479.772 755.085 480.455 756.283 481.999 757.652C483.537 759.022 489.274 759.793 499.207 759.964C509.14 760.133 514.191 760.392 514.36 760.735C514.449 760.904 514.534 761.078 514.618 761.249C514.961 761.078 515.304 760.904 515.645 760.735C515.988 760.563 516.331 760.392 516.674 760.22C516.759 760.392 516.843 760.563 516.93 760.735C517.102 761.078 518.128 761.078 520.012 760.735C521.894 760.392 526.348 760.22 533.37 760.22C540.387 760.22 544.755 759.708 546.467 758.679C548.18 757.652 549.634 755.597 550.835 752.514C552.033 749.432 552.547 745.579 552.376 740.956C552.204 736.333 552.46 732.736 553.144 730.168C553.832 727.601 554.429 723.917 554.943 719.122C555.458 714.33 556.4 709.194 557.77 703.713C559.139 698.235 559.738 694.981 559.567 693.952C559.398 692.925 559.567 691.725 560.081 690.355C560.593 688.986 561.195 685.734 561.879 680.596C562.565 675.458 563.333 671.608 564.19 669.038C565.045 666.47 565.99 665.185 567.016 665.185C568.043 665.185 569.072 678.113 570.099 703.969C571.125 729.828 571.686 742.257 571.276 744.561C571.002 746.114 567.016 746.266 564.961 747.121C562.908 747.978 561.364 749.176 560.34 750.717C559.308 752.258 558.881 753.37 559.055 754.056C559.224 754.739 558.241 755.881 559.953 757.253C561.666 758.623 565.731 759.194 568.302 759.194C569.297 759.194 571.164 758.628 571.852 759.611C572.93 761.16 572.61 764.979 572.922 768.952C573.437 775.46 572.838 779.144 571.125 779.999C569.413 780.856 568.128 781.798 567.272 782.822C566.415 783.851 564.876 784.791 562.649 785.649C560.424 786.504 557.854 787.963 554.943 790.016C552.033 792.072 550.32 793.096 549.808 793.096C549.294 793.096 548.439 793.697 547.238 794.895C546.04 796.093 544.926 796.866 543.9 797.207C542.871 797.55 542.274 798.49 542.1 800.033C541.931 801.572 542.184 802.685 542.871 803.371C543.559 804.055 544.499 804.57 545.697 804.913C546.895 805.256 557.168 805.256 576.519 804.913C595.868 804.57 606.056 802.772 607.086 799.519C608.112 796.265 608.798 791.642 609.139 785.649C609.482 779.656 610.168 773.834 611.194 768.184C611.66 765.624 611.765 761.8 612.477 760.261C612.746 759.682 615.999 759.708 617.873 759.708C621.299 759.708 624.122 759.365 626.347 758.679C628.577 757.995 629.857 756.198 630.202 753.285C630.543 750.374 630.543 746.434 630.202 741.471C629.862 736.504 629.857 726.487 630.202 711.419C630.423 701.67 630.358 693.307 631.495 689.859C631.662 689.362 633.661 688.817 634.567 688.817C635.852 688.817 637.754 688.463 637.67 688.289C638.266 688.376 639.106 687.962 639.705 688.046C640.906 688.215 641.848 688.046 642.531 687.531C643.217 687.019 644.241 682.908 645.611 675.203C646.981 667.497 647.582 663.13 647.411 662.103C647.326 661.588 647.239 661.076 647.155 660.564C647.326 660.564 647.495 660.564 647.667 660.564C648.012 660.564 648.78 656.881 649.978 649.515C651.179 642.155 651.95 636.16 652.29 631.539C652.633 626.913 653.061 624.005 653.575 622.804C654.087 621.606 654.261 620.406 654.087 619.21C653.918 618.01 654.177 616.212 654.86 613.814C655.546 611.418 656.486 604.739 657.686 593.779C658.882 582.82 659.824 576.315 660.51 574.262C661.196 572.206 662.138 571.177 663.334 571.177C664.534 571.177 665.221 571.523 665.39 572.206C665.564 572.892 665.136 575.457 664.104 579.912C663.08 584.363 662.566 587.873 662.566 590.441C662.566 593.009 662.307 594.895 661.795 596.091C661.281 597.291 660.769 599.603 660.252 603.028C659.74 606.454 659.568 608.763 659.74 609.963C659.911 611.159 659.399 615.186 658.199 622.034C657 628.884 656.401 633.764 656.401 636.674C656.401 639.585 656.143 641.298 655.631 641.812C655.116 642.324 654.945 642.923 655.116 643.61C655.288 644.296 654.604 649.431 653.061 659.021C651.522 668.61 651.775 676.744 653.831 683.42C655.884 690.102 657.599 694.981 658.972 698.063C660.341 701.146 661.365 704.228 662.049 707.31C662.737 710.392 663.249 711.933 663.592 711.933C663.935 711.933 664.535 713.73 665.39 717.325C666.247 720.924 666.933 723.062 667.445 723.748C667.96 724.431 668.472 726.059 668.986 728.627C669.498 731.197 670.015 732.82 670.527 733.506C671.042 734.193 671.211 734.876 671.042 735.562C670.871 736.246 671.126 737.019 671.813 737.874C672.496 738.731 673.008 740.357 673.354 742.756C673.694 745.149 674.293 747.036 675.151 748.406C676.006 749.775 676.349 750.63 676.18 750.976C676.006 751.314 677.465 755.681 680.542 764.073C683.63 772.462 679.603 779.999 668.472 786.678C657.344 793.354 651.607 797.035 651.263 797.721C650.92 798.405 650.836 799.26 651.005 800.292C651.179 801.316 652.118 802.258 653.831 803.115C655.546 803.971 660.083 804.229 667.445 803.886C674.808 803.543 683.883 803.458 694.673 803.627C705.459 803.802 711.623 803.714 713.167 803.371C714.705 803.031 718.266 803.802 719.467 798.492C720.665 793.183 719.073 785.907 719.073 783.851C719.073 781.798 716.846 767.926 712.396 742.241C707.942 716.557 705.459 703.114 704.947 701.914C704.432 700.718 703.662 696.435 702.635 689.073C701.606 681.707 699.98 673.49 697.756 664.415C695.526 655.339 694.415 650.033 694.415 648.489C694.415 646.95 693.217 640.786 690.818 629.995C688.422 619.21 687.137 612.703 686.965 610.475C686.796 608.251 686.279 605.852 685.427 603.284C684.569 600.717 683.286 591.982 681.574 577.085C679.859 562.186 678.576 552.939 677.719 549.345C676.863 545.748 675.921 539.668 674.895 531.11C673.866 522.547 673.011 517.238 672.325 515.185C671.639 513.129 671.042 508.334 670.527 500.8C670.015 493.266 669.245 487.017 668.213 482.048C667.189 477.084 666.675 473.403 666.675 471.004C666.675 468.608 666.332 466.209 665.648 463.813C664.962 461.417 664.706 459.876 664.878 459.192C665.046 458.506 664.534 455.081 663.334 448.916C662.138 442.752 661.109 435.988 660.252 428.623C659.399 421.263 658.455 415.268 657.428 410.644C656.401 406.021 655.032 400.97 653.319 395.492C651.607 390.013 650.237 386.414 649.208 384.704C648.181 382.991 646.981 380.165 645.611 376.225C644.244 372.288 643.13 369.892 642.275 369.034C641.418 368.179 640.135 366.124 638.423 362.87C636.707 359.619 634.224 356.449 630.973 353.364C627.719 350.285 625.236 348.232 623.523 347.2C621.811 346.176 618.9 345.062 614.789 343.864C610.68 342.664 607.17 342.067 604.259 342.067C601.349 342.067 598.865 342.579 596.81 343.606C594.757 344.635 593.044 345.234 591.674 345.403C590.305 345.577 588.848 344.12 587.307 341.035C586.536 339.497 585.766 337.956 584.998 336.415C585.681 336.156 586.367 335.903 587.051 335.644C588.421 335.13 590.046 333.76 591.93 331.535C593.815 329.308 595.1 327.252 595.783 325.371C596.469 323.487 596.897 321.347 597.068 318.948C597.237 316.552 597.839 314.67 598.865 313.3C599.892 311.928 600.407 310.303 600.407 308.416C600.407 306.534 600.235 305.165 599.892 304.307C599.551 303.452 598.696 302.595 597.327 301.739C595.957 300.882 595.1 299.771 594.757 298.401C594.414 297.032 593.471 295.145 591.93 292.751C590.389 290.35 589.447 289.239 589.107 289.411C588.764 289.582 588.165 289.239 587.307 288.384C586.452 287.526 584.824 286.756 582.428 286.072C580.029 285.386 577.633 285.043 575.237 285.043C572.838 285.043 570.613 285.386 568.558 286.072ZM578.575 290.181C581.486 290.524 583.797 291.295 585.51 292.493C587.223 293.691 588.421 295.404 589.107 297.631C589.793 299.855 589.276 301.399 587.563 302.252C585.853 303.109 584.908 304.049 584.739 305.08C584.568 306.104 584.908 306.79 585.766 307.136C586.621 307.476 587.479 307.136 588.334 306.104C589.191 305.08 590.046 304.394 590.904 304.049C591.759 303.708 592.785 303.88 593.986 304.566C595.184 305.249 595.957 306.02 596.295 306.877C596.641 307.732 596.295 309.018 595.271 310.73C594.242 312.443 592.96 313.554 591.416 314.068C589.877 314.58 589.191 315.182 589.363 315.866C589.534 316.552 590.22 317.064 591.416 317.409C592.017 317.578 592.616 317.752 593.215 317.921C592.701 319.375 592.186 320.835 591.674 322.289C590.645 325.197 589.363 327.511 587.822 329.224C586.28 330.936 584.568 332.219 582.684 333.074C580.799 333.931 578.659 334.187 576.263 333.847C573.864 333.501 571.727 332.646 569.84 331.277C567.959 329.907 566.415 328.195 565.219 326.141C564.019 324.086 563.079 322.888 562.393 322.542C561.71 322.202 560.424 322.115 558.54 322.289C556.656 322.458 555.458 322.204 554.943 321.518C554.429 320.835 554.429 319.634 554.943 317.921C555.458 316.209 555.63 315.008 555.458 314.324C555.287 313.641 555.458 313.042 555.973 312.527C556.485 312.015 556.915 310.815 557.255 308.933C557.601 307.046 558.026 305.508 558.54 304.307C559.055 303.109 559.482 302.51 559.825 302.51C560.166 302.51 560.509 301.824 560.852 300.454C561.195 299.085 561.623 298.317 562.137 298.143C562.649 297.974 563.079 297.372 563.42 296.346C563.765 295.319 564.449 294.548 565.473 294.034C566.504 293.522 567.101 293.005 567.272 292.493C567.444 291.978 568.645 291.382 570.869 290.696C573.096 290.012 575.662 289.838 578.575 290.181ZM377.973 302.51C378.485 302.679 379 302.853 379.514 303.025C380.541 303.365 381.399 304.223 382.082 305.592C382.768 306.962 383.879 311.158 385.423 318.18C386.193 321.69 386.961 325.197 387.735 328.707C386.618 328.796 385.507 328.881 384.394 328.965C382.167 329.137 380.113 330.509 378.229 333.074C376.345 335.644 374.464 337.526 372.579 338.726C370.695 339.924 369.07 340.698 367.7 341.035C366.328 341.381 364.787 341.466 363.077 341.294C361.361 341.125 359.907 340.698 358.709 340.012C357.509 339.328 356.741 338.642 356.398 337.956C356.055 337.272 355.543 336.927 354.856 336.927C354.513 336.927 354.173 336.927 353.827 336.927C353.914 336.758 353.999 336.586 354.086 336.415C354.173 336.243 354.257 336.072 354.342 335.903C354.086 335.816 353.827 335.729 353.574 335.644C353.057 335.473 352.716 334.961 352.545 334.103C352.373 333.248 352.03 332.646 351.518 332.306C351.004 331.963 350.318 330.593 349.463 328.195C349.032 326.999 348.605 325.798 348.177 324.598C349.89 324.685 351.603 324.772 353.315 324.856C356.741 325.028 359.907 324.344 362.821 322.801C365.729 321.262 368.558 318.779 371.297 315.354C374.036 311.928 375.833 308.933 376.688 306.363C377.116 305.08 377.546 303.795 377.973 302.51ZM567.272 307.904C566.758 308.416 566.504 309.274 566.504 310.472C566.504 311.672 567.188 312.443 568.558 312.783C569.93 313.126 570.782 312.699 571.125 311.498C571.468 310.303 571.384 309.361 570.869 308.675C570.355 307.988 569.756 307.561 569.072 307.389C568.386 307.22 567.787 307.389 567.272 307.904ZM542.1 311.245C542.617 311.588 543.385 311.672 544.414 311.498C545.441 311.329 546.124 311.498 546.467 312.015C546.81 312.527 547.752 312.783 549.294 312.783C550.064 312.783 550.835 312.783 551.605 312.783C551.521 313.812 551.436 314.839 551.347 315.866C551.178 317.921 550.919 319.032 550.579 319.206C550.236 319.375 550.151 320.404 550.32 322.289C550.492 324.17 551.178 325.284 552.376 325.629C553.574 325.97 554.943 326.054 556.485 325.883C558.026 325.714 559.224 325.97 560.081 326.653C560.936 327.337 561.623 328.11 562.137 328.965C562.649 329.823 562.821 330.422 562.649 330.762C562.48 331.108 563.079 331.878 564.449 333.074C565.816 334.275 567.359 335.301 569.072 336.156C570.782 337.014 572.495 337.526 574.207 337.7C575.92 337.869 576.862 338.127 577.034 338.47C577.205 338.811 577.717 338.898 578.575 338.726C579.43 338.555 580.799 340.096 582.684 343.35C584.568 346.604 583.966 350.456 580.887 354.908C577.802 359.36 576.263 362.015 576.263 362.87C576.263 363.727 575.92 364.582 575.237 365.44C574.551 366.295 573.864 368.179 573.181 371.09C572.495 374.001 571.983 375.542 571.637 375.713C571.299 375.882 570.355 381.279 568.814 391.895C567.272 402.511 566.33 420.319 565.99 445.32C565.647 470.321 565.647 483.676 565.99 485.389C566.33 487.101 566.415 494.551 566.246 507.735C566.074 520.922 566.161 528.026 566.504 529.055C566.842 530.079 566.932 535.905 566.758 546.519C566.589 557.138 566.673 563.215 567.016 564.756C567.359 566.298 567.444 572.547 567.272 583.506C567.101 594.463 567.272 609.705 567.787 629.225C568.043 638.986 568.302 648.747 568.558 658.509C565.304 658.509 562.053 658.509 558.796 658.509C555.545 658.509 553.569 658.253 550.315 658.253C550.487 658.168 550.236 657.139 550.579 655.424C550.919 653.714 551.006 647.462 550.835 636.674C550.663 625.887 550.75 619.807 551.091 618.437C551.436 617.067 551.605 612.531 551.605 604.826C551.605 597.12 551.436 591.386 551.091 587.615C550.75 583.849 550.423 570.191 549.908 569.677C549.652 569.423 549.393 569.165 549.137 568.906C548.71 569.592 548.282 570.278 547.855 570.962C546.997 572.331 546.211 586.591 545.697 590.699C545.182 594.808 545.098 597.803 545.441 599.688C545.784 601.572 545.784 602.857 545.441 603.54C545.098 604.227 545.013 606.881 545.182 611.502C545.356 616.128 545.272 619.295 544.926 621.007C544.586 622.72 544.586 624.517 544.926 626.401C545.272 628.283 545.356 631.365 545.182 635.648C545.013 639.928 545.356 644.81 546.211 650.289C546.641 653.028 546.263 655.554 546.69 658.294C543.265 658.294 540.646 658.509 537.221 658.509C533.795 658.509 531.164 658.286 527.738 658.286C528.166 656.061 527.802 654.057 528.232 651.83C529.087 647.378 529.771 639.585 530.288 628.457C530.8 617.323 530.972 607.649 530.8 599.432C530.629 591.211 530.355 572.936 530.186 572.081C530.014 571.223 529.671 570.795 529.159 570.795C528.901 570.795 528.642 570.795 528.389 570.795C528.389 570.967 528.389 571.138 528.389 571.31C528.389 571.479 528.389 571.653 528.389 571.822C528.13 571.822 527.874 571.822 527.616 571.822C527.104 571.822 526.604 586.929 525.921 589.67C525.235 592.41 524.807 602.857 524.636 621.007C524.464 639.158 524.208 650.033 523.865 653.627C523.706 655.283 524.759 657.09 523.763 657.981C522.6 659.026 519.237 659.021 516.93 659.021C514.787 659.021 512.647 659.021 510.51 659.021C510.766 647.378 511.024 635.732 511.278 624.09C511.795 600.801 511.964 588.214 511.795 586.332C511.621 584.448 511.464 571.904 511.121 571.732C510.781 571.563 510.353 571.732 509.841 572.247C509.324 572.759 508.968 585.221 508.968 586.591C508.968 587.96 508.797 588.815 508.454 589.156C508.111 589.499 507.939 591.813 507.939 596.091C507.939 600.374 507.768 602.857 507.427 603.54C507.084 604.227 506.826 611.586 506.657 625.631C506.483 639.672 506.57 648.747 506.915 652.856C507.084 654.912 507.253 656.965 507.427 659.021C505.287 659.105 503.144 659.192 501.004 659.279C498.864 659.364 496.724 659.448 494.586 659.533C494.497 650.117 494.412 640.699 494.328 631.281C494.156 612.444 493.813 599.258 493.301 591.723C492.784 584.192 492.615 560.389 492.784 520.32C492.871 500.288 492.958 480.251 493.043 460.216C494.497 460.731 495.956 461.245 497.41 461.757C500.321 462.787 502.632 463.301 504.345 463.301C506.058 463.301 507.253 463.043 507.939 462.528C508.623 462.016 509.053 460.646 509.224 458.419C509.396 456.195 509.309 454.994 508.968 454.825C508.623 454.651 508.454 453.711 508.454 451.996C508.454 450.286 508.285 449.257 507.939 448.916C507.599 448.571 507.599 448.143 507.939 447.631C508.285 447.117 508.369 446.177 508.195 444.808C508.026 443.438 508.111 442.665 508.454 442.496C508.797 442.322 509.224 441.126 509.739 438.897C510.251 436.672 512.222 433.249 515.645 428.623C519.07 424.003 521.126 419.72 521.809 415.782C522.495 411.843 522.321 408.161 521.297 404.736C520.268 401.311 519.413 399.429 518.727 399.086C518.044 398.743 517.701 398.316 517.701 397.801C517.701 397.289 516.846 396.178 515.133 394.463C513.418 392.753 512.048 391.636 511.024 391.124C509.992 390.61 509.14 389.755 508.454 388.554C507.768 387.359 507.427 386.243 507.427 385.219C507.427 384.187 508.026 382.479 509.224 380.078C510.423 377.684 511.964 375.629 513.848 373.914C515.729 372.203 517.872 369.377 520.268 365.44C522.667 361.5 523.865 358.761 523.865 357.22C523.865 355.679 523.353 354.481 522.321 353.623C521.297 352.768 519.242 352.425 516.157 352.596C513.08 352.768 509.823 353.454 506.398 354.65C502.975 355.85 500.835 356.79 499.978 357.476C499.123 358.159 498.265 358.505 497.41 358.505C496.98 358.505 496.552 358.505 496.125 358.505C496.125 358.249 496.125 357.99 496.125 357.732C496.125 357.22 497.922 352.768 501.519 344.376C505.113 335.987 507.855 330.509 509.739 327.939C511.621 325.371 514.79 322.458 519.242 319.206C523.694 315.953 528.486 313.725 533.626 312.527C538.762 311.329 541.588 310.899 542.1 311.245ZM418.298 312.015C421.552 312.527 425.233 313.725 429.342 315.61C433.454 317.494 437.135 319.977 440.389 323.059C443.642 326.141 446.126 329.224 447.836 332.306C449.548 335.388 450.403 337.185 450.403 337.7C450.403 337.956 450.403 338.212 450.403 338.47C450.15 338.383 449.891 338.296 449.633 338.212C449.121 338.043 447.152 338.47 443.727 339.497C440.302 340.523 436.963 340.782 433.71 340.268C430.456 339.756 428.83 339.328 428.83 338.982C428.83 338.642 427.973 338.212 426.26 337.7C424.55 337.185 423.695 336.673 423.692 336.156C423.692 335.644 422.494 335.13 420.096 334.618C417.699 334.103 416.158 334.103 415.472 334.618C414.786 335.13 414.359 336.33 414.19 338.212C414.018 340.096 413.762 341.125 413.416 341.294C413.079 341.466 412.904 343.178 412.904 346.432C412.904 349.686 414.018 353.71 416.245 358.505C418.47 363.3 420.183 365.867 421.381 366.211C422.579 366.551 423.178 367.063 423.178 367.749C423.178 368.095 423.178 368.435 423.178 368.778C423.436 368.778 423.692 368.778 423.948 368.778C424.463 368.778 424.977 369.206 425.492 370.061C426.004 370.918 428.485 372.203 432.942 373.914C437.391 375.629 440.56 376.484 442.442 376.484C444.326 376.484 445.698 376.74 446.553 377.254C447.408 377.769 448.35 377.938 449.379 377.769C450.403 377.595 451.519 377.938 452.715 378.795C453.916 379.651 454.686 379.994 455.029 379.822C455.372 379.651 455.971 379.994 456.826 380.851C457.684 381.706 458.111 382.39 458.111 382.904C458.111 383.419 457.599 384.102 456.568 384.96C455.544 385.815 452.031 387.272 446.039 389.327C440.046 391.383 436.536 392.753 435.507 393.436C434.48 394.122 433.538 394.463 432.683 394.463C431.825 394.463 430.456 394.977 428.574 396.004C426.688 397.033 425.408 398.06 424.721 399.086C424.035 400.113 423.695 401.398 423.692 402.939C423.692 404.48 424.378 406.277 425.745 408.333C427.115 410.388 428.06 411.674 428.574 412.186C429.086 412.7 429.516 412.869 429.857 412.7C430.028 412.616 430.2 412.529 430.371 412.442C430.287 412.7 430.2 412.959 430.113 413.212C429.944 413.727 430.886 414.925 432.942 416.809C434.995 418.693 436.707 421.174 438.074 424.259C439.444 427.338 440.988 429.652 442.7 431.194C444.413 432.732 446.297 433.418 448.35 433.249C450.403 433.075 452.203 432.307 453.744 430.935C455.285 429.565 457.082 427.512 459.138 424.771C460.165 423.401 461.194 422.031 462.22 420.662C462.305 429.481 462.392 438.298 462.479 447.117C462.648 464.755 462.479 481.28 461.962 496.691C461.45 512.102 461.363 521.175 461.708 523.914C462.049 526.659 461.621 528.371 460.423 529.055C459.223 529.741 443.555 529.91 413.416 529.567C398.348 529.395 383.28 529.224 368.212 529.055C368.212 518.95 368.212 508.846 368.212 498.744C368.212 478.538 368.04 467.666 367.7 466.125C367.357 464.584 367.272 459.446 367.441 450.714C367.613 441.979 367.441 434.962 366.929 429.652C366.415 424.346 366.243 420.15 366.415 417.065C366.586 413.985 365.644 406.364 363.589 394.207C361.535 382.047 360.849 374.428 361.536 371.346C362.219 368.264 364.275 362.701 367.7 354.65C371.123 346.604 374.205 341.553 376.947 339.497C379.686 337.441 381.312 335.729 381.826 334.359C382.341 332.989 383.964 332.219 386.705 332.047C389.445 331.878 390.814 330.25 390.814 327.168C390.814 324.086 391.672 321.69 393.384 319.977C395.097 318.264 396.293 317.409 396.979 317.409C397.665 317.409 398.863 316.808 400.576 315.61C402.288 314.412 404.858 313.385 408.284 312.527C411.706 311.672 415.045 311.498 418.298 312.015ZM372.065 319.718C371.21 320.576 370.782 321.347 370.782 322.03C370.782 322.716 371.038 323.228 371.55 323.574C372.067 323.917 372.666 324.086 373.35 324.086C374.036 324.086 374.632 323.743 375.147 323.059C375.662 322.373 375.833 321.603 375.662 320.745C375.49 319.89 375.06 319.291 374.376 318.948C373.69 318.607 372.92 318.863 372.065 319.718ZM419.581 340.012C421.209 340.951 422.837 341.893 424.463 342.838C427.717 344.719 431.142 345.92 434.739 346.432C438.333 346.947 441.244 347.031 443.471 346.688C445.698 346.345 447.324 346.004 448.35 345.661C449.379 345.318 449.891 344.975 449.891 344.635C449.891 344.292 451.604 343.69 455.029 342.838C458.455 341.98 461.708 341.722 464.788 342.067C467.873 342.408 469.839 343.007 470.696 343.864C471.551 344.719 472.153 345.062 472.494 344.891C472.837 344.719 473.351 344.891 474.037 345.403C474.721 345.92 475.407 346.947 476.093 348.485C476.776 350.029 477.373 350.884 477.89 351.055C478.402 351.227 478.658 351.826 478.658 352.852C478.658 353.882 479.001 354.565 479.687 354.908C480.371 355.251 480.798 356.019 480.972 357.22C481.141 358.418 482.426 360.215 484.823 362.614C487.221 365.01 489.533 366.211 491.758 366.211C493.985 366.211 495.697 365.868 496.896 365.181C498.094 364.498 499.123 364.155 499.978 364.155C500.835 364.155 502.717 363.3 505.63 361.585C508.538 359.875 510.937 358.674 512.821 357.99C514.703 357.304 516.247 356.964 517.442 356.964C518.044 356.964 518.643 356.964 519.242 356.964C519.155 357.391 519.07 357.821 518.986 358.249C518.812 359.101 516.93 361.416 513.333 365.181C509.739 368.95 506.826 372.544 504.601 375.969C502.374 379.392 501.519 382.479 502.031 385.219C502.548 387.958 503.743 390.182 505.63 391.895C507.512 393.608 508.625 394.977 508.968 396.004C509.309 397.033 509.908 397.632 510.766 397.801C511.621 397.975 512.737 399.002 514.104 400.883C515.473 402.77 516.331 404.395 516.674 405.765C517.015 407.135 517.015 409.275 516.674 412.186C516.331 415.099 514.534 418.78 511.278 423.229C508.026 427.684 505.799 431.363 504.601 434.276C503.4 437.187 502.632 440.269 502.289 443.523C501.946 446.774 501.946 448.486 502.289 448.66C502.632 448.829 503.06 450.286 503.575 453.028C503.828 454.397 504.087 455.767 504.345 457.137C503.743 457.137 503.144 457.137 502.548 457.137C501.347 457.137 498.864 456.11 495.098 454.052C491.33 451.996 488.248 449.088 485.852 445.32C483.453 441.554 482.083 438.897 481.74 437.358C481.4 435.814 481.4 434.619 481.74 433.761C482.083 432.906 482.083 432.307 481.74 431.964C481.4 431.621 481.656 430.507 482.511 428.623C483.368 426.742 483.796 424.515 483.796 421.947C483.796 419.377 483.967 417.923 484.311 417.58C484.482 417.411 484.651 417.236 484.823 417.065C484.651 416.98 484.482 416.896 484.311 416.809C483.965 416.637 483.88 415.695 484.055 413.985C484.223 412.27 484.055 411.159 483.537 410.644C483.025 410.13 482.941 409.531 483.281 408.845C483.453 408.507 483.627 408.161 483.796 407.821C483.453 407.649 483.11 407.475 482.769 407.306C482.083 406.963 481.313 405.765 480.455 403.712C479.603 401.656 478.745 400.371 477.89 399.857C477.032 399.345 476.093 399.086 475.061 399.086C474.037 399.086 472.494 399.601 470.44 400.627C468.385 401.656 466.503 403.026 464.788 404.736C463.078 406.451 462.22 407.562 462.22 408.077C462.22 408.591 461.877 409.019 461.194 409.359C460.508 409.702 458.283 412.442 454.515 417.58C450.749 422.717 448.437 425.114 447.58 424.771C446.725 424.43 445.954 423.401 445.271 421.688C444.584 419.978 442.099 416.637 437.821 411.674C433.538 406.705 431.398 403.965 431.398 403.453C431.398 402.939 432.084 402.342 433.454 401.656C434.823 400.97 439.444 399.345 447.324 396.774C455.198 394.207 459.993 392.238 461.708 390.868C463.418 389.496 464.619 387.871 465.303 385.987C465.646 385.044 465.989 384.102 466.329 383.163C466.158 383.163 465.989 383.163 465.817 383.163C465.471 383.163 465.218 382.648 465.044 381.622C464.875 380.593 464.017 379.482 462.479 378.281C460.935 377.083 460.165 376.225 460.165 375.713C460.165 375.457 460.165 375.199 460.165 374.943C459.824 375.03 459.481 375.114 459.138 375.199C458.455 375.37 457.937 375.03 457.599 374.172C457.254 373.317 456.742 372.974 456.056 373.143C455.372 373.317 454.945 373.228 454.771 372.89C454.602 372.544 454.087 372.375 453.232 372.375C452.375 372.375 451.863 372.116 451.688 371.604C451.519 371.09 451.005 370.918 450.15 371.09C449.292 371.261 448.01 371.003 446.295 370.319C444.584 369.633 442.442 369.293 439.874 369.293C437.306 369.293 435.85 369.034 435.507 368.522C435.166 368.008 434.649 367.836 433.966 368.008C433.28 368.179 432.34 367.921 431.142 367.237C429.944 366.551 427.973 364.498 425.233 361.073C422.494 357.647 420.782 354.481 420.096 351.567C419.412 348.659 419.153 346.004 419.327 343.606C419.412 342.408 419.496 341.21 419.581 340.012ZM606.056 347.973C610.168 348.145 614.021 349.087 617.617 350.799C621.212 352.509 624.808 355.336 628.403 359.275C631.999 363.213 635.509 368.607 638.935 375.457C642.36 382.305 645.442 390.525 648.181 400.113C650.92 409.702 652.549 416.724 653.061 421.174C653.575 425.628 654.087 428.37 654.604 429.394C655.116 430.423 655.546 433.165 655.884 437.614C656.23 442.068 656.829 446.09 657.686 449.687C658.542 453.281 658.972 456.279 658.972 458.675C658.972 461.074 659.141 462.359 659.484 462.528C659.824 462.702 659.911 463.642 659.74 465.357C659.568 467.064 659.824 470.748 660.51 476.401C661.196 482.048 661.711 484.877 662.049 484.874C662.223 484.874 662.394 484.877 662.566 484.874C662.481 485.558 662.394 486.244 662.307 486.927C662.138 488.299 662.307 489.669 662.822 491.039C663.334 492.408 663.592 494.551 663.592 497.459C663.592 500.372 663.935 502.856 664.619 504.909C665.305 506.964 665.564 508.846 665.39 510.561C665.221 512.271 665.82 517.238 667.189 525.458C668.559 533.678 669.329 539.584 669.498 543.181C669.585 544.978 669.672 546.775 669.757 548.572C669.498 548.572 669.245 548.572 668.986 548.572C668.73 548.572 668.472 548.572 668.213 548.572C668.213 548.746 668.213 548.918 668.213 549.089C668.213 549.258 668.213 549.43 668.213 549.604C667.53 549.517 666.846 549.43 666.16 549.345C664.793 549.174 664.02 549.261 663.851 549.604C663.677 549.942 663.165 550.031 662.307 549.857C661.452 549.688 660.426 549.857 659.225 550.372C658.027 550.886 656.916 551.058 655.884 550.886C654.86 550.715 652.377 550.973 648.44 551.657C644.5 552.343 640.304 553.198 635.852 554.225C631.4 555.254 629.089 555.937 628.917 556.28C628.746 556.623 628.318 556.708 627.632 556.536C626.949 556.365 626.178 556.536 625.32 557.051C624.465 557.565 622.238 558.077 618.644 558.592C615.047 559.104 613.166 559.534 612.991 559.877C612.823 560.218 612.221 560.389 611.194 560.389C610.68 560.389 610.168 560.389 609.656 560.389C609.656 560.563 609.656 560.732 609.656 560.901C609.656 561.075 609.656 561.247 609.656 561.418C609.139 561.331 608.624 561.247 608.112 561.16C607.086 560.991 605.885 560.991 604.515 561.16C603.148 561.331 602.122 561.674 601.436 562.186C600.747 562.701 599.636 562.872 598.095 562.701C596.554 562.529 594.585 562.788 592.186 563.471C589.793 564.157 587.65 564.5 585.766 564.5C583.882 564.5 581.573 564.925 578.833 565.783C577.464 566.211 576.092 566.638 574.722 567.066C574.551 565.783 574.382 564.5 574.207 563.215C573.864 560.648 573.78 553.37 573.951 541.384C574.123 529.395 573.951 509.02 573.437 480.251C572.922 451.484 572.838 436.759 573.181 436.073C573.524 435.389 573.524 431.793 573.181 425.285C572.838 418.78 573.007 411.072 573.693 402.168C574.382 393.265 575.062 387.016 575.749 383.419C576.432 379.822 577.891 375.03 580.116 369.034C582.343 363.041 584.908 358.418 587.822 355.167C590.732 351.91 593.471 349.855 596.042 349.002C598.609 348.145 601.948 347.802 606.056 347.973ZM331.481 352.852C335.08 353.195 337.904 353.966 339.96 355.167C342.013 356.362 343.042 357.22 343.042 357.732C343.042 357.99 343.042 358.249 343.042 358.505C343.214 358.418 343.383 358.333 343.554 358.249C343.9 358.075 344.496 358.761 345.354 360.302C346.209 361.843 346.892 362.701 347.409 362.87C347.921 363.041 349.378 366.124 351.772 372.116C354.173 378.112 355.97 384.187 357.168 390.351C358.366 396.516 359.221 403.622 359.738 411.674C360.25 419.72 360.422 426.655 360.25 432.479C360.079 438.298 360.163 441.467 360.506 441.979C360.849 442.496 360.849 443.264 360.506 444.293C360.163 445.32 360.163 446.689 360.506 448.402C360.849 450.115 360.849 451.827 360.506 453.54C360.163 455.252 360.163 456.878 360.506 458.419C360.849 459.96 360.934 480.852 360.765 521.091C360.591 561.331 360.678 581.88 361.021 582.735C361.361 583.593 361.361 584.962 361.021 586.844C360.678 588.731 360.506 601.912 360.506 626.401C360.506 650.888 360.337 663.816 359.992 665.185C359.651 666.555 359.738 673.49 360.25 685.99C360.765 698.491 360.849 707.909 360.506 714.242C360.163 720.581 337.134 723.917 291.412 724.262C245.694 724.603 217.184 724.603 205.882 724.262C194.581 723.917 187.046 724.006 183.279 724.518C179.512 725.033 176.772 725.202 175.06 725.033C174.204 724.948 173.347 724.859 172.491 724.774C172.663 722.806 172.834 720.837 173.005 718.868C173.347 714.929 173.947 711.16 174.803 707.566C175.659 703.969 176.259 702.172 176.601 702.172C176.943 702.172 177.628 701.058 178.656 698.831C179.683 696.607 180.711 694.981 181.738 693.952C182.765 692.925 183.622 692.326 184.306 692.155C184.992 691.983 185.591 691.471 186.105 690.614C186.618 689.759 187.303 689.331 188.16 689.331C189.015 689.331 190.471 688.299 192.526 686.246C194.581 684.191 196.122 681.882 197.149 679.311C198.177 676.744 198.69 673.917 198.69 670.838C198.69 667.753 199.204 664.499 200.231 661.076C201.259 657.651 203.313 654.31 206.396 651.059C209.478 647.805 213.417 645.322 218.211 643.61C223.005 641.897 225.574 640.699 225.916 640.015C226.259 639.329 226.859 638.899 227.714 638.73C228.571 638.559 229.598 637.873 230.797 636.674C231.995 635.476 233.28 633.679 234.65 631.281C236.02 628.884 236.961 625.375 237.475 620.749C237.988 616.128 238.845 611.676 240.043 607.393C241.242 603.113 242.783 599.859 244.667 597.635C246.55 595.407 247.492 593.951 247.492 593.267C247.492 592.924 247.492 592.581 247.492 592.238C247.749 592.325 248.006 592.412 248.262 592.497C248.776 592.666 249.633 592.154 250.831 590.955C252.03 589.757 254.256 587.018 257.51 582.735C260.764 578.455 262.732 574.945 263.416 572.206C264.099 569.467 264.616 568.097 264.957 568.097C265.3 568.097 265.559 567.24 265.728 565.527C265.902 563.814 266.155 562.957 266.501 562.957C266.67 562.957 266.844 562.957 267.013 562.957C266.928 562.529 266.844 562.102 266.754 561.674C266.585 560.817 266.844 559.278 267.525 557.051C268.211 554.826 268.556 550.372 268.556 543.693C268.556 537.016 269.24 526.569 270.609 512.358C271.979 498.145 272.578 490.268 272.407 488.73C272.235 487.186 272.407 485.389 272.919 483.333C273.436 481.28 273.689 478.198 273.689 474.086C273.689 469.978 273.948 467.238 274.462 465.869C274.974 464.499 275.148 463.301 274.974 462.272C274.805 461.245 275.233 457.82 276.259 451.996C277.286 446.177 277.8 442.153 277.8 439.926C277.8 437.701 278.056 436.073 278.571 435.046C279.083 434.017 279.342 432.479 279.342 430.423C279.342 428.37 279.513 427.169 279.854 426.826C280.199 426.483 280.284 426.056 280.112 425.541C279.941 425.029 280.627 421.348 282.165 414.497C283.709 407.649 285.506 401.142 287.562 394.977C289.615 388.813 292.27 382.733 295.523 376.74C298.777 370.747 302.287 365.868 306.055 362.099C309.821 358.333 313.331 355.85 316.587 354.65C319.838 353.454 322.234 352.768 323.778 352.596C325.317 352.425 327.887 352.509 331.481 352.852ZM543.9 665.185C546.641 665.528 549.55 665.613 552.632 665.444C555.714 665.27 557.342 665.444 557.511 665.956C557.685 666.47 557.427 667.497 556.743 669.038C556.057 670.579 555.371 673.231 554.688 677.002C554.001 680.765 553.745 683.08 553.917 683.937C554.088 684.79 553.832 686.418 553.144 688.817C552.46 691.213 551.948 694.638 551.605 699.09C551.262 703.542 550.236 709.706 548.523 717.583C546.81 725.46 546.04 729.654 546.211 730.168C546.383 730.683 546.296 731.282 545.955 731.968C545.612 732.651 544.67 733.422 543.129 734.28C541.588 735.135 539.448 735.562 536.706 735.562C533.967 735.562 531.571 735.222 529.518 734.536C527.462 733.852 526.261 733.079 525.921 732.224C525.578 731.366 525.493 730.34 525.662 729.142C525.834 727.941 525.662 725.716 525.15 722.463C524.636 719.211 524.377 708.936 524.377 691.64C524.377 682.993 524.377 674.347 524.377 665.697C527.032 665.697 529.687 665.697 532.341 665.697C534.996 665.697 537.648 665.697 540.303 665.697C540.218 665.528 542.53 665.014 543.9 665.185ZM693.13 670.838C693.644 670.838 693.987 671.265 694.156 672.12C694.33 672.978 694.842 676.744 695.7 683.42C696.555 690.102 697.925 697.805 699.809 706.539C701.69 715.272 702.635 720.491 702.635 722.207C702.635 723.917 704.432 733.337 708.029 750.461C711.623 767.583 713.507 777.088 713.679 778.97C713.85 780.856 713.42 782.31 712.396 783.337C711.365 784.363 709.311 784.878 706.232 784.878C703.147 784.878 700.321 784.363 697.756 783.337C695.185 782.31 693.557 781.453 692.871 780.767C692.188 780.083 691.074 777.088 689.535 771.779C687.992 766.472 686.11 761.162 683.883 755.855C681.658 750.546 679.69 744.811 677.977 738.647C676.264 732.482 675.066 728.886 674.378 727.857C673.694 726.83 673.011 724.774 672.325 721.692C671.639 718.61 671.042 716.813 670.527 716.298C670.015 715.786 669.071 712.957 667.701 707.825C666.332 702.684 665.474 700.032 665.136 699.86C664.793 699.689 663.334 695.836 660.769 688.299C658.199 680.765 657.085 676.488 657.428 675.459C657.771 674.432 658.713 673.746 660.252 673.405C661.795 673.062 663.851 672.978 666.416 673.147C668.986 673.318 670.614 673.231 671.301 672.893C671.984 672.548 674.124 672.376 677.719 672.376C681.315 672.376 684.654 672.12 687.738 671.608C690.818 671.091 692.618 670.838 693.13 670.838ZM609.909 689.585C611.368 689.672 612.823 689.759 614.277 689.843C612.991 702.088 611.709 714.329 610.424 726.571C607.856 751.06 605.972 766.556 604.774 773.064C603.576 779.571 602.206 783.337 600.663 784.363C599.124 785.393 597.411 785.907 595.527 785.907C593.643 785.907 591.331 785.393 588.592 784.363C585.853 783.337 583.882 782.395 582.684 781.54C581.486 780.682 580.799 779.912 580.631 779.228C580.456 778.542 579.857 768.868 578.833 750.203C577.802 731.54 577.374 718.011 577.548 709.622C577.717 701.23 577.633 696.607 577.29 695.749C576.947 694.894 576.862 693.867 577.034 692.667C577.205 691.471 577.717 690.785 578.575 690.614C579.43 690.442 584.056 690.355 592.445 690.355C600.837 690.355 605.114 690.186 605.288 689.843C605.457 689.5 607.001 689.416 609.909 689.585ZM623.265 689.331C624.209 689.331 625.151 689.331 626.094 689.331C625.835 689.928 626.204 691.773 625.945 692.375C625.431 693.573 625.848 698.875 625.848 711.547C625.848 724.219 623.951 731.968 622.753 734.021C621.555 736.077 620.014 737.446 618.129 738.132C617.19 738.473 616.248 738.816 615.303 739.159C616.158 730.854 617.016 722.547 617.873 714.242C619.583 697.636 621.383 689.331 623.265 689.331ZM358.968 728.886C359.137 728.886 359.308 728.886 359.48 728.886C359.48 729.997 359.48 731.113 359.48 732.224C359.48 734.449 358.968 743.695 357.936 759.964C356.912 776.23 355.799 784.878 354.6 785.907C353.4 786.931 351.946 787.789 350.233 788.475C348.52 789.158 346.209 789.67 343.298 790.016C340.387 790.356 338.163 790.016 336.619 788.987C335.08 787.963 334.051 786.504 333.537 784.622C333.025 782.738 331.74 773.064 329.684 755.597C328.657 746.865 327.631 738.132 326.602 729.398C331.054 729.485 335.508 729.569 339.96 729.654C348.864 729.828 354.173 729.743 355.883 729.398C357.598 729.057 358.622 728.886 358.968 728.886ZM253.4 730.683C256.652 731.197 259.65 731.366 262.392 731.197C265.131 731.023 266.585 731.282 266.754 731.968C266.928 732.651 266.329 734.536 264.957 737.615C263.587 740.7 261.706 746.094 259.307 753.8C256.911 761.505 255.198 766.297 254.17 768.184C253.143 770.066 251.944 773.578 250.574 778.714C249.205 783.851 248.092 786.847 247.235 787.704C246.379 788.559 244.667 789.501 242.098 790.528C239.53 791.557 236.79 792.072 233.879 792.072C230.968 792.072 228.999 791.557 227.971 790.528C226.944 789.501 226.43 788.559 226.43 787.704C226.43 786.847 227.886 779.397 230.797 765.358C233.708 751.314 235.42 742.241 235.934 738.132C236.448 734.021 236.79 731.796 236.961 731.451C237.133 731.113 238.93 730.939 242.355 730.939C245.78 730.939 247.663 730.767 248.006 730.427C248.348 730.081 250.146 730.168 253.4 730.683ZM428.06 734.792C432.683 734.963 435.422 735.475 436.277 736.333C437.135 737.188 437.99 737.705 438.848 737.874C439.703 738.045 440.217 738.388 440.389 738.9C440.56 739.415 441.587 740.101 443.471 740.956C445.355 741.814 446.382 742.497 446.553 743.012C446.725 743.526 447.237 743.869 448.094 744.038C448.949 744.21 449.464 744.553 449.633 745.065C449.807 745.579 451.092 746.266 453.488 747.121C455.884 747.978 458.196 749.176 460.423 750.717C461.537 751.488 462.648 752.258 463.764 753.029C458.112 753.285 452.462 753.544 446.809 753.8C435.507 754.312 427.205 754.401 421.895 754.056C416.588 753.715 413.416 753.201 412.392 752.514C411.363 751.831 410.677 748.92 410.337 743.78C409.994 738.647 411.706 735.818 415.472 735.306C419.243 734.792 423.436 734.623 428.06 734.792ZM366.156 741.215C366.502 741.555 366.842 741.898 367.185 742.241C367.872 742.925 368.558 743.268 369.241 743.268C369.927 743.268 370.355 743.526 370.524 744.038C370.695 744.553 371.98 745.239 374.376 746.094C376.775 746.952 378.058 747.635 378.229 748.147C378.401 748.662 379.171 749.089 380.541 749.432C381.911 749.775 382.94 750.29 383.626 750.976C383.964 751.314 384.309 751.659 384.65 752C381.911 752 379.174 752 376.43 752C370.951 752 367.784 752.171 366.929 752.514C366.502 752.686 366.072 752.858 365.644 753.029C365.729 751.06 365.816 749.089 365.903 747.121C365.987 745.149 366.072 743.183 366.156 741.215Z" fill="#101114"></path> <path fill-rule="evenodd" clip-rule="evenodd" d="M160.752 540.147C160.24 540.662 159.985 542.623 159.985 546.035C159.985 549.445 159.729 552.599 159.217 555.499C158.705 558.4 157.767 560.53 156.403 561.894C155.038 563.259 152.991 564.367 150.262 565.222C147.533 566.072 145.827 566.927 145.145 567.78C144.463 568.632 144.292 569.569 144.633 570.596L144.637 570.606C144.806 571.113 144.976 571.62 145.145 572.129C145.316 572.045 145.486 571.96 145.657 571.873C145.998 571.704 146.766 572.045 147.959 572.897C149.154 573.75 150.603 574.349 152.309 574.689C154.015 575.027 155.294 575.626 156.147 576.479C157 577.331 158.279 579.72 159.985 583.644C161.69 587.566 162.799 591.232 163.31 594.644C163.822 598.054 164.59 600.018 165.613 600.527L167.148 601.298V600.783V600.271C167.745 600.358 168.342 600.443 168.939 600.527C170.133 600.699 170.901 600.527 171.242 600.018C171.583 599.503 171.668 597.714 171.497 594.644C171.327 591.575 171.412 589.102 171.753 587.223C172.095 585.349 172.777 583.301 173.8 581.084C174.824 578.867 175.932 577.418 177.127 576.735C178.32 576.054 179.003 575.457 179.173 574.943C179.344 574.433 180.026 574.177 181.22 574.177C182.414 574.177 183.778 573.834 185.314 573.153C186.848 572.47 187.872 571.533 188.384 570.34C188.895 569.144 188.384 568.036 186.848 567.012C185.314 565.988 183.437 565.307 181.22 564.966C179.003 564.623 176.871 563.602 174.824 561.894C172.777 560.189 171.242 558.144 170.218 555.755C169.195 553.367 168.342 550.466 167.66 547.054C166.978 543.647 165.784 541.512 164.078 540.662C162.372 539.807 161.264 539.638 160.752 540.147ZM164.598 560.366L164.59 560.361C164.163 561.298 163.737 562.237 163.31 563.174C162.458 565.051 161.264 566.415 159.729 567.268C158.193 568.12 157.426 568.717 157.426 569.06C157.426 569.4 158.279 570.081 159.985 571.105C161.69 572.129 163.054 573.153 164.078 574.177C165.101 575.199 165.698 576.223 165.869 577.247C166.039 578.271 166.295 578.783 166.636 578.783C166.978 578.783 167.234 578.271 167.404 577.247C167.575 576.223 168.086 575.199 168.939 574.177C169.792 573.153 170.56 572.554 171.242 572.385C171.924 572.214 172.521 571.617 173.033 570.596L173.042 570.575C173.295 570.071 173.547 569.564 173.8 569.06C173.508 568.934 173.216 568.809 172.925 568.683C172.619 568.553 172.315 568.422 172.009 568.292C170.816 567.78 169.622 566.84 168.427 565.476C167.234 564.114 166.636 563.09 166.636 562.409C166.636 561.725 166.295 561.213 165.613 560.873C165.275 560.701 164.936 560.532 164.598 560.366Z" fill="#101114"></path> <path fill-rule="evenodd" clip-rule="evenodd" d="M766.869 521.198C765.335 528.535 764.224 532.541 763.541 533.222C762.86 533.908 761.155 534.761 758.426 535.782C755.697 536.806 753.989 537.661 753.309 538.342C752.625 539.026 752.287 539.96 752.287 541.156V542.948C752.354 542.915 752.42 542.879 752.489 542.845C752.592 542.794 752.694 542.74 752.797 542.692C753.137 542.52 753.736 542.863 754.586 543.713C755.441 544.568 756.465 545.078 757.658 545.249C758.853 545.421 760.046 545.933 761.239 546.785C762.432 547.638 763.628 549.171 764.821 551.391C766.016 553.608 766.869 557.189 767.381 562.135C767.89 567.084 768.405 569.728 768.914 570.066C769.429 570.409 770.535 570.578 772.242 570.578C773.947 570.578 775.227 568.018 776.08 562.906C776.932 557.786 777.7 554.46 778.381 552.924C779.065 551.391 780.345 549.855 782.219 548.321C784.098 546.785 786.143 545.848 788.36 545.505C790.577 545.165 792.026 544.484 792.71 543.457C793.393 542.436 793.649 541.583 793.477 540.9C793.306 540.219 792.794 539.707 791.941 539.364C791.514 539.195 791.089 539.026 790.661 538.854C790.749 538.683 790.833 538.511 790.92 538.342C791.005 538.171 791.089 537.999 791.176 537.83C789.387 537.149 787.6 536.469 785.813 535.788L785.803 535.782C782.219 534.418 780.004 532.969 779.149 531.433C778.297 529.9 777.616 526.999 777.101 522.737C776.592 518.469 776.167 516.255 775.821 516.083C775.483 515.914 775.396 515.484 775.568 514.803C775.737 514.12 775.312 513.441 774.288 512.755C773.264 512.074 772.839 511.562 773.008 511.222C773.036 511.165 773.064 511.109 773.092 511.053C773.151 510.94 773.207 510.825 773.264 510.71L771.218 510.454C769.854 510.282 768.405 513.866 766.869 521.198ZM774.078 534.828C773.297 534.124 772.511 533.417 771.728 532.713C771.474 533.481 771.218 534.249 770.962 535.017C770.45 536.55 769.255 537.999 767.381 539.364C766.877 539.732 766.372 540.099 765.87 540.462C765.435 540.78 765 541.094 764.567 541.412C765.251 541.911 765.937 542.41 766.623 542.907C766.877 543.091 767.13 543.273 767.381 543.457C769.255 544.822 770.363 545.846 770.709 546.529C770.763 546.642 770.819 546.755 770.875 546.867C770.988 547.095 771.103 547.325 771.218 547.551L773.264 545.505C774.628 544.143 776.167 543.032 777.869 542.18C779.577 541.327 780.429 540.728 780.429 540.39C780.429 540.05 779.746 539.707 778.381 539.364L778.366 539.359C777.69 539.192 777.012 539.023 776.336 538.854C776.42 538.596 776.505 538.342 776.592 538.086C776.761 537.574 775.995 536.55 774.288 535.017L774.078 534.828Z" fill="#101114"></path> <path fill-rule="evenodd" clip-rule="evenodd" d="M549.765 129.349C549.005 133.096 548.452 135.143 548.114 135.492C547.776 135.842 546.929 136.277 545.574 136.8C544.22 137.322 543.37 137.759 543.032 138.108C542.692 138.456 542.525 138.934 542.525 139.545V140.46C542.559 140.442 542.592 140.425 542.625 140.407C542.676 140.381 542.728 140.354 542.779 140.329C542.948 140.242 543.245 140.416 543.667 140.851C544.092 141.288 544.599 141.548 545.193 141.636C545.787 141.723 546.378 141.985 546.972 142.42C547.563 142.856 548.157 143.64 548.749 144.773C549.343 145.906 549.765 147.736 550.021 150.263C550.275 152.79 550.528 154.141 550.781 154.314C551.037 154.49 551.588 154.577 552.435 154.577C553.283 154.577 553.917 153.269 554.34 150.656C554.765 148.04 555.144 146.342 555.484 145.557C555.822 144.774 556.457 143.988 557.389 143.205C558.321 142.42 559.337 141.942 560.438 141.766C561.541 141.593 562.26 141.245 562.598 140.72C562.936 140.199 563.064 139.762 562.98 139.414C562.895 139.065 562.639 138.805 562.217 138.629C562.004 138.543 561.795 138.456 561.582 138.368C561.623 138.28 561.667 138.194 561.71 138.108C561.751 138.02 561.795 137.932 561.838 137.845C560.947 137.498 560.061 137.149 559.173 136.801L559.168 136.8C557.389 136.103 556.288 135.362 555.866 134.577C555.441 133.794 555.103 132.311 554.847 130.134C554.596 127.954 554.383 126.822 554.212 126.735C554.045 126.648 554.002 126.429 554.086 126.08C554.171 125.732 553.958 125.385 553.451 125.035C552.942 124.686 552.732 124.426 552.814 124.251C552.829 124.223 552.842 124.194 552.858 124.165C552.886 124.107 552.914 124.048 552.942 123.989L551.926 123.859C551.247 123.772 550.528 125.602 549.765 129.349ZM553.347 136.311C552.957 135.951 552.568 135.591 552.179 135.231C552.054 135.623 551.926 136.016 551.798 136.408C551.544 137.191 550.953 137.932 550.021 138.629C549.77 138.817 549.519 139.004 549.271 139.191C549.053 139.352 548.838 139.513 548.623 139.675C548.964 139.931 549.304 140.185 549.645 140.439C549.77 140.533 549.896 140.627 550.021 140.72C550.953 141.417 551.501 141.94 551.672 142.29C551.7 142.347 551.729 142.405 551.757 142.462C551.813 142.579 551.869 142.696 551.926 142.812L552.942 141.766C553.62 141.07 554.383 140.503 555.228 140.068C556.078 139.631 556.5 139.326 556.5 139.153C556.5 138.979 556.16 138.805 555.484 138.629L555.476 138.627C555.139 138.541 554.803 138.455 554.468 138.368C554.509 138.237 554.552 138.108 554.596 137.977C554.678 137.714 554.299 137.191 553.451 136.408L553.347 136.311Z" fill="#101114"></path> <path fill-rule="evenodd" clip-rule="evenodd" d="M232.483 269.332C231.721 273.08 231.17 275.128 230.831 275.476C230.492 275.825 229.646 276.26 228.291 276.785C226.936 277.307 226.088 277.742 225.749 278.09C225.41 278.441 225.242 278.917 225.242 279.529V280.443C225.275 280.425 225.309 280.41 225.343 280.392C225.393 280.366 225.444 280.338 225.495 280.312C225.665 280.225 225.962 280.399 226.384 280.835C226.809 281.272 227.317 281.533 227.909 281.62C228.503 281.708 229.095 281.969 229.689 282.404C230.281 282.839 230.874 283.625 231.467 284.756C232.06 285.891 232.483 287.721 232.738 290.248C232.991 292.774 233.246 294.126 233.499 294.298C233.754 294.474 234.304 294.561 235.151 294.561C235.999 294.561 236.634 293.253 237.057 290.639C237.481 288.023 237.862 286.326 238.201 285.54C238.539 284.756 239.175 283.973 240.106 283.19C241.038 282.404 242.055 281.925 243.155 281.751C244.257 281.577 244.977 281.229 245.315 280.704C245.654 280.182 245.782 279.747 245.696 279.398C245.612 279.05 245.358 278.789 244.935 278.612C244.722 278.525 244.511 278.441 244.299 278.351C244.341 278.264 244.383 278.177 244.427 278.09C244.469 278.003 244.511 277.916 244.554 277.829C243.665 277.481 242.778 277.133 241.89 276.785H241.886C240.106 276.086 239.006 275.346 238.582 274.56C238.159 273.777 237.82 272.294 237.565 270.118C237.312 267.937 237.1 266.806 236.929 266.719C236.761 266.632 236.718 266.414 236.803 266.063C236.887 265.715 236.676 265.37 236.168 265.019C235.66 264.671 235.448 264.41 235.532 264.236C235.546 264.207 235.56 264.177 235.574 264.148C235.603 264.09 235.631 264.031 235.66 263.972L234.643 263.844C233.966 263.754 233.246 265.587 232.483 269.332ZM236.063 276.296C235.675 275.935 235.286 275.574 234.897 275.215C234.771 275.607 234.643 275.999 234.516 276.39C234.262 277.176 233.669 277.916 232.738 278.612C232.488 278.799 232.237 278.989 231.987 279.176C231.771 279.337 231.556 279.496 231.341 279.659C231.68 279.915 232.021 280.169 232.362 280.422C232.487 280.517 232.612 280.609 232.738 280.704C233.669 281.4 234.219 281.925 234.39 282.273C234.417 282.332 234.445 282.388 234.473 282.447C234.529 282.563 234.586 282.68 234.643 282.796L235.66 281.751C236.337 281.055 237.1 280.486 237.946 280.051C238.794 279.616 239.217 279.309 239.217 279.137C239.217 278.963 238.878 278.789 238.201 278.612L238.193 278.61C237.857 278.525 237.52 278.438 237.184 278.351C237.226 278.221 237.268 278.09 237.312 277.96C237.396 277.699 237.015 277.176 236.168 276.39L236.063 276.296Z" fill="#101114"></path> <path fill-rule="evenodd" clip-rule="evenodd" d="M172.333 321.467C169.092 324.196 167.472 325.819 167.472 326.328C167.472 326.84 167.216 327.183 166.704 327.352C166.193 327.524 165.254 328.717 163.89 330.934C162.525 333.151 160.991 336.136 159.285 339.889C157.579 343.642 156.044 347.991 154.679 352.937C153.315 357.885 152.377 361.807 151.865 364.708C151.353 367.606 151.098 371.53 151.098 376.476C151.098 381.422 151.439 385.774 152.121 389.522C152.803 393.277 153.827 396.431 155.191 398.989C156.556 401.549 156.897 403.425 156.215 404.621C155.532 405.811 155.277 406.922 155.447 407.944C155.618 408.97 155.532 409.564 155.191 409.736C154.85 409.905 154.509 410.844 154.168 412.549C153.827 414.257 153.656 416.645 153.656 419.715C153.656 422.784 154.168 427.133 155.191 432.763C156.215 438.392 157.067 441.631 157.75 442.486C158.432 443.336 158.858 444.447 159.029 445.811C159.2 447.176 160.394 450.161 162.611 454.766C164.828 459.369 166.534 462.357 167.728 463.721C168.922 465.086 169.945 466.706 170.798 468.58C171.651 470.459 172.589 471.823 173.612 472.673C174.636 473.528 175.659 474.806 176.683 476.513C177.706 478.218 179.156 479.839 181.032 481.375C182.908 482.908 183.846 483.932 183.846 484.444C183.846 484.956 184.443 485.637 185.637 486.492C186.831 487.342 187.513 488.113 187.684 488.796C187.854 489.477 188.708 489.987 190.242 490.33C191.778 490.67 193.142 490.499 194.336 489.815C195.23 489.306 195.247 488.842 195.271 488.212C195.279 488 195.288 487.77 195.331 487.511C195.481 486.61 194.402 485.537 191.922 483.075C191.59 482.744 191.232 482.391 190.849 482.007C190.543 481.7 190.25 481.408 189.969 481.129C187.28 478.444 185.74 476.908 184.813 475.361C183.79 473.656 182.637 471.908 181.954 471.567C181.272 471.224 180.436 469.996 179.584 468.457C178.731 466.924 177.079 465.249 176.226 464.566C175.373 463.885 172.9 459.095 169.489 452.444C166.077 445.791 164.317 441.129 162.782 435.331C161.247 429.53 160.323 423.849 160.493 419.587C160.633 416.087 161.853 413.768 162.382 412.764C162.498 412.544 162.58 412.385 162.611 412.293C162.648 412.183 162.685 412.07 162.722 411.96C162.77 411.817 162.818 411.671 162.867 411.528C162.997 411.571 163.127 411.615 163.257 411.658C163.383 411.699 163.508 411.743 163.634 411.784C164.146 411.953 164.828 412.636 165.681 413.829C166.534 415.022 167.386 415.621 168.24 415.621H169.519V416.387C169.519 416.901 170.03 417.411 171.054 417.925C172.077 418.435 172.674 418.947 172.845 419.459C173.015 419.971 174.295 420.739 176.683 421.76C179.071 422.784 181.629 423.468 184.358 423.808C187.087 424.149 190.498 423.893 194.592 423.04C198.685 422.188 202.182 420.823 205.082 418.947C207.981 417.07 209.431 415.793 209.431 415.109C209.431 414.428 209.943 413.573 210.966 412.549C211.99 411.528 212.928 409.736 213.781 407.176C214.634 404.621 215.06 401.976 215.06 399.247C215.06 396.518 214.548 393.615 213.525 390.549C212.501 387.479 211.478 385.344 210.455 384.151C209.431 382.956 207.811 381.591 205.593 380.058C203.376 378.522 201.244 377.585 199.197 377.242C197.151 376.904 193.739 376.904 188.963 377.242C184.187 377.585 181.544 378.097 181.032 378.778C180.52 379.461 179.071 380.058 176.683 380.57C174.295 381.082 171.139 383.299 167.216 387.223C166.235 388.204 165.089 389.66 163.943 391.117C162.798 392.571 161.653 394.028 160.672 395.008C160.416 393.856 159.98 392.312 159.543 390.769C159.106 389.225 158.67 387.681 158.414 386.529C158.14 385.298 157.883 384.215 157.653 383.247C157.024 380.6 156.6 378.816 156.6 377.19C156.6 376.637 156.7 376.013 156.8 375.386C156.9 374.761 157.001 374.136 157.001 373.578C157.171 373.578 157.523 371.679 157.353 371.592C157.438 371.423 157.378 370.97 157.317 370.517C157.257 370.063 157.196 369.61 157.282 369.439C157.623 368.758 157.901 368.197 157.73 366.664C157.724 366.61 157.718 366.559 157.712 366.505C157.548 365.033 157.403 363.735 157.897 362.583C158.409 361.388 158.779 360.113 159.272 357.066C159.765 354.022 162.359 345.469 163.13 343.665C163.902 341.857 167.295 334.093 169.853 330.68C172.411 327.27 177.365 322.406 178.729 321.211C180.094 320.018 180.776 319.165 180.776 318.653C180.776 318.141 180.179 317.801 178.985 317.632C177.791 317.458 175.574 318.738 172.333 321.467ZM196.557 383.852C196.025 383.142 195.037 382.889 192.82 382.717C192.429 382.687 192.07 382.656 191.744 382.628C190.219 382.502 189.394 382.433 189.254 382.712C189.083 383.055 188.64 383.235 187.788 383.066C186.935 382.894 185.389 382.979 185.218 383.319C185.048 383.66 184.703 383.941 182.997 384.11C181.292 384.282 179.75 384.96 179.238 385.641C178.726 386.325 177.349 387.023 175.814 387.704C174.278 388.388 171.966 391.091 169.749 393.82C168.765 395.031 167.858 396.181 167.093 397.148C166.135 398.362 165.398 399.296 165.009 399.718C164.311 400.481 167.301 404.362 170.03 407.434C170.878 408.387 171.533 409.165 172.058 409.789C173.224 411.174 173.753 411.802 174.341 411.919C174.554 411.963 174.811 412.132 175.067 412.301C175.323 412.472 175.58 412.641 175.793 412.685C175.75 412.769 175.93 412.823 176.11 412.874C176.29 412.925 176.469 412.977 176.427 413.064C176.341 413.233 176.256 413.402 176.171 413.573C176.301 413.53 176.431 413.486 176.561 413.443C176.687 413.402 176.813 413.358 176.938 413.317C177.222 413.222 177.466 413.443 177.803 413.742C178.072 413.983 178.4 414.277 178.855 414.505C179.38 414.766 179.871 414.828 180.226 414.874C180.563 414.915 180.776 414.943 180.776 415.109V415.621C180.947 415.578 181.182 415.736 181.418 415.893C181.653 416.051 181.889 416.21 182.059 416.166C182.741 415.995 183.63 416.215 184.312 416.899C184.768 417.354 185.549 417.354 186.933 417.354C187.62 417.354 188.456 417.354 189.475 417.411C192.086 417.557 195.993 416.115 198.254 415.283C198.652 415.135 198.999 415.009 199.278 414.912C201.149 414.262 204.598 411.062 205.622 408.507C205.826 407.995 206.052 407.46 206.285 406.909C207.221 404.693 208.25 402.255 208.25 400.479C208.25 400.036 208.274 399.539 208.299 399.007C208.401 396.89 208.53 394.184 207.303 391.731C205.768 388.659 204.023 386.135 203.341 386.135C203 386.135 201.691 385.541 201.301 385.303C201.256 385.277 201.21 385.247 201.16 385.213C200.884 385.029 200.47 384.758 199.316 384.469C198.773 384.333 198.312 384.323 197.919 384.312C197.323 384.297 196.883 384.287 196.557 383.852Z" fill="#101114"></path> <path fill-rule="evenodd" clip-rule="evenodd" d="M616.684 139.984C613.615 140.496 611.91 140.837 611.567 141.008C611.226 141.178 611.142 141.519 611.311 142.031C611.482 142.543 613.955 142.969 618.732 143.31C621.154 143.483 623.154 143.356 624.736 143.256C626.274 143.158 627.418 143.085 628.176 143.338C629.71 143.849 631.125 144.214 632.83 144.214C634.535 144.214 635.669 144.469 635.838 144.81C636.01 145.152 636.957 145.632 637.981 145.462C638.57 145.364 639.384 145.63 640.231 145.906C640.856 146.111 641.496 146.32 642.077 146.393C643.442 146.563 644.056 146.949 644.396 147.461C644.737 147.973 645.551 147.979 646.063 147.809C646.575 147.638 647.617 147.989 648.126 148.5C648.641 149.012 649.703 149.316 651.237 149.486C651.311 149.495 651.383 149.503 651.454 149.51C652.832 149.662 653.385 149.723 653.546 150.21C653.717 150.722 654.775 151.27 656.311 151.611C657.844 151.952 659.331 152.357 660.186 153.21C660.271 153.295 660.358 153.383 660.445 153.472C661.231 154.272 662.142 155.198 663.829 155.966C664.193 156.13 664.531 156.278 664.851 156.416C666.179 156.994 667.134 157.409 667.823 158.234C668.675 159.258 670.017 160.255 670.378 160.379C670.437 160.399 670.506 160.422 670.588 160.448C671.289 160.677 672.764 161.159 674.753 162.382C676.435 163.417 678.324 165.56 679.719 167.142C680.165 167.647 680.559 168.094 680.881 168.43C681.337 168.908 682.034 169.562 682.743 170.229C684.097 171.505 685.502 172.828 685.392 173.052C685.221 173.393 686.782 175.878 689.68 179.46C692.581 183.042 693.863 185.576 694.544 187.453C694.716 187.922 695.174 189.061 695.635 190.199C696.093 191.335 696.549 192.471 696.72 192.939C696.421 192.982 695.555 192.642 694.693 192.301C693.83 191.962 692.97 191.623 692.673 191.666L690.883 191.922V191.154C690.883 190.642 688.323 190.216 683.206 189.875C678.089 189.534 674.167 189.704 671.435 190.386C668.706 191.069 666.832 191.666 665.808 192.178C664.784 192.689 664.103 193.371 663.76 194.224C663.42 195.077 662.739 195.674 661.715 196.015C660.691 196.356 659.667 197.295 658.645 198.829C657.621 200.365 657.022 201.985 656.853 203.691C656.682 205.396 657.365 207.529 658.901 210.087C660.435 212.645 662.995 214.863 666.576 216.739C670.158 218.615 674.164 219.724 678.603 220.065C683.034 220.406 685.426 220.321 685.763 219.809C686.106 219.298 686.874 219.042 688.067 219.042C689.263 219.042 690.028 218.701 690.369 218.018C690.712 217.336 691.308 216.995 692.161 216.995C693.013 216.995 693.781 216.568 694.462 215.716C695.146 214.863 695.742 214.436 696.254 214.436H697.022V213.669C697.022 213.157 697.79 211.963 699.324 210.087C700.86 208.211 701.543 207.016 701.372 206.505L701.116 205.738C701.628 205.567 702.137 205.396 702.652 205.226C703.673 204.885 705.465 205.482 708.025 207.016C710.58 208.552 712.8 210.258 714.674 212.134C716.553 214.01 717.83 215.033 718.511 215.204C719.194 215.375 719.962 216.142 720.815 217.507C721.67 218.871 722.435 219.639 723.119 219.809C723.8 219.98 724.483 220.747 725.164 222.112C725.848 223.476 726.787 224.67 727.978 225.694C729.173 226.717 730.453 228.508 731.818 231.067C733.182 233.625 734.035 234.904 734.375 234.904C734.716 234.904 735.059 235.587 735.399 236.951C735.74 238.316 736.423 239.765 737.447 241.301C738.469 242.836 738.981 244.03 738.981 244.882C738.981 245.735 739.237 246.418 739.749 246.929C740.261 247.441 740.688 248.55 741.026 250.255C741.372 251.961 741.797 253.07 742.306 253.581C742.821 254.092 743.417 255.713 744.101 258.442C744.782 261.171 745.035 262.876 744.866 263.56C744.695 264.241 744.866 264.84 745.376 265.349C745.89 265.864 746.059 266.545 745.89 267.397C745.719 268.25 745.975 268.762 746.656 268.933L747.68 269.187C747.511 269.87 747.339 270.551 747.168 271.235C746.83 272.602 746.914 273.964 747.424 275.328C747.936 276.695 748.363 279.849 748.704 284.795C749.044 289.741 749.472 292.641 749.984 293.494C750.493 294.346 751.517 294.687 753.053 294.518C754.586 294.346 754.758 293.665 755.101 290.936C755.185 290.255 755.226 289.828 755.265 289.4C755.306 288.973 755.347 288.543 755.431 287.862C755.347 287.862 755.38 287.59 755.416 287.322C755.452 287.048 755.488 286.774 755.401 286.774C755.316 286.774 755.347 286.6 755.377 286.426C755.408 286.249 755.441 286.075 755.354 286.075C755.398 285.563 755.17 285.064 754.942 284.567C754.714 284.07 754.487 283.576 754.53 283.064C754.702 281.016 754.52 279.749 754.005 278.385C753.496 277.02 753.358 275.228 753.529 273.011C753.698 270.794 753.58 269.458 753.071 268.774C752.556 268.094 752.234 266.465 752.403 265.613C752.533 264.978 752.226 263.795 751.499 260.974C751.248 260.012 750.951 258.854 750.603 257.464C749.239 252.008 747.846 247.812 746.653 244.741C746.146 243.438 745.793 242.359 745.527 241.55C745.166 240.454 744.966 239.851 744.771 239.851C744.431 239.851 743.417 238.872 742.908 236.826C742.393 234.779 740.302 231.045 735.865 224.734C731.431 218.423 727.051 213.309 722.103 208.874C717.159 204.439 708.217 197.934 703.84 196.595C702.905 196.309 702.718 194.804 702.473 192.856C702.337 191.783 702.186 190.575 701.884 189.363C701.029 185.952 699.408 182.626 697.022 179.385C694.631 176.144 693.441 174.268 693.441 173.756C693.441 173.244 691.733 171.198 688.323 167.616C684.911 164.034 681.842 161.134 679.113 158.917C676.384 156.7 674.42 155.335 673.23 154.823C672.034 154.312 671.351 153.8 671.182 153.288C671.01 152.776 668.706 151.412 664.275 149.195C659.841 146.977 656.597 145.698 654.552 145.357C652.504 145.016 651.139 144.504 650.458 143.822C649.775 143.14 649.094 142.884 648.41 143.054C647.727 143.225 646.191 143.054 643.808 142.543C641.419 142.031 640.139 141.605 639.968 141.263C639.799 140.922 639.2 140.837 638.176 141.008C637.154 141.178 636.555 141.093 636.386 140.752C636.215 140.411 635.705 140.325 634.85 140.496C633.998 140.667 633.486 140.581 633.317 140.24C633.145 139.899 631.952 139.813 629.733 139.984C627.516 140.155 626.32 140.069 626.151 139.728C625.98 139.387 625.13 139.217 623.591 139.217C622.058 139.217 619.756 139.472 616.684 139.984ZM676.186 195.747C676.018 196.088 674.133 195.567 673.283 195.225C672.451 194.893 671.102 196.689 670.56 197.412C670.544 197.43 670.531 197.448 670.519 197.465C670.298 197.759 670.265 197.867 670.229 197.868C670.181 197.869 670.132 197.682 669.646 197.488C669.433 197.402 669.221 197.717 669.006 198.031C668.793 198.345 668.581 198.659 668.368 198.574C668.325 198.744 667.915 198.801 667.505 198.857C667.096 198.914 666.686 198.97 666.643 199.14C666.479 199.803 666.446 199.813 665.347 200.126C665.314 200.135 665.283 200.144 665.248 200.154C664.057 200.495 663.525 201.157 663.525 202.01C663.525 202.284 663.484 202.649 663.443 203.041C663.351 203.873 663.248 204.827 663.481 205.291C663.822 205.973 665.675 208.765 668.064 210.47C670.45 212.176 672.134 212.633 674.354 213.144C676.568 213.656 679.274 214.108 679.274 214.108C679.274 214.108 682.162 213.904 682.33 213.563C682.502 213.222 683.293 213.32 684.317 213.661C684.824 213.83 685.131 213.635 685.497 213.402C685.868 213.165 686.304 212.889 687.069 212.921C687.983 212.959 688.426 212.567 688.743 212.283C688.956 212.095 689.114 211.955 689.319 212.023C689.621 212.124 689.964 211.666 690.441 211.028C690.768 210.588 691.162 210.063 691.649 209.575C691.933 209.291 692.25 209.002 692.581 208.702C693.635 207.74 694.821 206.66 695.471 205.231C696.321 203.354 697.312 199.309 695.947 198.456C694.583 197.603 693.052 197.538 691.347 197.538C689.642 197.538 688.142 196.422 687.461 195.911C686.777 195.399 684.655 195.031 681.585 194.86C678.513 194.689 676.358 195.406 676.186 195.747Z" fill="#101114"></path> <mask id="mask0_35_634" style="mask-type:alpha" maskUnits="userSpaceOnUse" x="241" y="375" width="476" height="259"> <path d="M644.648 377.679C644.508 377.441 652.989 374.746 655.956 375.406C672.832 379.169 686.415 388.047 696.888 403.725C727.349 449.303 718.494 513.884 699.371 539.73C622.73 643.3 496.639 633.579 464.104 633.579C430.079 633.579 358.079 622.605 317.91 602.23C291.435 588.8 260.513 562.665 247.784 548.938C243.281 544.082 241.442 538.027 242.033 532.48C243.169 521.828 249.962 525.673 249.435 525.163C245.788 521.636 241.473 512.814 242.033 506.898C243.013 496.543 247.556 495.649 251.837 497.288C252.054 497.37 247.165 487.869 248.805 481.679C251.005 473.375 258.431 474.488 260.418 475.023C262.405 475.556 251.672 455.803 265.185 450.77C272.386 448.09 276.697 456.402 282.421 460.772C296.757 471.711 311.766 481.887 328.13 489.265C401.942 522.519 460.805 534.208 544.934 513.28C578.112 505.024 651.77 458.447 660.976 445.98C664.506 441.195 647.964 383.265 644.648 377.679Z" fill="#DCDCE0"></path> </mask> <g mask="url(#mask0_35_634)"> <path d="M644.647 377.679C644.507 377.441 652.988 374.746 655.955 375.406C672.831 379.169 686.411 388.047 696.887 403.725C727.348 449.303 718.493 513.884 699.368 539.73C622.729 643.3 494.562 630.636 464.104 633.58C428.873 636.982 358.079 622.605 317.91 602.23C293.272 589.732 257.839 563.945 245.109 550.218C240.606 545.362 236.001 537.994 236.593 532.444C237.729 521.795 247.195 524.36 246.668 523.848C243.022 520.32 238.706 511.501 239.266 505.582C240.246 495.229 247.554 495.649 251.836 497.288C252.053 497.37 247.164 487.869 248.803 481.679C251.004 473.375 258.431 474.488 260.417 475.023C262.404 475.556 251.671 455.803 265.184 450.77C272.385 448.09 276.696 456.402 282.42 460.772C296.756 471.711 311.763 481.887 328.129 489.265C401.942 522.519 460.804 534.208 544.933 513.28C578.111 505.024 651.769 458.447 660.975 445.98C664.505 441.195 647.963 383.265 644.647 377.679Z" fill="url(#paint0_radial_35_634)"></path> <g filter="url(#filter0_f_35_634)"> <path d="M343.875 558.047C428.139 644.016 527.926 683.803 566.753 646.915C605.581 610.026 568.746 510.43 484.481 424.461C400.216 338.492 300.43 298.704 261.603 335.593C222.775 372.482 259.61 472.078 343.875 558.047Z" fill="#C9E8FF"></path> </g> <g filter="url(#filter1_f_35_634)"> <path d="M445.425 806.797C489.559 918.085 588.612 983.98 666.666 953.977C744.719 923.973 772.216 809.434 728.082 698.145C683.948 586.857 584.895 520.962 506.841 550.966C428.788 580.969 401.291 695.508 445.425 806.797Z" fill="#615DE7"></path> </g> <g filter="url(#filter2_f_35_634)"> <path d="M741.678 604.722C855.042 562.102 934.91 496.532 920.068 458.266C905.227 420.001 801.295 423.53 687.93 466.15C574.566 508.769 494.698 574.339 509.54 612.605C524.381 650.87 628.313 647.341 741.678 604.722Z" fill="url(#paint1_radial_35_634)"></path> </g> <g filter="url(#filter3_f_35_634)"> <path d="M621.075 391.395C589.952 491.686 608.548 586.171 662.611 602.433C716.674 618.695 785.731 550.575 816.854 450.284C847.977 349.992 829.38 255.507 775.318 239.245C721.255 222.984 652.198 291.103 621.075 391.395Z" fill="#C9E8FF"></path> </g> </g> <mask id="mask1_35_634" style="mask-type:alpha" maskUnits="userSpaceOnUse" x="252" y="331" width="98" height="113"> <path d="M312.32 359.677C317.44 353.277 339.735 367.36 345.6 363.52C362.24 352.625 321.157 329.585 302.08 331.52C253.697 336.422 232.347 417.935 274.967 441.467C286.379 447.772 286.72 433.083 286.72 432.637C290.56 436.477 299.753 439.501 305.92 432.637C308.71 429.532 308.244 424.056 303.36 417.277C303.36 417.277 316.733 423.677 320 415.997C323.266 408.317 320 401.917 314.88 395.517C322.56 398.077 329.928 391.531 325.12 382.72C323.676 380.075 320 375.037 318.72 372.48C317.44 369.923 312.32 360.96 312.32 359.677Z" fill="#DCDCE0"></path> </mask> <g mask="url(#mask1_35_634)"> <path d="M312.32 359.677C317.44 353.277 339.735 367.36 345.6 363.52C362.24 352.625 321.157 329.585 302.08 331.52C253.697 336.422 232.347 417.935 274.967 441.467C286.379 447.772 286.72 433.083 286.72 432.637C290.56 436.477 299.753 439.501 305.92 432.637C308.71 429.532 308.244 424.056 303.36 417.277C303.36 417.277 316.733 423.677 320 415.997C323.266 408.317 320 401.917 314.88 395.517C322.56 398.077 329.928 391.532 325.12 382.72C323.676 380.076 320 375.037 318.72 372.48C317.44 369.923 312.32 360.96 312.32 359.677Z" fill="url(#paint2_radial_35_634)"></path> <g filter="url(#filter4_f_35_634)"> <path d="M256.809 423.584C240.811 475.137 243.905 521.761 263.72 527.721C283.535 533.682 312.568 496.721 328.566 445.168C344.564 393.615 341.47 346.992 321.655 341.031C301.84 335.071 272.807 372.031 256.809 423.584Z" fill="#C9E8FF"></path> </g> <g filter="url(#filter5_f_35_634)"> <path d="M220.18 400.679C281.095 377.778 323.071 340.12 313.936 316.567C304.801 293.015 248.013 292.486 187.098 315.388C126.182 338.289 84.2064 375.947 93.3416 399.5C102.477 423.052 159.264 423.58 220.18 400.679Z" fill="url(#paint3_radial_35_634)"></path> </g> </g> <path opacity="0.6" d="M440.881 107.399C442.412 99.774 443.618 95.062 444.491 93.268C445.369 91.4773 446.134 90.5767 446.79 90.5767C447.45 90.5767 448.103 91.2512 448.763 92.597C449.416 93.9425 450.077 96.8602 450.732 101.342C451.39 105.828 452.921 110.65 455.33 115.811C457.739 120.967 460.145 124.333 462.554 125.902C464.963 127.473 466.276 128.593 466.494 129.267C466.714 129.938 469.013 131.173 473.391 132.967C477.768 134.761 479.742 136.329 479.304 137.679C478.861 139.021 476.127 140.593 471.092 142.387C466.056 144.181 462.664 146.086 460.913 148.107C459.162 150.124 457.629 152.815 456.315 156.181C455 159.543 453.579 165.489 452.045 174.008C451.28 178.272 449.595 183.597 448.83 187.857C447.954 186.062 447.995 183.206 447.12 181.411C445.369 177.823 443.288 171.769 440.881 163.243C438.472 154.724 435.953 149.453 433.327 147.432C430.697 145.416 426.763 143.959 421.507 143.062C416.254 142.164 413.405 141.379 412.967 140.704C412.529 140.033 412.967 138.798 414.28 137.004C415.593 135.21 416.579 134.424 417.237 134.65C417.892 134.873 418.33 134.761 418.55 134.313C418.768 133.864 420.189 133.416 422.818 132.967C425.444 132.519 426.978 131.847 427.416 130.947C427.853 130.05 428.401 129.605 429.059 129.605H430.045V128.593C430.045 127.922 430.81 127.358 432.341 126.913C433.874 126.461 435.298 125.004 436.611 122.539C437.924 120.07 439.345 115.025 440.881 107.399Z" fill="url(#paint4_radial_35_634)"></path> <path opacity="0.6" d="M710.162 342.656C709.102 347.471 708.268 350.446 707.661 351.58C707.054 352.712 706.524 353.28 706.071 353.28C705.616 353.28 705.162 352.855 704.704 352.005C704.251 351.155 703.795 349.312 703.342 346.481C702.887 343.647 701.827 340.603 700.158 337.341C698.491 334.085 696.825 331.96 695.158 330.97C693.489 329.976 692.58 329.27 692.429 328.845C692.275 328.42 690.686 327.639 687.655 326.507C684.624 325.373 683.257 324.383 683.561 323.53C683.866 322.683 685.76 321.692 689.247 320.558C692.734 319.424 695.081 318.221 696.292 316.946C697.506 315.671 698.568 313.971 699.477 311.846C700.386 309.722 701.371 305.966 702.434 300.585C702.961 297.894 704.128 294.531 704.658 291.84C705.265 292.974 705.237 294.776 705.843 295.91C707.054 298.176 708.496 302.001 710.162 307.384C711.829 312.765 713.572 316.096 715.392 317.371C717.212 318.646 719.936 319.565 723.574 320.131C727.212 320.699 729.183 321.196 729.485 321.62C729.79 322.045 729.485 322.824 728.579 323.958C727.667 325.089 726.986 325.586 726.531 325.445C726.078 325.304 725.773 325.373 725.622 325.658C725.471 325.939 724.485 326.223 722.668 326.507C720.848 326.789 719.785 327.214 719.483 327.782C719.181 328.351 718.802 328.63 718.346 328.63H717.666V329.27C717.666 329.695 717.133 330.051 716.073 330.33C715.011 330.616 714.028 331.535 713.119 333.094C712.208 334.653 711.225 337.838 710.162 342.656Z" fill="url(#paint5_radial_35_634)"></path> <path d="M787.535 397.967C788.388 397.286 789.071 395.323 789.581 392.084C790.095 388.844 790.861 387.22 791.885 387.22C792.909 387.22 793.761 387.479 794.445 387.991C795.126 388.5 795.722 389.949 796.234 392.34C796.746 394.726 797.599 396.603 798.792 397.967C799.987 399.332 801.18 399.931 802.376 399.759C803.569 399.59 804.68 399.931 805.699 400.781C806.725 401.636 807.15 402.488 806.979 403.341C806.81 404.193 805.873 404.877 804.165 405.389C802.46 405.898 800.84 406.669 799.306 407.69C797.768 408.714 796.577 410.762 795.722 413.829C794.87 416.904 794.017 418.949 793.165 419.971C792.31 420.997 791.288 421.166 790.095 420.483C788.9 419.802 788.216 418.01 788.047 415.109C787.876 412.211 787.451 410.419 786.767 409.736C786.086 409.055 785.659 408.287 785.487 407.434C785.318 406.582 784.294 405.642 782.418 404.621C780.544 403.597 779.773 402.575 780.116 401.549C780.454 400.527 781.565 399.846 783.442 399.501C785.318 399.163 786.683 398.651 787.535 397.967Z" fill="#101114"></path> <path d="M309.886 167.441C310.229 164.03 310.654 161.812 311.166 160.789C311.678 159.766 312.274 159.254 312.958 159.254C313.639 159.254 314.407 159.595 315.259 160.277C316.111 160.96 316.623 163.859 316.795 168.976C316.964 174.093 317.476 178.016 318.328 180.745C319.183 183.474 320.376 185.947 321.912 188.164C323.446 190.383 324.641 191.747 325.494 192.258C326.346 192.771 326.774 193.281 326.774 193.794V194.561H327.539C328.051 194.561 328.479 194.902 328.819 195.584C329.16 196.267 330.099 197.033 331.633 197.888C333.169 198.739 334.021 199.763 334.193 200.958C334.362 202.15 333.34 203.174 331.123 204.028C328.904 204.88 326.518 206.585 323.958 209.145C321.4 211.702 319.524 214.519 318.328 217.586C317.135 220.659 316.283 224.324 315.771 228.59C315.259 232.853 313.982 234.987 311.934 234.987C309.886 234.987 308.608 233.193 308.096 229.613C307.584 226.03 306.476 222.534 304.771 219.122C303.063 215.711 301.87 213.836 301.187 213.493C300.506 213.151 299.909 212.3 299.397 210.935C298.885 209.571 298.373 208.973 297.861 209.145L297.093 209.399C297.009 209.145 296.924 208.889 296.837 208.632C296.668 208.122 296.241 207.865 295.56 207.865H294.536V207.352C294.536 207.011 293.852 206.585 292.488 206.075C291.123 205.562 290.186 204.967 289.674 204.285C289.162 203.602 288.481 203.258 287.629 203.258C286.774 203.258 286.177 202.579 285.837 201.212C285.496 199.847 286.093 198.57 287.629 197.375C289.162 196.182 290.271 195.584 290.954 195.584C291.635 195.584 292.831 195.071 294.536 194.051C296.241 193.025 298.117 191.234 300.165 188.677C302.211 186.117 304.259 182.792 306.304 178.698C308.352 174.605 309.545 170.852 309.886 167.441Z" fill="#101114"></path> <defs> <filter id="filter0_f_35_634" x="162.145" y="237.824" width="504.066" height="506.859" filterUnits="userSpaceOnUse" color-interpolation-filters="sRGB"> <feFlood flood-opacity="0" result="BackgroundImageFix"></feFlood> <feBlend mode="normal" in="SourceGraphic" in2="BackgroundImageFix" result="shape"></feBlend> <feGaussianBlur stdDeviation="10.5" result="effect1_foregroundBlur_35_634"></feGaussianBlur> </filter> <filter id="filter1_f_35_634" x="280.369" y="399.719" width="612.77" height="705.505" filterUnits="userSpaceOnUse" color-interpolation-filters="sRGB"> <feFlood flood-opacity="0" result="BackgroundImageFix"></feFlood> <feBlend mode="normal" in="SourceGraphic" in2="BackgroundImageFix" result="shape"></feBlend> <feGaussianBlur stdDeviation="18" result="effect1_foregroundBlur_35_634"></feGaussianBlur> </filter> <filter id="filter2_f_35_634" x="383.764" y="307.725" width="662.08" height="455.42" filterUnits="userSpaceOnUse" color-interpolation-filters="sRGB"> <feFlood flood-opacity="0" result="BackgroundImageFix"></feFlood> <feBlend mode="normal" in="SourceGraphic" in2="BackgroundImageFix" result="shape"></feBlend> <feGaussianBlur stdDeviation="15.5" result="effect1_foregroundBlur_35_634"></feGaussianBlur> </filter> <filter id="filter3_f_35_634" x="485.994" y="116.846" width="465.941" height="607.986" filterUnits="userSpaceOnUse" color-interpolation-filters="sRGB"> <feFlood flood-opacity="0" result="BackgroundImageFix"></feFlood> <feBlend mode="normal" in="SourceGraphic" in2="BackgroundImageFix" result="shape"></feBlend> <feGaussianBlur stdDeviation="15" result="effect1_foregroundBlur_35_634"></feGaussianBlur> </filter> <filter id="filter4_f_35_634" x="126.572" y="220.401" width="332.229" height="427.951" filterUnits="userSpaceOnUse" color-interpolation-filters="sRGB"> <feFlood flood-opacity="0" result="BackgroundImageFix"></feFlood> <feBlend mode="normal" in="SourceGraphic" in2="BackgroundImageFix" result="shape"></feBlend> <feGaussianBlur stdDeviation="15" result="effect1_foregroundBlur_35_634"></feGaussianBlur> </filter> <filter id="filter5_f_35_634" x="-31.9062" y="174.551" width="471.09" height="366.964" filterUnits="userSpaceOnUse" color-interpolation-filters="sRGB"> <feFlood flood-opacity="0" result="BackgroundImageFix"></feFlood> <feBlend mode="normal" in="SourceGraphic" in2="BackgroundImageFix" result="shape"></feBlend> <feGaussianBlur stdDeviation="15.5" result="effect1_foregroundBlur_35_634"></feGaussianBlur> </filter> <radialGradient id="paint0_radial_35_634" cx="0" cy="0" r="1" gradientUnits="userSpaceOnUse" gradientTransform="translate(316.584 474.501) rotate(-12.0515) scale(309.85 173.355)"> <stop stop-color="#615DE6"></stop> <stop offset="0.323513" stop-color="#84A3E9"></stop> <stop offset="0.504489" stop-color="#B0CFE8"></stop> <stop offset="0.82687" stop-color="#D0F8CF"></stop> <stop offset="1" stop-color="#BFF2B4"></stop> </radialGradient> <radialGradient id="paint1_radial_35_634" cx="0" cy="0" r="1" gradientUnits="userSpaceOnUse" gradientTransform="translate(714.804 535.436) rotate(68.8005) scale(74.315 219.279)"> <stop stop-color="#C9F6C6"></stop> <stop offset="1" stop-color="#B8F5D6"></stop> </radialGradient> <radialGradient id="paint2_radial_35_634" cx="0" cy="0" r="1" gradientUnits="userSpaceOnUse" gradientTransform="translate(343.04 316.16) rotate(126.057) scale(180.498 186.166)"> <stop stop-color="#615DE6"></stop> <stop offset="0.323513" stop-color="#84A3E9"></stop> <stop offset="0.504489" stop-color="#B0CFE8"></stop> <stop offset="0.82687" stop-color="#D0F8CF"></stop> <stop offset="1" stop-color="#BFF2B4"></stop> </radialGradient> <radialGradient id="paint3_radial_35_634" cx="0" cy="0" r="1" gradientUnits="userSpaceOnUse" gradientTransform="translate(203.639 358.033) rotate(68.8005) scale(45.7413 117.828)"> <stop stop-color="#C9F6C6"></stop> <stop offset="1" stop-color="#B8F5D6"></stop> </radialGradient> <radialGradient id="paint4_radial_35_634" cx="0" cy="0" r="1" gradientUnits="userSpaceOnUse" gradientTransform="translate(423.896 127.867) rotate(-30.075) scale(48.5302 57.6655)"> <stop stop-color="#615DE6"></stop> <stop offset="0.323513" stop-color="#84A3E9"></stop> <stop offset="0.504489" stop-color="#B0CFE8"></stop> <stop offset="0.82687" stop-color="#D0F8CF"></stop> <stop offset="1" stop-color="#BFF2B4"></stop> </radialGradient> <radialGradient id="paint5_radial_35_634" cx="0" cy="0" r="1" gradientUnits="userSpaceOnUse" gradientTransform="translate(718.08 335.36) rotate(-167.661) scale(41.9284 47.4499)"> <stop stop-color="#615DE6"></stop> <stop offset="0.323513" stop-color="#84A3E9"></stop> <stop offset="0.504489" stop-color="#B0CFE8"></stop> <stop offset="0.82687" stop-color="#D0F8CF"></stop> <stop offset="1" stop-color="#BFF2B4"></stop> </radialGradient> </defs> </svg> 